<svg xmlns="http://www.w3.org/2000/svg" xmlns:xlink="http://www.w3.org/1999/xlink" x="0" y="0" width="662" height="355.4" style="
        width:662px;
        height:355.4px;
        background: transparent;
        fill: none;
">
        
        
        <svg xmlns="http://www.w3.org/2000/svg" class="role-diagram-draw-area"><g class="shapes-region" style="stroke: black; fill: none;"><g class="arrow-line"><path class="connection real" stroke-dasharray="" d="  M35.81,68.3 L74.99,121.78" style="stroke: rgb(255, 255, 255); stroke-opacity: 1; stroke-width: 1px; fill: none; fill-opacity: 1;"/><g stroke="rgb(255,255,255)" stroke-opacity="1" transform="matrix(-0.5910281100730673,-0.8066509611371316,0.8066509611371316,-0.5910281100730673,76.16728055489116,123.3962264150943)" style="stroke: rgb(255, 255, 255); stroke-width: 1px;"><path d=" M10.93,-3.29 Q4.96,-0.45 0,0 Q4.96,0.45 10.93,3.29"/></g></g><g class="arrow-line"><path class="connection real" stroke-dasharray="" d="  M129.98,68.3 L90.8,121.78" style="stroke: rgb(255, 255, 255); stroke-opacity: 1; stroke-width: 1px; fill: none; fill-opacity: 1;"/><g stroke="rgb(255,255,255)" stroke-opacity="1" transform="matrix(0.591028110073067,-0.8066509611371319,0.8066509611371319,0.591028110073067,89.62060025599848,123.39622641509433)" style="stroke: rgb(255, 255, 255); stroke-width: 1px;"><path d=" M10.93,-3.29 Q4.96,-0.45 0,0 Q4.96,0.45 10.93,3.29"/></g></g><g class="arrow-line"><path class="connection real" stroke-dasharray="" d="  M194.56,71.06 L233.73,124.54" style="stroke: rgb(255, 255, 255); stroke-opacity: 1; stroke-width: 1px; fill: none; fill-opacity: 1;"/><g stroke="rgb(255,255,255)" stroke-opacity="1" transform="matrix(-0.5910281100730673,-0.8066509611371316,0.8066509611371316,-0.5910281100730673,234.9164530279574,126.15094339622641)" style="stroke: rgb(255, 255, 255); stroke-width: 1px;"><path d=" M10.93,-3.29 Q4.96,-0.45 0,0 Q4.96,0.45 10.93,3.29"/></g></g><g class="arrow-line"><path class="connection real" stroke-dasharray="" d="  M288.73,71.06 L249.55,124.54" style="stroke: rgb(255, 255, 255); stroke-opacity: 1; stroke-width: 1px; fill: none; fill-opacity: 1;"/><g stroke="rgb(255,255,255)" stroke-opacity="1" transform="matrix(0.591028110073067,-0.8066509611371319,0.8066509611371319,0.591028110073067,248.36977272906472,126.1509433962264)" style="stroke: rgb(255, 255, 255); stroke-width: 1px;"><path d=" M10.93,-3.29 Q4.96,-0.45 0,0 Q4.96,0.45 10.93,3.29"/></g></g><g class="arrow-line"><path class="connection real" stroke-dasharray="" d="  M356,71.06 L395.17,124.54" style="stroke: rgb(255, 255, 255); stroke-opacity: 1; stroke-width: 1px; fill: none; fill-opacity: 1;"/><g stroke="rgb(255,255,255)" stroke-opacity="1" transform="matrix(-0.5910281100730673,-0.8066509611371316,0.8066509611371316,-0.5910281100730673,396.35628944124517,126.15094339622647)" style="stroke: rgb(255, 255, 255); stroke-width: 1px;"><path d=" M10.93,-3.29 Q4.96,-0.45 0,0 Q4.96,0.45 10.93,3.29"/></g></g><g class="arrow-line"><path class="connection real" stroke-dasharray="" d="  M450.17,71.06 L410.99,124.54" style="stroke: rgb(255, 255, 255); stroke-opacity: 1; stroke-width: 1px; fill: none; fill-opacity: 1;"/><g stroke="rgb(255,255,255)" stroke-opacity="1" transform="matrix(0.591028110073067,-0.8066509611371319,0.8066509611371319,0.591028110073067,409.8096091423525,126.15094339622641)" style="stroke: rgb(255, 255, 255); stroke-width: 1px;"><path d=" M10.93,-3.29 Q4.96,-0.45 0,0 Q4.96,0.45 10.93,3.29"/></g></g><g class="arrow-line"><path class="connection real" stroke-dasharray="" d="  M512.05,71.06 L551.23,124.54" style="stroke: rgb(255, 255, 255); stroke-opacity: 1; stroke-width: 1px; fill: none; fill-opacity: 1;"/><g stroke="rgb(255,255,255)" stroke-opacity="1" transform="matrix(-0.5910281100730673,-0.8066509611371316,0.8066509611371316,-0.5910281100730673,552.4147979740901,126.15094339622647)" style="stroke: rgb(255, 255, 255); stroke-width: 1px;"><path d=" M10.93,-3.29 Q4.96,-0.45 0,0 Q4.96,0.45 10.93,3.29"/></g></g><g class="arrow-line"><path class="connection real" stroke-dasharray="" d="  M606.23,71.06 L567.05,124.54" style="stroke: rgb(255, 255, 255); stroke-opacity: 1; stroke-width: 1px; fill: none; fill-opacity: 1;"/><g stroke="rgb(255,255,255)" stroke-opacity="1" transform="matrix(0.591028110073067,-0.8066509611371319,0.8066509611371319,0.591028110073067,565.8681176751973,126.15094339622641)" style="stroke: rgb(255, 255, 255); stroke-width: 1px;"><path d=" M10.93,-3.29 Q4.96,-0.45 0,0 Q4.96,0.45 10.93,3.29"/></g></g><g class="arrow-line"><path class="connection real" stroke-dasharray="" d="  M89.62,164.72 L155.34,218.54" style="stroke: rgb(255, 255, 255); stroke-opacity: 1; stroke-width: 1px; fill: none; fill-opacity: 1;"/><g stroke="rgb(255,255,255)" stroke-opacity="1" transform="matrix(-0.773619070953025,-0.6336509552251764,0.6336509552251764,-0.773619070953025,156.88719876153505,219.81132075471697)" style="stroke: rgb(255, 255, 255); stroke-width: 1px;"><path d=" M10.93,-3.29 Q4.96,-0.45 0,0 Q4.96,0.45 10.93,3.29"/></g></g><g class="arrow-line"><path class="connection real" stroke-dasharray="" d="  M237.61,164.72 L171.89,218.54" style="stroke: rgb(255, 255, 255); stroke-opacity: 1; stroke-width: 1px; fill: none; fill-opacity: 1;"/><g stroke="rgb(255,255,255)" stroke-opacity="1" transform="matrix(0.7736190709530247,-0.6336509552251767,0.6336509552251767,0.7736190709530247,170.34051846264236,219.81132075471697)" style="stroke: rgb(255, 255, 255); stroke-width: 1px;"><path d=" M10.93,-3.29 Q4.96,-0.45 0,0 Q4.96,0.45 10.93,3.29"/></g></g><g class="arrow-line"><path class="connection real" stroke-dasharray="" d="  M412.5,164.72 L478.22,218.54" style="stroke: rgb(255, 255, 255); stroke-opacity: 1; stroke-width: 1px; fill: none; fill-opacity: 1;"/><g stroke="rgb(255,255,255)" stroke-opacity="1" transform="matrix(-0.773619070953025,-0.6336509552251764,0.6336509552251764,-0.773619070953025,479.76687158811046,219.81132075471697)" style="stroke: rgb(255, 255, 255); stroke-width: 1px;"><path d=" M10.93,-3.29 Q4.96,-0.45 0,0 Q4.96,0.45 10.93,3.29"/></g></g><g class="arrow-line"><path class="connection real" stroke-dasharray="" d="  M560.49,164.72 L494.77,218.54" style="stroke: rgb(255, 255, 255); stroke-opacity: 1; stroke-width: 1px; fill: none; fill-opacity: 1;"/><g stroke="rgb(255,255,255)" stroke-opacity="1" transform="matrix(0.7736190709530247,-0.6336509552251767,0.6336509552251767,0.7736190709530247,493.22019128921784,219.81132075471697)" style="stroke: rgb(255, 255, 255); stroke-width: 1px;"><path d=" M10.93,-3.29 Q4.96,-0.45 0,0 Q4.96,0.45 10.93,3.29"/></g></g><g class="arrow-line"><path class="connection real" stroke-dasharray="" d="  M171,250 L316.5,315.41" style="stroke: rgb(255, 255, 255); stroke-opacity: 1; stroke-width: 1px; fill: none; fill-opacity: 1;"/><g stroke="rgb(255,255,255)" stroke-opacity="1" transform="matrix(-0.9121201161722731,-0.4099230338415726,0.4099230338415726,-0.9121201161722731,318.3270351748228,316.2264150943396)" style="stroke: rgb(255, 255, 255); stroke-width: 1px;"><path d=" M10.93,-3.29 Q4.96,-0.45 0,0 Q4.96,0.45 10.93,3.29"/></g></g><g class="arrow-line"><path class="connection real" stroke-dasharray="" d="  M481,250 L347.03,315.35" style="stroke: rgb(255, 255, 255); stroke-opacity: 1; stroke-width: 1px; fill: none; fill-opacity: 1;"/><g stroke="rgb(255,255,255)" stroke-opacity="1" transform="matrix(0.8987940462991671,-0.438371146789077,0.438371146789077,0.8987940462991671,345.2336745770374,316.22641509433964)" style="stroke: rgb(255, 255, 255); stroke-width: 1px;"><path d=" M10.93,-3.29 Q4.96,-0.45 0,0 Q4.96,0.45 10.93,3.29"/></g></g><g class="composite-shape"><path class="real" d=" M10,190 L650,190 L650,280 L10,280 Z" style="stroke-width: 1px; stroke: rgb(255, 255, 255); stroke-opacity: 1; fill: none; fill-opacity: 1; stroke-dasharray: 1.125px, 3.35px;"/></g><g class="composite-shape"><path class="real" d=" M10,100 L650,100 L650,190 L10,190 Z" style="stroke-width: 1px; stroke: rgb(255, 255, 255); stroke-opacity: 1; fill: none; fill-opacity: 1; stroke-dasharray: 1.125px, 3.35px;"/></g><g/></g><g/><g/><g/></svg>
        <svg xmlns="http://www.w3.org/2000/svg" xmlns:xlink="http://www.w3.org/1999/xlink" width="660" height="353.4" style="width:660px;height:353.4px;font-family:Asana-Math, Asana;background:transparent;"><g><g><g><g transform="matrix(1,0,0,1,23.1199951171875,59.34666748046875)"><path transform="matrix(0.017,0,0,-0.017,0,0)" d="M349 664L352 692L238 689C222 689 204 689 161 690L97 692L94 664L141 662C165 661 176 653 176 635L81 55C77 37 65 30 21 23L16 -3L57 -2C88 -1 150 0 170 0C170 0 467 -1 467 -1C467 -1 500 0 500 0C499 25 510 103 523 165L492 165L475 103C466 71 457 54 448 49C435 44 371 39 304 39C255 39 228 40 162 46C165 64 256 605 256 613C263 651 270 658 307 661Z" stroke="rgb(255,255,255)" stroke-opacity="1" stroke-width="8" fill="rgb(255,255,255)" fill-opacity="1"></path></g></g><g><g><g><g><g transform="matrix(1,0,0,1,32.639990234375,62.15332031249999)"><path transform="matrix(0.0119,0,0,-0.0119,0,0)" d="M567 55C567 39 552 30 524 28L480 25L480 -3C582 0 582 0 602 0C622 0 622 0 724 -3L724 25L698 28C651 35 650 35 642 80L555 705L509 705L136 112C100 56 82 40 48 32L28 27L28 -3C120 0 120 0 140 0C159 0 161 0 247 -3L247 25L195 28C179 29 164 38 164 47C164 55 171 69 190 102L292 277L538 277L563 89L563 86C563 84 567 69 567 55ZM496 601L533 313L317 313Z" stroke="rgb(255,255,255)" stroke-opacity="1" stroke-width="8" fill="rgb(255,255,255)" fill-opacity="1"></path></g></g></g></g></g></g></g><g><g><g><g transform="matrix(1,0,0,1,122.333349609375,59.34666748046875)"><path transform="matrix(0.017,0,0,-0.017,0,0)" d="M349 664L352 692L238 689C222 689 204 689 161 690L97 692L94 664L141 662C165 661 176 653 176 635L81 55C77 37 65 30 21 23L16 -3L57 -2C88 -1 150 0 170 0C170 0 467 -1 467 -1C467 -1 500 0 500 0C499 25 510 103 523 165L492 165L475 103C466 71 457 54 448 49C435 44 371 39 304 39C255 39 228 40 162 46C165 64 256 605 256 613C263 651 270 658 307 661Z" stroke="rgb(255,255,255)" stroke-opacity="1" stroke-width="8" fill="rgb(255,255,255)" fill-opacity="1"></path></g></g><g><g><g><g><g transform="matrix(1,0,0,1,131.8533203125,62.15332031249999)"><path transform="matrix(0.0119,0,0,-0.0119,0,0)" d="M543 227C543 337 459 353 377 365C434 385 459 397 490 425C536 464 559 511 559 562C559 644 501 692 401 692C399 692 389 692 374 691L311 690C299 689 263 689 251 689C232 689 201 690 152 691L100 692L97 664L150 662C174 661 185 653 185 635C185 621 181 589 176 559L89 55C85 37 73 30 31 23L26 -3L63 -2C90 0 105 0 117 0C128 0 154 -1 180 -2L217 -3L237 -4C256 -5 269 -6 277 -6C392 -6 543 87 543 227ZM166 41L217 340L302 340C405 340 455 298 455 211C455 108 382 34 282 34C228 34 207 38 166 41ZM352 655C433 655 473 619 473 544C473 439 399 376 275 376L223 376L272 650C288 650 329 655 352 655Z" stroke="rgb(255,255,255)" stroke-opacity="1" stroke-width="8" fill="rgb(255,255,255)" fill-opacity="1"></path></g></g></g></g></g></g></g><g><g><g><g transform="matrix(1,0,0,1,70.066650390625,144.7466796875)"><path transform="matrix(0.017,0,0,-0.017,0,0)" d="M349 664L352 692L238 689C222 689 204 689 161 690L97 692L94 664L141 662C165 661 176 653 176 635L81 55C77 37 65 30 21 23L16 -3L57 -2C88 -1 150 0 170 0C170 0 467 -1 467 -1C467 -1 500 0 500 0C499 25 510 103 523 165L492 165L475 103C466 71 457 54 448 49C435 44 371 39 304 39C255 39 228 40 162 46C165 64 256 605 256 613C263 651 270 658 307 661Z" stroke="rgb(255,255,255)" stroke-opacity="1" stroke-width="8" fill="rgb(255,255,255)" fill-opacity="1"></path></g></g><g><g><g><g><g transform="matrix(1,0,0,1,79.586669921875,147.686669921875)"><path transform="matrix(0.0119,0,0,-0.0119,0,0)" d="M567 55C567 39 552 30 524 28L480 25L480 -3C582 0 582 0 602 0C622 0 622 0 724 -3L724 25L698 28C651 35 650 35 642 80L555 705L509 705L136 112C100 56 82 40 48 32L28 27L28 -3C120 0 120 0 140 0C159 0 161 0 247 -3L247 25L195 28C179 29 164 38 164 47C164 55 171 69 190 102L292 277L538 277L563 89L563 86C563 84 567 69 567 55ZM496 601L533 313L317 313ZM1294 227C1294 337 1210 353 1128 365C1185 385 1210 397 1241 425C1287 464 1310 511 1310 562C1310 644 1252 692 1152 692C1150 692 1140 692 1125 691L1062 690C1050 689 1014 689 1002 689C983 689 952 690 903 691L851 692L848 664L901 662C925 661 936 653 936 635C936 621 932 589 927 559L840 55C836 37 824 30 782 23L777 -3L814 -2C841 0 856 0 868 0C879 0 905 -1 931 -2L968 -3L988 -4C1007 -5 1020 -6 1028 -6C1143 -6 1294 87 1294 227ZM917 41L968 340L1053 340C1156 340 1206 298 1206 211C1206 108 1133 34 1033 34C979 34 958 38 917 41ZM1103 655C1184 655 1224 619 1224 544C1224 439 1150 376 1026 376L974 376L1023 650C1039 650 1080 655 1103 655Z" stroke="rgb(255,255,255)" stroke-opacity="1" stroke-width="8" fill="rgb(255,255,255)" fill-opacity="1"></path></g></g></g></g></g></g></g><g><g><g><g transform="matrix(1,0,0,1,181.706640625,62.106665039062506)"><path transform="matrix(0.017,0,0,-0.017,0,0)" d="M349 664L352 692L238 689C222 689 204 689 161 690L97 692L94 664L141 662C165 661 176 653 176 635L81 55C77 37 65 30 21 23L16 -3L57 -2C88 -1 150 0 170 0C170 0 467 -1 467 -1C467 -1 500 0 500 0C499 25 510 103 523 165L492 165L475 103C466 71 457 54 448 49C435 44 371 39 304 39C255 39 228 40 162 46C165 64 256 605 256 613C263 651 270 658 307 661Z" stroke="rgb(255,255,255)" stroke-opacity="1" stroke-width="8" fill="rgb(255,255,255)" fill-opacity="1"></path></g></g><g><g><g><g><g transform="matrix(1,0,0,1,191.213330078125,64.9)"><path transform="matrix(0.0119,0,0,-0.0119,0,0)" d="M45 284C45 90 152 -18 343 -18C439 -18 510 5 600 67C600 67 610 103 610 103C610 103 600 110 600 110C506 53 454 35 376 35C219 35 133 131 133 309C133 447 190 653 418 653C489 653 541 639 597 603L597 519L624 519C629 576 637 619 651 665C575 694 518 706 456 706C276 706 45 578 45 284Z" stroke="rgb(255,255,255)" stroke-opacity="1" stroke-width="8" fill="rgb(255,255,255)" fill-opacity="1"></path></g></g></g></g></g></g></g><g><g><g><g transform="matrix(1,0,0,1,281.413330078125,62.106665039062506)"><path transform="matrix(0.017,0,0,-0.017,0,0)" d="M349 664L352 692L238 689C222 689 204 689 161 690L97 692L94 664L141 662C165 661 176 653 176 635L81 55C77 37 65 30 21 23L16 -3L57 -2C88 -1 150 0 170 0C170 0 467 -1 467 -1C467 -1 500 0 500 0C499 25 510 103 523 165L492 165L475 103C466 71 457 54 448 49C435 44 371 39 304 39C255 39 228 40 162 46C165 64 256 605 256 613C263 651 270 658 307 661Z" stroke="rgb(255,255,255)" stroke-opacity="1" stroke-width="8" fill="rgb(255,255,255)" fill-opacity="1"></path></g></g><g><g><g><g><g transform="matrix(1,0,0,1,290.933349609375,64.9)"><path transform="matrix(0.0119,0,0,-0.0119,0,0)" d="M316 -3C388 -3 437 8 489 34C645 114 741 265 741 431C741 529 711 599 650 642C604 675 519 693 424 692L220 689L210 689C201 689 198 689 97 692L94 664L147 662C171 661 182 653 182 635C182 621 178 589 173 559L86 55C81 31 56 29 33 23L28 -3L121 0L176 0C211 0 282 -3 316 -3ZM384 655C566 655 649 579 649 415C649 225 549 41 329 41C285 41 236 46 168 56C168 68 169 75 172 93L268 650C291 650 349 655 384 655Z" stroke="rgb(255,255,255)" stroke-opacity="1" stroke-width="8" fill="rgb(255,255,255)" fill-opacity="1"></path></g></g></g></g></g></g></g><g><g><g><g transform="matrix(1,0,0,1,228.986669921875,147.5066650390625)"><path transform="matrix(0.017,0,0,-0.017,0,0)" d="M349 664L352 692L238 689C222 689 204 689 161 690L97 692L94 664L141 662C165 661 176 653 176 635L81 55C77 37 65 30 21 23L16 -3L57 -2C88 -1 150 0 170 0C170 0 467 -1 467 -1C467 -1 500 0 500 0C499 25 510 103 523 165L492 165L475 103C466 71 457 54 448 49C435 44 371 39 304 39C255 39 228 40 162 46C165 64 256 605 256 613C263 651 270 658 307 661Z" stroke="rgb(255,255,255)" stroke-opacity="1" stroke-width="8" fill="rgb(255,255,255)" fill-opacity="1"></path></g></g><g><g><g><g><g transform="matrix(1,0,0,1,238.506640625,150.433349609375)"><path transform="matrix(0.0119,0,0,-0.0119,0,0)" d="M45 284C45 90 152 -18 343 -18C439 -18 510 5 600 67C600 67 610 103 610 103C610 103 600 110 600 110C506 53 454 35 376 35C219 35 133 131 133 309C133 447 190 653 418 653C489 653 541 639 597 603L597 519L624 519C629 576 637 619 651 665C575 694 518 706 456 706C276 706 45 578 45 284ZM1003 -3C1075 -3 1124 8 1176 34C1332 114 1428 265 1428 431C1428 529 1398 599 1337 642C1291 675 1206 693 1111 692L907 689L897 689C888 689 885 689 784 692L781 664L834 662C858 661 869 653 869 635C869 621 865 589 860 559L773 55C768 31 743 29 720 23L715 -3L808 0L863 0C898 0 969 -3 1003 -3ZM1071 655C1253 655 1336 579 1336 415C1336 225 1236 41 1016 41C972 41 923 46 855 56C855 68 856 75 859 93L955 650C978 650 1036 655 1071 655Z" stroke="rgb(255,255,255)" stroke-opacity="1" stroke-width="8" fill="rgb(255,255,255)" fill-opacity="1"></path></g></g></g></g></g></g></g><g><g><g><g transform="matrix(1,0,0,1,342.97333984375,62.106665039062506)"><path transform="matrix(0.017,0,0,-0.017,0,0)" d="M349 664L352 692L238 689C222 689 204 689 161 690L97 692L94 664L141 662C165 661 176 653 176 635L81 55C77 37 65 30 21 23L16 -3L57 -2C88 -1 150 0 170 0C170 0 467 -1 467 -1C467 -1 500 0 500 0C499 25 510 103 523 165L492 165L475 103C466 71 457 54 448 49C435 44 371 39 304 39C255 39 228 40 162 46C165 64 256 605 256 613C263 651 270 658 307 661Z" stroke="rgb(255,255,255)" stroke-opacity="1" stroke-width="8" fill="rgb(255,255,255)" fill-opacity="1"></path></g></g><g><g><g><g><g transform="matrix(1,0,0,1,352.47998046875,64.9)"><path transform="matrix(0.0119,0,0,-0.0119,0,0)" d="M221 334L338 334L470 330L489 375L485 382C404 378 344 376 266 376L229 376L276 646C308 647 391 650 413 650C475 650 516 641 517 626L525 537L549 537C552 601 559 651 570 689C549 691 519 692 501 692C498 692 487 692 463 691L343 690C334 689 160 691 150 691L105 692L102 664L156 662C180 661 191 653 191 635C191 621 187 589 182 559L95 55C91 37 79 30 35 23L30 -3L71 -2C102 -1 164 0 184 0L409 -3C423 -3 448 -2 481 -1L514 0L518 36C520 56 525 86 534 135L539 161L512 161L496 101C486 65 477 53 455 48C435 44 362 39 308 39C267 39 240 40 171 46Z" stroke="rgb(255,255,255)" stroke-opacity="1" stroke-width="8" fill="rgb(255,255,255)" fill-opacity="1"></path></g></g></g></g></g></g></g><g><g><g><g transform="matrix(1,0,0,1,442.52001953125,62.106665039062506)"><path transform="matrix(0.017,0,0,-0.017,0,0)" d="M349 664L352 692L238 689C222 689 204 689 161 690L97 692L94 664L141 662C165 661 176 653 176 635L81 55C77 37 65 30 21 23L16 -3L57 -2C88 -1 150 0 170 0C170 0 467 -1 467 -1C467 -1 500 0 500 0C499 25 510 103 523 165L492 165L475 103C466 71 457 54 448 49C435 44 371 39 304 39C255 39 228 40 162 46C165 64 256 605 256 613C263 651 270 658 307 661Z" stroke="rgb(255,255,255)" stroke-opacity="1" stroke-width="8" fill="rgb(255,255,255)" fill-opacity="1"></path></g></g><g><g><g><g><g transform="matrix(1,0,0,1,452.02666015625,64.9)"><path transform="matrix(0.0119,0,0,-0.0119,0,0)" d="M286 646L392 650C454 650 494 641 495 626L503 537L527 537C530 600 537 651 548 689C526 691 498 692 481 692L440 691L275 689L246 689C221 689 181 690 143 691L94 692L91 664L147 662C171 661 182 652 182 635C182 621 178 589 173 559L98 125C81 33 81 32 40 28L4 25L0 -3L34 -2C74 -1 106 0 127 0C145 0 174 -1 213 -2L265 -3L268 25L204 28C177 29 168 37 168 57C168 63 169 74 170 78L206 301L323 301C350 301 381 300 429 298L455 297L474 342L470 349C389 345 329 343 251 343L214 343L260 614C263 630 264 635 269 646Z" stroke="rgb(255,255,255)" stroke-opacity="1" stroke-width="8" fill="rgb(255,255,255)" fill-opacity="1"></path></g></g></g></g></g></g></g><g><g><g><g transform="matrix(1,0,0,1,389.92001953125,147.5066650390625)"><path transform="matrix(0.017,0,0,-0.017,0,0)" d="M349 664L352 692L238 689C222 689 204 689 161 690L97 692L94 664L141 662C165 661 176 653 176 635L81 55C77 37 65 30 21 23L16 -3L57 -2C88 -1 150 0 170 0C170 0 467 -1 467 -1C467 -1 500 0 500 0C499 25 510 103 523 165L492 165L475 103C466 71 457 54 448 49C435 44 371 39 304 39C255 39 228 40 162 46C165 64 256 605 256 613C263 651 270 658 307 661Z" stroke="rgb(255,255,255)" stroke-opacity="1" stroke-width="8" fill="rgb(255,255,255)" fill-opacity="1"></path></g></g><g><g><g><g><g transform="matrix(1,0,0,1,399.42666015625,150.433349609375)"><path transform="matrix(0.0119,0,0,-0.0119,0,0)" d="M221 334L338 334L470 330L489 375L485 382C404 378 344 376 266 376L229 376L276 646C308 647 391 650 413 650C475 650 516 641 517 626L525 537L549 537C552 601 559 651 570 689C549 691 519 692 501 692C498 692 487 692 463 691L343 690C334 689 160 691 150 691L105 692L102 664L156 662C180 661 191 653 191 635C191 621 187 589 182 559L95 55C91 37 79 30 35 23L30 -3L71 -2C102 -1 164 0 184 0L409 -3C423 -3 448 -2 481 -1L514 0L518 36C520 56 525 86 534 135L539 161L512 161L496 101C486 65 477 53 455 48C435 44 362 39 308 39C267 39 240 40 171 46ZM896 646L1002 650C1064 650 1104 641 1105 626L1113 537L1137 537C1140 600 1147 651 1158 689C1136 691 1108 692 1091 692L1050 691L885 689L856 689C831 689 791 690 753 691L704 692L701 664L757 662C781 661 792 652 792 635C792 621 788 589 783 559L708 125C691 33 691 32 650 28L614 25L610 -3L644 -2C684 -1 716 0 737 0C755 0 784 -1 823 -2L875 -3L878 25L814 28C787 29 778 37 778 57C778 63 779 74 780 78L816 301L933 301C960 301 991 300 1039 298L1065 297L1084 342L1080 349C999 345 939 343 861 343L824 343L870 614C873 630 874 635 879 646Z" stroke="rgb(255,255,255)" stroke-opacity="1" stroke-width="8" fill="rgb(255,255,255)" fill-opacity="1"></path></g></g></g></g></g></g></g><g><g><g><g transform="matrix(1,0,0,1,499.3599609375,62.106665039062506)"><path transform="matrix(0.017,0,0,-0.017,0,0)" d="M349 664L352 692L238 689C222 689 204 689 161 690L97 692L94 664L141 662C165 661 176 653 176 635L81 55C77 37 65 30 21 23L16 -3L57 -2C88 -1 150 0 170 0C170 0 467 -1 467 -1C467 -1 500 0 500 0C499 25 510 103 523 165L492 165L475 103C466 71 457 54 448 49C435 44 371 39 304 39C255 39 228 40 162 46C165 64 256 605 256 613C263 651 270 658 307 661Z" stroke="rgb(255,255,255)" stroke-opacity="1" stroke-width="8" fill="rgb(255,255,255)" fill-opacity="1"></path></g></g><g><g><g><g><g transform="matrix(1,0,0,1,508.87998046875,64.9)"><path transform="matrix(0.0119,0,0,-0.0119,0,0)" d="M434 653C511 653 565 639 621 603L621 519L648 519C653 576 661 619 675 665C592 695 535 706 466 706C374 706 301 683 229 632C112 548 50 424 50 274C50 87 159 -18 355 -18C412 -21 559 6 608 37C628 193 632 216 633 219C635 228 647 238 660 240L692 246L694 274C655 270 620 269 569 269C518 269 482 270 440 274L435 246L469 244C544 240 553 236 553 212C553 197 533 84 528 60C483 36 444 27 390 27C224 27 138 120 138 297C138 443 197 653 434 653Z" stroke="rgb(255,255,255)" stroke-opacity="1" stroke-width="8" fill="rgb(255,255,255)" fill-opacity="1"></path></g></g></g></g></g></g></g><g><g><g><g transform="matrix(1,0,0,1,598.92001953125,62.106665039062506)"><path transform="matrix(0.017,0,0,-0.017,0,0)" d="M349 664L352 692L238 689C222 689 204 689 161 690L97 692L94 664L141 662C165 661 176 653 176 635L81 55C77 37 65 30 21 23L16 -3L57 -2C88 -1 150 0 170 0C170 0 467 -1 467 -1C467 -1 500 0 500 0C499 25 510 103 523 165L492 165L475 103C466 71 457 54 448 49C435 44 371 39 304 39C255 39 228 40 162 46C165 64 256 605 256 613C263 651 270 658 307 661Z" stroke="rgb(255,255,255)" stroke-opacity="1" stroke-width="8" fill="rgb(255,255,255)" fill-opacity="1"></path></g></g><g><g><g><g><g transform="matrix(1,0,0,1,608.4400390625,64.9)"><path transform="matrix(0.0119,0,0,-0.0119,0,0)" d="M221 385L263 613C270 652 277 658 314 661L356 664L359 692L335 692L245 689C229 689 211 689 168 690L104 692L101 664L148 662C172 661 183 653 183 635C183 621 179 590 174 559L100 125C83 33 82 32 42 28L1 25L-3 -3L39 -2C87 -1 110 0 129 0L226 -3L252 -3L255 25L206 28C179 30 170 37 170 58C170 67 171 74 174 93L216 340L277 341C339 342 381 343 400 343C419 343 460 342 523 341L584 340L544 125C535 76 528 48 523 42C519 34 508 30 486 28L436 25L432 -3L488 -2C532 -1 562 0 573 0C589 0 620 -1 663 -2L705 -3L708 25L650 28C624 29 614 37 614 58C614 67 615 76 618 93L710 613C717 652 723 657 761 661L797 664L800 692L784 692L693 689C678 689 657 689 613 690L550 692L547 664L595 662C619 661 630 653 630 635C630 621 626 589 621 559L591 385Z" stroke="rgb(255,255,255)" stroke-opacity="1" stroke-width="8" fill="rgb(255,255,255)" fill-opacity="1"></path></g></g></g></g></g></g></g><g><g><g><g transform="matrix(1,0,0,1,546.66669921875,147.5066650390625)"><path transform="matrix(0.017,0,0,-0.017,0,0)" d="M349 664L352 692L238 689C222 689 204 689 161 690L97 692L94 664L141 662C165 661 176 653 176 635L81 55C77 37 65 30 21 23L16 -3L57 -2C88 -1 150 0 170 0C170 0 467 -1 467 -1C467 -1 500 0 500 0C499 25 510 103 523 165L492 165L475 103C466 71 457 54 448 49C435 44 371 39 304 39C255 39 228 40 162 46C165 64 256 605 256 613C263 651 270 658 307 661Z" stroke="rgb(255,255,255)" stroke-opacity="1" stroke-width="8" fill="rgb(255,255,255)" fill-opacity="1"></path></g></g><g><g><g><g><g transform="matrix(1,0,0,1,556.18671875,150.433349609375)"><path transform="matrix(0.0119,0,0,-0.0119,0,0)" d="M434 653C511 653 565 639 621 603L621 519L648 519C653 576 661 619 675 665C592 695 535 706 466 706C374 706 301 683 229 632C112 548 50 424 50 274C50 87 159 -18 355 -18C412 -21 559 6 608 37C628 193 632 216 633 219C635 228 647 238 660 240L692 246L694 274C655 270 620 269 569 269C518 269 482 270 440 274L435 246L469 244C544 240 553 236 553 212C553 197 533 84 528 60C483 36 444 27 390 27C224 27 138 120 138 297C138 443 197 653 434 653ZM942 385L984 613C991 652 998 658 1035 661L1077 664L1080 692L1056 692L966 689C950 689 932 689 889 690L825 692L822 664L869 662C893 661 904 653 904 635C904 621 900 590 895 559L821 125C804 33 803 32 763 28L722 25L718 -3L760 -2C808 -1 831 0 850 0L947 -3L973 -3L976 25L927 28C900 30 891 37 891 58C891 67 892 74 895 93L937 340L998 341C1060 342 1102 343 1121 343C1140 343 1181 342 1244 341L1305 340L1265 125C1256 76 1249 48 1244 42C1240 34 1229 30 1207 28L1157 25L1153 -3L1209 -2C1253 -1 1283 0 1294 0C1310 0 1341 -1 1384 -2L1426 -3L1429 25L1371 28C1345 29 1335 37 1335 58C1335 67 1336 76 1339 93L1431 613C1438 652 1444 657 1482 661L1518 664L1521 692L1505 692L1414 689C1399 689 1378 689 1334 690L1271 692L1268 664L1316 662C1340 661 1351 653 1351 635C1351 621 1347 589 1342 559L1312 385Z" stroke="rgb(255,255,255)" stroke-opacity="1" stroke-width="8" fill="rgb(255,255,255)" fill-opacity="1"></path></g></g></g></g></g></g></g><g><g><g><g transform="matrix(1,0,0,1,142.97333984375,238.39999999999998)"><path transform="matrix(0.017,0,0,-0.017,0,0)" d="M349 664L352 692L238 689C222 689 204 689 161 690L97 692L94 664L141 662C165 661 176 653 176 635L81 55C77 37 65 30 21 23L16 -3L57 -2C88 -1 150 0 170 0C170 0 467 -1 467 -1C467 -1 500 0 500 0C499 25 510 103 523 165L492 165L475 103C466 71 457 54 448 49C435 44 371 39 304 39C255 39 228 40 162 46C165 64 256 605 256 613C263 651 270 658 307 661Z" stroke="rgb(255,255,255)" stroke-opacity="1" stroke-width="8" fill="rgb(255,255,255)" fill-opacity="1"></path></g></g><g><g><g><g><g transform="matrix(1,0,0,1,152.47998046875,241.339990234375)"><path transform="matrix(0.0119,0,0,-0.0119,0,0)" d="M567 55C567 39 552 30 524 28L480 25L480 -3C582 0 582 0 602 0C622 0 622 0 724 -3L724 25L698 28C651 35 650 35 642 80L555 705L509 705L136 112C100 56 82 40 48 32L28 27L28 -3C120 0 120 0 140 0C159 0 161 0 247 -3L247 25L195 28C179 29 164 38 164 47C164 55 171 69 190 102L292 277L538 277L563 89L563 86C563 84 567 69 567 55ZM496 601L533 313L317 313ZM1294 227C1294 337 1210 353 1128 365C1185 385 1210 397 1241 425C1287 464 1310 511 1310 562C1310 644 1252 692 1152 692C1150 692 1140 692 1125 691L1062 690C1050 689 1014 689 1002 689C983 689 952 690 903 691L851 692L848 664L901 662C925 661 936 653 936 635C936 621 932 589 927 559L840 55C836 37 824 30 782 23L777 -3L814 -2C841 0 856 0 868 0C879 0 905 -1 931 -2L968 -3L988 -4C1007 -5 1020 -6 1028 -6C1143 -6 1294 87 1294 227ZM917 41L968 340L1053 340C1156 340 1206 298 1206 211C1206 108 1133 34 1033 34C979 34 958 38 917 41ZM1103 655C1184 655 1224 619 1224 544C1224 439 1150 376 1026 376L974 376L1023 650C1039 650 1080 655 1103 655ZM1406 284C1406 90 1513 -18 1704 -18C1800 -18 1871 5 1961 67C1961 67 1971 103 1971 103C1971 103 1961 110 1961 110C1867 53 1815 35 1737 35C1580 35 1494 131 1494 309C1494 447 1551 653 1779 653C1850 653 1902 639 1958 603L1958 519L1985 519C1990 576 1998 619 2012 665C1936 694 1879 706 1817 706C1637 706 1406 578 1406 284ZM2364 -3C2436 -3 2485 8 2537 34C2693 114 2789 265 2789 431C2789 529 2759 599 2698 642C2652 675 2567 693 2472 692L2268 689L2258 689C2249 689 2246 689 2145 692L2142 664L2195 662C2219 661 2230 653 2230 635C2230 621 2226 589 2221 559L2134 55C2129 31 2104 29 2081 23L2076 -3L2169 0L2224 0C2259 0 2330 -3 2364 -3ZM2432 655C2614 655 2697 579 2697 415C2697 225 2597 41 2377 41C2333 41 2284 46 2216 56C2216 68 2217 75 2220 93L2316 650C2339 650 2397 655 2432 655Z" stroke="rgb(255,255,255)" stroke-opacity="1" stroke-width="8" fill="rgb(255,255,255)" fill-opacity="1"></path></g></g></g></g></g></g></g><g><g><g><g transform="matrix(1,0,0,1,463.1466796875,238.39999999999998)"><path transform="matrix(0.017,0,0,-0.017,0,0)" d="M349 664L352 692L238 689C222 689 204 689 161 690L97 692L94 664L141 662C165 661 176 653 176 635L81 55C77 37 65 30 21 23L16 -3L57 -2C88 -1 150 0 170 0C170 0 467 -1 467 -1C467 -1 500 0 500 0C499 25 510 103 523 165L492 165L475 103C466 71 457 54 448 49C435 44 371 39 304 39C255 39 228 40 162 46C165 64 256 605 256 613C263 651 270 658 307 661Z" stroke="rgb(255,255,255)" stroke-opacity="1" stroke-width="8" fill="rgb(255,255,255)" fill-opacity="1"></path></g></g><g><g><g><g><g transform="matrix(1,0,0,1,472.666650390625,241.339990234375)"><path transform="matrix(0.0119,0,0,-0.0119,0,0)" d="M221 334L338 334L470 330L489 375L485 382C404 378 344 376 266 376L229 376L276 646C308 647 391 650 413 650C475 650 516 641 517 626L525 537L549 537C552 601 559 651 570 689C549 691 519 692 501 692C498 692 487 692 463 691L343 690C334 689 160 691 150 691L105 692L102 664L156 662C180 661 191 653 191 635C191 621 187 589 182 559L95 55C91 37 79 30 35 23L30 -3L71 -2C102 -1 164 0 184 0L409 -3C423 -3 448 -2 481 -1L514 0L518 36C520 56 525 86 534 135L539 161L512 161L496 101C486 65 477 53 455 48C435 44 362 39 308 39C267 39 240 40 171 46ZM896 646L1002 650C1064 650 1104 641 1105 626L1113 537L1137 537C1140 600 1147 651 1158 689C1136 691 1108 692 1091 692L1050 691L885 689L856 689C831 689 791 690 753 691L704 692L701 664L757 662C781 661 792 652 792 635C792 621 788 589 783 559L708 125C691 33 691 32 650 28L614 25L610 -3L644 -2C684 -1 716 0 737 0C755 0 784 -1 823 -2L875 -3L878 25L814 28C787 29 778 37 778 57C778 63 779 74 780 78L816 301L933 301C960 301 991 300 1039 298L1065 297L1084 342L1080 349C999 345 939 343 861 343L824 343L870 614C873 630 874 635 879 646ZM1599 653C1676 653 1730 639 1786 603L1786 519L1813 519C1818 576 1826 619 1840 665C1757 695 1700 706 1631 706C1539 706 1466 683 1394 632C1277 548 1215 424 1215 274C1215 87 1324 -18 1520 -18C1577 -21 1724 6 1773 37C1793 193 1797 216 1798 219C1800 228 1812 238 1825 240L1857 246L1859 274C1820 270 1785 269 1734 269C1683 269 1647 270 1605 274L1600 246L1634 244C1709 240 1718 236 1718 212C1718 197 1698 84 1693 60C1648 36 1609 27 1555 27C1389 27 1303 120 1303 297C1303 443 1362 653 1599 653ZM2107 385L2149 613C2156 652 2163 658 2200 661L2242 664L2245 692L2221 692L2131 689C2115 689 2097 689 2054 690L1990 692L1987 664L2034 662C2058 661 2069 653 2069 635C2069 621 2065 590 2060 559L1986 125C1969 33 1968 32 1928 28L1887 25L1883 -3L1925 -2C1973 -1 1996 0 2015 0L2112 -3L2138 -3L2141 25L2092 28C2065 30 2056 37 2056 58C2056 67 2057 74 2060 93L2102 340L2163 341C2225 342 2267 343 2286 343C2305 343 2346 342 2409 341L2470 340L2430 125C2421 76 2414 48 2409 42C2405 34 2394 30 2372 28L2322 25L2318 -3L2374 -2C2418 -1 2448 0 2459 0C2475 0 2506 -1 2549 -2L2591 -3L2594 25L2536 28C2510 29 2500 37 2500 58C2500 67 2501 76 2504 93L2596 613C2603 652 2609 657 2647 661L2683 664L2686 692L2670 692L2579 689C2564 689 2543 689 2499 690L2436 692L2433 664L2481 662C2505 661 2516 653 2516 635C2516 621 2512 589 2507 559L2477 385Z" stroke="rgb(255,255,255)" stroke-opacity="1" stroke-width="8" fill="rgb(255,255,255)" fill-opacity="1"></path></g></g></g></g></g></g></g><g><g><g><g transform="matrix(1,0,0,1,323.07998046875,323.439990234375)"><path transform="matrix(0.017,0,0,-0.017,0,0)" d="M332 534C332 598 346 656 408 656C452 656 495 640 507 590C508 585 509 579 509 574C509 560 504 547 496 537L499 526C520 534 583 567 583 595C583 663 468 689 425 689C255 689 225 580 225 451C225 379 234 300 234 232C234 192 218 75 172 75C144 75 115 86 87 86C50 86 18 13 11 -17L18 -24C32 -10 53 6 76 6C245 6 382 -86 551 -86C653 -86 677 -20 685 67L678 77C647 30 591 0 527 0C418 0 345 33 234 60C308 145 344 240 344 358C344 420 332 464 332 534Z" stroke="rgb(255,255,255)" stroke-opacity="1" stroke-width="8" fill="rgb(255,255,255)" fill-opacity="1"></path></g></g></g></g><g><g><g><g transform="matrix(1,0,0,1,601,177.2)"><path transform="matrix(0.017,0,0,-0.017,0,0)" d="M236 722L224 733C179 711 138 697 64 691L60 670L108 670C126 670 142 667 142 647C142 641 142 632 140 622L98 388C78 272 36 80 10 2L17 -9L86 7C94 64 108 164 148 236C193 317 296 414 338 414C349 414 360 407 360 393C360 375 355 342 345 303L294 107C288 85 281 55 281 31C281 6 291 -9 312 -9C344 -9 412 41 471 85L461 103L435 86C412 71 386 56 374 56C367 56 361 65 361 76C361 88 364 101 368 116L432 372C438 398 443 423 443 447C443 464 437 482 411 482C376 482 299 437 231 374C198 343 172 308 144 273L140 275Z" stroke="rgb(224,224,224)" stroke-opacity="1" stroke-width="8" fill="rgb(224,224,224)" fill-opacity="1"></path></g></g><g><g transform="matrix(1,0,0,1,614.106640625,177.2)"><path transform="matrix(0.017,0,0,-0.017,0,0)" d="M604 347L604 406L65 406L65 347ZM604 134L604 193L65 193L65 134Z" stroke="rgb(224,224,224)" stroke-opacity="1" stroke-width="8" fill="rgb(224,224,224)" fill-opacity="1"></path></g></g><g><g transform="matrix(1,0,0,1,630.2,177.2)"><path transform="matrix(0.017,0,0,-0.017,0,0)" d="M418 -3L418 27L366 30C311 33 301 44 301 96L301 700L60 598L67 548L217 614L217 96C217 44 206 33 152 30L96 27L96 -3C250 0 250 0 261 0C292 0 402 -3 418 -3Z" stroke="rgb(224,224,224)" stroke-opacity="1" stroke-width="8" fill="rgb(224,224,224)" fill-opacity="1"></path></g></g></g></g><g><g><g><g transform="matrix(1,0,0,1,601,267.2)"><path transform="matrix(0.017,0,0,-0.017,0,0)" d="M236 722L224 733C179 711 138 697 64 691L60 670L108 670C126 670 142 667 142 647C142 641 142 632 140 622L98 388C78 272 36 80 10 2L17 -9L86 7C94 64 108 164 148 236C193 317 296 414 338 414C349 414 360 407 360 393C360 375 355 342 345 303L294 107C288 85 281 55 281 31C281 6 291 -9 312 -9C344 -9 412 41 471 85L461 103L435 86C412 71 386 56 374 56C367 56 361 65 361 76C361 88 364 101 368 116L432 372C438 398 443 423 443 447C443 464 437 482 411 482C376 482 299 437 231 374C198 343 172 308 144 273L140 275Z" stroke="rgb(224,224,224)" stroke-opacity="1" stroke-width="8" fill="rgb(224,224,224)" fill-opacity="1"></path></g></g><g><g transform="matrix(1,0,0,1,614.106640625,267.2)"><path transform="matrix(0.017,0,0,-0.017,0,0)" d="M604 347L604 406L65 406L65 347ZM604 134L604 193L65 193L65 134Z" stroke="rgb(224,224,224)" stroke-opacity="1" stroke-width="8" fill="rgb(224,224,224)" fill-opacity="1"></path></g></g><g><g transform="matrix(1,0,0,1,630.2,267.2)"><path transform="matrix(0.017,0,0,-0.017,0,0)" d="M16 23L16 -3C203 -3 203 0 239 0C275 0 275 -3 468 -3L468 82C353 77 307 81 122 77L304 270C401 373 431 428 431 503C431 618 353 689 226 689C154 689 105 669 56 619L39 483L68 483L81 529C97 587 133 612 200 612C286 612 341 558 341 473C341 398 299 324 186 204Z" stroke="rgb(224,224,224)" stroke-opacity="1" stroke-width="8" fill="rgb(224,224,224)" fill-opacity="1"></path></g></g></g></g></svg>
</svg>
