<?xml version="1.0" standalone="no"?>
<!DOCTYPE svg PUBLIC "-//W3C//DTD SVG 20010904//EN"
 "http://www.w3.org/TR/2001/REC-SVG-20010904/DTD/svg10.dtd">
<svg version="1.0" xmlns="http://www.w3.org/2000/svg"
 width="96.000000pt" height="96.000000pt" viewBox="0 0 96.000000 96.000000"
 preserveAspectRatio="xMidYMid meet">
<metadata>
Created by potrace 1.14, written by Peter Selinger 2001-2017
</metadata>
<g transform="translate(0.000000,96.000000) scale(0.100000,-0.100000)"
fill="#000000" stroke="none">
<path d="M376 798 c-13 -46 -39 -135 -56 -198 -18 -63 -35 -121 -37 -127 -4
-10 16 -13 81 -13 47 0 86 -3 86 -7 0 -5 -20 -86 -44 -181 -23 -94 -40 -172
-37 -172 3 0 49 62 101 137 52 76 121 174 153 220 l57 83 -95 0 -95 0 16 38
c9 20 24 60 34 87 10 28 32 87 49 133 l30 82 -109 0 -109 0 -25 -82z"/>
</g>
</svg>
