<svg xmlns="http://www.w3.org/2000/svg" xmlns:xlink="http://www.w3.org/1999/xlink" x="0" y="0" width="662.2222493489584" height="381.6493326822917" style="
        width:662.2222493489584px;
        height:381.6493326822917px;
        background: transparent;
        fill: none;
">
        
        
        <svg xmlns="http://www.w3.org/2000/svg" class="role-diagram-draw-area"><g class="shapes-region" style="stroke: black; fill: none;"><g class="composite-shape"><path class="real" d=" M20,206.58 L110.07,206.58 L110.07,250 L20,250 Z" style="stroke-width: 1; stroke: rgb(224, 224, 224); fill: rgb(74, 144, 226); fill-opacity: 0.61;"/></g><g class="arrow-line"><path class="connection real" stroke-dasharray="" d="  M110,229.58 L178,229.99" style="stroke: rgb(224, 224, 224); stroke-width: 1; fill: none; fill-opacity: 1;"/><g stroke="#e0e0e0" transform="matrix(-0.9999823931648033,-0.005934084629718689,0.005934084629718689,-0.9999823931648033,179.99999999999997,230)" style="stroke: rgb(224, 224, 224); stroke-width: 1;"><path d=" M10.93,-3.29 Q4.96,-0.45 0,0 Q4.96,0.45 10.93,3.29"/></g></g><g class="composite-shape"><path class="real" d=" M141.11,90 L440,90 L440,121.59 L141.11,121.59 Z" style="stroke-width: 1; stroke: rgb(224, 224, 224); fill: rgb(240, 104, 104); fill-opacity: 0.61;"/></g><g class="composite-shape"><path class="real" d=" M140.07,130.86 L276.72,130.86 L276.72,149.4 L140.07,149.4 Z" style="stroke-width: 1; stroke: rgb(224, 224, 224); fill: rgb(210, 36, 227); fill-opacity: 0.61;"/></g><g class="composite-shape"><path class="real" d=" M276.72,130.86 L413.36,130.86 L413.36,149.4 L276.72,149.4 Z" style="stroke-width: 1; stroke: rgb(224, 224, 224); fill: rgb(210, 36, 227); fill-opacity: 0.61;"/></g><g class="composite-shape"><path class="real" d=" M440.69,90 L550,90 L550,121.59 L440.69,121.59 Z" style="stroke-width: 1; stroke: rgb(224, 224, 224); fill: rgb(237, 90, 154); fill-opacity: 0.61;"/></g><g class="composite-shape"><path class="real" d=" M413.36,130.86 L550,130.86 L550,149.4 L413.36,149.4 Z" style="stroke-width: 1; stroke: rgb(224, 224, 224); fill: rgb(210, 36, 227); fill-opacity: 0.61;"/></g><g class="composite-shape"><path class="real" d=" M180,190 L239.93,207.98 L239.93,252.02 L180,270 Z" style="stroke-width: 1; stroke: rgb(224, 224, 224); fill: rgb(248, 231, 28); fill-opacity: 0.61;"/></g><g class="arrow-line"><path class="connection real" stroke-dasharray="" d="  M239.93,230 L258,230" style="stroke: rgb(224, 224, 224); stroke-width: 1; fill: none; fill-opacity: 1;"/><g stroke="#e0e0e0" transform="matrix(-1,1.2246467991473532e-16,-1.2246467991473532e-16,-1,260,230.00000000000003)" style="stroke: rgb(224, 224, 224); stroke-width: 1;"><path d=" M10.93,-3.29 Q4.96,-0.45 0,0 Q4.96,0.45 10.93,3.29"/></g></g><g class="composite-shape"><path class="real" d=" M319.93,190 L379.93,208 L379.93,252 L319.93,270 Z" style="stroke-width: 1; stroke: rgb(224, 224, 224); fill: rgb(248, 231, 28); fill-opacity: 0.61;"/></g><g class="composite-shape"><path class="real" d=" M460,190 L520,208 L520,252 L460,270 Z" style="stroke-width: 1; stroke: rgb(224, 224, 224); fill: rgb(248, 231, 28); fill-opacity: 0.61;"/></g><g class="arrow-line"><path class="connection real" stroke-dasharray="" d="  M210,150 L210,198" style="stroke: rgb(224, 224, 224); stroke-width: 1; fill: none; fill-opacity: 1;"/><g stroke="#e0e0e0" transform="matrix(-1.8369701987210297e-16,-1,1,-1.8369701987210297e-16,210,199.99999999999997)" style="stroke: rgb(224, 224, 224); stroke-width: 1;"><path d=" M10.93,-3.29 Q4.96,-0.45 0,0 Q4.96,0.45 10.93,3.29"/></g></g><g class="arrow-line"><path class="connection real" stroke-dasharray="" d="  M490,150 L490,198" style="stroke: rgb(224, 224, 224); stroke-width: 1; fill: none; fill-opacity: 1;"/><g stroke="#e0e0e0" transform="matrix(-1.8369701987210297e-16,-1,1,-1.8369701987210297e-16,490,199.99999999999994)" style="stroke: rgb(224, 224, 224); stroke-width: 1;"><path d=" M10.93,-3.29 Q4.96,-0.45 0,0 Q4.96,0.45 10.93,3.29"/></g></g><g class="arrow-line"><path class="connection real" stroke-dasharray="" d="  M350,150 L350,198" style="stroke: rgb(224, 224, 224); stroke-width: 1; fill: none; fill-opacity: 1;"/><g stroke="#e0e0e0" transform="matrix(-1.8369701987210297e-16,-1,1,-1.8369701987210297e-16,350,199.99999999999994)" style="stroke: rgb(224, 224, 224); stroke-width: 1;"><path d=" M10.93,-3.29 Q4.96,-0.45 0,0 Q4.96,0.45 10.93,3.29"/></g></g><g class="arrow-line"><path class="connection real" stroke-dasharray="" d="  M519.93,230 L578,230" style="stroke: rgb(224, 224, 224); stroke-width: 1; fill: none; fill-opacity: 1;"/><g stroke="#e0e0e0" transform="matrix(-1,1.2246467991473532e-16,-1.2246467991473532e-16,-1,580,230)" style="stroke: rgb(224, 224, 224); stroke-width: 1;"><path d=" M10.93,-3.29 Q4.96,-0.45 0,0 Q4.96,0.45 10.93,3.29"/></g></g><g class="composite-shape"><path class="real" d=" M580,218 C580,213.58 583.58,210 588,210 L642,210 C646.42,210 650,213.58 650,218 L650,242 C650,246.42 646.42,250 642,250 L588,250 C583.58,250 580,246.42 580,242 Z" style="stroke-width: 1; stroke: rgb(224, 224, 224); fill: rgb(74, 144, 226); fill-opacity: 0.61;"/></g><g class="composite-shape"><path class="real" d=" M260,220 L300,220 L300,240 L260,240 Z" style="stroke-width: 1; stroke: rgb(224, 224, 224); fill: rgb(74, 144, 226); fill-opacity: 0.61;"/></g><g class="arrow-line"><path class="connection real" stroke-dasharray="" d="  M299.93,230 L318,230" style="stroke: rgb(224, 224, 224); stroke-width: 1; fill: none; fill-opacity: 1;"/><g stroke="#e0e0e0" transform="matrix(-1,1.2246467991473532e-16,-1.2246467991473532e-16,-1,320,230.00000000000003)" style="stroke: rgb(224, 224, 224); stroke-width: 1;"><path d=" M10.93,-3.29 Q4.96,-0.45 0,0 Q4.96,0.45 10.93,3.29"/></g></g><g class="arrow-line"><path class="connection real" stroke-dasharray="" d="  M379.93,230 L398,230" style="stroke: rgb(224, 224, 224); stroke-width: 1; fill: none; fill-opacity: 1;"/><g stroke="#e0e0e0" transform="matrix(-1,1.2246467991473532e-16,-1.2246467991473532e-16,-1,400,230)" style="stroke: rgb(224, 224, 224); stroke-width: 1;"><path d=" M10.93,-3.29 Q4.96,-0.45 0,0 Q4.96,0.45 10.93,3.29"/></g></g><g class="composite-shape"><path class="real" d=" M400,220 L440,220 L440,240 L400,240 Z" style="stroke-width: 1; stroke: rgb(224, 224, 224); fill: rgb(74, 144, 226); fill-opacity: 0.61;"/></g><g class="arrow-line"><path class="connection real" stroke-dasharray="" d="  M439.93,230 L458,230" style="stroke: rgb(224, 224, 224); stroke-width: 1; fill: none; fill-opacity: 1;"/><g stroke="#e0e0e0" transform="matrix(-1,1.2246467991473532e-16,-1.2246467991473532e-16,-1,460,230)" style="stroke: rgb(224, 224, 224); stroke-width: 1;"><path d=" M10.93,-3.29 Q4.96,-0.45 0,0 Q4.96,0.45 10.93,3.29"/></g></g><g class="arrow-line"><path class="connection real" stroke-dasharray="1.125 3.35" d="  M270,330 C220.39,324.17 235.16,282.69 268.47,241.86" style="stroke: rgb(224, 224, 224); stroke-width: 1; fill: none; fill-opacity: 1;"/><g stroke="none" transform="matrix(-0.6386335222322985,0.769511029343419,-0.769511029343419,-0.6386335222322985,270,240)" style="stroke: none; stroke-width: 1; fill: rgb(224, 224, 224);" fill="#e0e0e0"><path d=" M8.93,-4.29 L0,0 L8.93,4.29 Z"/></g></g><g/></g><g/><g/><g/></svg>
        <svg xmlns="http://www.w3.org/2000/svg" xmlns:xlink="http://www.w3.org/1999/xlink" width="660.0000406901042" height="379.42708333333337" style="width:660.0000406901042px;height:379.42708333333337px;font-family:Asana-Math, Asana;background:transparent;"><g><g><g><text x="34.09722900390625" y="212.10071818033853" style="white-space:pre;stroke:none;fill:rgb(224,224,224);fill-opacity:1;font-size:13.5px;font-family:Arial, Helvetica, sans-serif;font-weight:400;font-style:normal;dominant-baseline:text-before-edge;text-decoration:none solid rgb(224, 224, 224);">initial state</text></g></g><g><g><text x="35.97222900390625" y="227.10071818033853" style="white-space:pre;stroke:none;fill:rgb(224,224,224);fill-opacity:1;font-size:13.5px;font-family:Arial, Helvetica, sans-serif;font-weight:400;font-style:normal;dominant-baseline:text-before-edge;text-decoration:none solid rgb(224, 224, 224);">(constant)</text></g></g></g><g><g><g><text x="266.12848917643225" y="96.09376017252603" style="white-space:pre;stroke:none;fill:rgb(224,224,224);fill-opacity:1;font-size:15px;font-family:Arial, Helvetica, sans-serif;font-weight:400;font-style:normal;dominant-baseline:text-before-edge;text-decoration:none solid rgb(224, 224, 224);">message</text></g></g></g><g><g><g><text x="169.86111450195312" y="132.30903116861978" style="white-space:pre;stroke:none;fill:rgb(224,224,224);fill-opacity:1;font-size:13.5px;font-family:Arial, Helvetica, sans-serif;font-weight:400;font-style:normal;dominant-baseline:text-before-edge;text-decoration:none solid rgb(224, 224, 224);">64-byte block</text></g></g></g><g><g><g><text x="306.51044718424475" y="132.08334350585938" style="white-space:pre;stroke:none;fill:rgb(224,224,224);fill-opacity:1;font-size:13.5px;font-family:Arial, Helvetica, sans-serif;font-weight:400;font-style:normal;dominant-baseline:text-before-edge;text-decoration:none solid rgb(224, 224, 224);">64-byte block</text></g></g></g><g><g><g><text x="467.08336385091144" y="97.01388549804688" style="white-space:pre;stroke:none;fill:rgb(224,224,224);fill-opacity:1;font-size:15px;font-family:Arial, Helvetica, sans-serif;font-weight:400;font-style:normal;dominant-baseline:text-before-edge;text-decoration:none solid rgb(224, 224, 224);">padding</text></g></g></g><g><g><g><text x="443.1423645019531" y="132.08334350585938" style="white-space:pre;stroke:none;fill:rgb(224,224,224);fill-opacity:1;font-size:13.5px;font-family:Arial, Helvetica, sans-serif;font-weight:400;font-style:normal;dominant-baseline:text-before-edge;text-decoration:none solid rgb(224, 224, 224);">64-byte block</text></g></g></g><g><g><g><text x="184.0972391764323" y="216.31946818033853" style="white-space:pre;stroke:none;fill:rgb(224,224,224);fill-opacity:1;font-size:8.4px;font-family:Arial, Helvetica, sans-serif;font-weight:400;font-style:normal;dominant-baseline:text-before-edge;text-decoration:none solid rgb(224, 224, 224);">compression</text></g></g><g><g><text x="193.17709350585938" y="228.31596883138022" style="white-space:pre;stroke:none;fill:rgb(224,224,224);fill-opacity:1;font-size:8.4px;font-family:Arial, Helvetica, sans-serif;font-weight:400;font-style:normal;dominant-baseline:text-before-edge;text-decoration:none solid rgb(224, 224, 224);">function</text></g></g></g><g><g><g><text x="324.02778116861975" y="216.31946818033853" style="white-space:pre;stroke:none;fill:rgb(224,224,224);fill-opacity:1;font-size:8.4px;font-family:Arial, Helvetica, sans-serif;font-weight:400;font-style:normal;dominant-baseline:text-before-edge;text-decoration:none solid rgb(224, 224, 224);">compression</text></g></g><g><g><text x="333.10765584309894" y="228.31596883138022" style="white-space:pre;stroke:none;fill:rgb(224,224,224);fill-opacity:1;font-size:8.4px;font-family:Arial, Helvetica, sans-serif;font-weight:400;font-style:normal;dominant-baseline:text-before-edge;text-decoration:none solid rgb(224, 224, 224);">function</text></g></g></g><g><g><g><text x="464.09723917643225" y="216.31946818033853" style="white-space:pre;stroke:none;fill:rgb(224,224,224);fill-opacity:1;font-size:8.4px;font-family:Arial, Helvetica, sans-serif;font-weight:400;font-style:normal;dominant-baseline:text-before-edge;text-decoration:none solid rgb(224, 224, 224);">compression</text></g></g><g><g><text x="473.17711385091144" y="228.31596883138022" style="white-space:pre;stroke:none;fill:rgb(224,224,224);fill-opacity:1;font-size:8.4px;font-family:Arial, Helvetica, sans-serif;font-weight:400;font-style:normal;dominant-baseline:text-before-edge;text-decoration:none solid rgb(224, 224, 224);">function</text></g></g></g><g><g><g><text x="263.10765584309894" y="224.21876017252603" style="white-space:pre;stroke:none;fill:rgb(224,224,224);fill-opacity:1;font-size:7.5px;font-family:Arial, Helvetica, sans-serif;font-weight:400;font-style:normal;dominant-baseline:text-before-edge;text-decoration:none solid rgb(224, 224, 224);">midstate 1</text></g></g></g><g><g><g><text x="584.0972391764324" y="222.22221883138022" style="white-space:pre;stroke:none;fill:rgb(224,224,224);fill-opacity:1;font-size:12px;font-family:Arial, Helvetica, sans-serif;font-weight:400;font-style:normal;dominant-baseline:text-before-edge;text-decoration:none solid rgb(224, 224, 224);">hash output</text></g></g></g><g><g><g><text x="403.10765584309894" y="224.21876017252603" style="white-space:pre;stroke:none;fill:rgb(224,224,224);fill-opacity:1;font-size:7.5px;font-family:Arial, Helvetica, sans-serif;font-weight:400;font-style:normal;dominant-baseline:text-before-edge;text-decoration:none solid rgb(224, 224, 224);">midstate 2</text></g></g></g><g><g><g><text x="282.10069783528644" y="322.3263854980469" style="white-space:pre;stroke:none;fill:rgb(224,224,224);fill-opacity:1;font-size:15px;font-family:&quot;Courier New&quot;, Courier, monospace;font-weight:400;font-style:normal;dominant-baseline:text-before-edge;text-decoration:none solid rgb(224, 224, 224);">We can can precompute this!</text></g></g></g><g><g><g><g transform="matrix(1,0,0,1,157.10069783528647,53.37638549804687)"><path transform="matrix(0.03105,0,0,-0.03105,0,0)" d="M56 2C56 -15 56 -22 67 -22C74 -22 75 -20 82 -9C82 -8 85 -5 118 48C149 14 213 -22 302 -22C419 -22 499 76 499 186C499 286 433 368 349 388L221 419C159 434 120 488 120 546C120 616 174 677 252 677C419 677 441 513 447 468C448 462 448 456 459 456C472 456 472 461 472 480L472 681C472 698 472 705 461 705C454 705 453 704 446 692L411 635C381 664 340 705 251 705C140 705 56 617 56 511C56 428 109 355 187 328C198 324 249 312 319 295C346 288 376 281 404 244C425 218 435 185 435 152C435 81 385 9 301 9C272 9 196 14 143 63C85 117 82 181 81 217C80 227 72 227 69 227C56 227 56 220 56 202ZM588 0C623 3 697 3 735 3C773 3 848 3 883 0L883 31L859 31C782 31 780 42 780 78L780 340L1079 340L1079 78C1079 42 1077 31 1000 31L976 31L976 0C1011 3 1085 3 1123 3C1161 3 1236 3 1271 0L1271 31L1247 31C1170 31 1168 42 1168 78L1168 605C1168 641 1170 652 1247 652L1271 652L1271 683C1236 680 1162 680 1124 680C1086 680 1011 680 976 683L976 652L1000 652C1077 652 1079 641 1079 605L1079 371L780 371L780 605C780 641 782 652 859 652L883 652L883 683C848 680 774 680 736 680C698 680 623 680 588 683L588 652L612 652C689 652 691 641 691 605L691 78C691 42 689 31 612 31L588 31ZM1337 0C1360 1 1403 3 1439 3C1470 3 1522 1 1554 0L1554 31C1504 31 1479 56 1479 82C1479 85 1480 95 1481 97L1527 228L1774 228L1827 75C1828 71 1830 65 1830 61C1830 31 1774 31 1747 31L1747 0C1783 3 1853 3 1891 3C1934 3 1980 2 2022 0L2022 31L2004 31C1944 31 1930 38 1919 71L1703 696C1698 709 1696 716 1680 716C1664 716 1661 710 1656 696L1449 98C1431 47 1391 32 1337 31ZM1538 259L1650 584L1763 259ZM2105 0L2476 0L2504 174L2479 174C2474 144 2467 100 2457 85C2450 77 2384 77 2362 77L2182 77L2288 180C2444 318 2504 372 2504 472C2504 586 2414 666 2292 666C2179 666 2105 574 2105 485C2105 429 2155 429 2158 429C2175 429 2210 441 2210 482C2210 508 2192 534 2157 534C2149 534 2147 534 2144 533C2167 598 2221 635 2279 635C2370 635 2413 554 2413 472C2413 392 2363 313 2308 251L2116 37C2105 26 2105 24 2105 0ZM2605 161C2605 75 2674 -22 2786 -22C2902 -22 3004 74 3004 201C3004 320 2922 420 2814 420C2766 420 2723 404 2687 369L2687 564C2707 558 2740 551 2772 551C2895 551 2965 642 2965 655C2965 661 2962 666 2955 666C2954 666 2952 666 2947 663C2927 654 2878 634 2811 634C2771 634 2725 641 2678 662C2670 665 2668 665 2666 665C2656 665 2656 657 2656 641L2656 345C2656 327 2656 319 2670 319C2677 319 2679 322 2683 328C2694 344 2731 398 2812 398C2864 398 2889 352 2897 334C2913 297 2915 258 2915 208C2915 173 2915 113 2891 71C2867 32 2830 6 2784 6C2711 6 2654 59 2637 118C2640 117 2643 116 2654 116C2687 116 2704 141 2704 165C2704 189 2687 214 2654 214C2640 214 2605 207 2605 161ZM3097 316C3097 49 3213 -22 3306 -22C3417 -22 3512 72 3512 204C3512 331 3423 427 3312 427C3244 427 3207 376 3187 328L3187 352C3187 605 3311 641 3362 641C3386 641 3428 635 3450 601C3435 601 3395 601 3395 556C3395 525 3419 510 3441 510C3457 510 3487 519 3487 558C3487 618 3443 666 3360 666C3232 666 3097 537 3097 316ZM3189 226C3189 304 3221 404 3311 404C3327 404 3373 404 3404 342C3422 305 3422 254 3422 205C3422 157 3422 107 3405 71C3375 11 3329 6 3306 6C3243 6 3213 66 3207 81C3189 128 3189 208 3189 226ZM3925 0C3960 1 4009 3 4042 3C4075 3 4124 1 4159 0L4159 31C4056 31 4056 78 4056 105L4056 644L4057 644L4298 22C4303 9 4308 0 4318 0C4329 0 4332 8 4336 19L4582 652L4583 652L4583 78C4583 42 4581 31 4504 31L4480 31L4480 0C4517 3 4585 3 4624 3C4663 3 4730 3 4767 0L4767 31L4743 31C4666 31 4664 42 4664 78L4664 605C4664 641 4666 652 4743 652L4767 652L4767 683L4598 683C4572 683 4572 682 4565 664L4346 101L4129 661C4120 683 4117 683 4094 683L3925 683L3925 652L3949 652C4026 652 4028 641 4028 605L4028 105C4028 78 4028 31 3925 31ZM4879 616C4879 589 4901 563 4932 563C4960 563 4985 584 4985 616C4985 648 4960 669 4932 669C4901 669 4879 642 4879 616ZM4837 0C4869 1 4923 3 4947 3C4982 3 5017 1 5051 0L5051 31C4985 31 4981 36 4981 75L4981 442L4841 431L4841 400C4906 400 4915 394 4915 345L4915 76C4915 31 4904 31 4837 31ZM5115 215C5115 88 5213 -11 5327 -11C5391 -11 5436 23 5461 55L5461 -11L5608 0L5608 31C5538 31 5530 38 5530 87L5530 694L5386 683L5386 652C5456 652 5464 645 5464 596L5464 380C5435 416 5392 442 5338 442C5220 442 5115 344 5115 215ZM5198 214C5198 251 5200 311 5229 356C5250 387 5288 420 5342 420C5377 420 5419 405 5450 360C5461 343 5461 341 5461 323L5461 118C5461 100 5461 98 5450 81C5420 33 5375 11 5332 11C5287 11 5251 37 5227 75C5201 116 5198 173 5198 214ZM5669 13C5669 -4 5669 -11 5680 -11C5685 -11 5686 -10 5705 9C5707 11 5707 13 5725 32C5769 -10 5814 -11 5835 -11C5950 -11 5996 56 5996 128C5996 181 5966 211 5954 223C5921 255 5882 263 5840 271C5784 282 5717 295 5717 353C5717 388 5743 429 5829 429C5939 429 5944 339 5946 308C5947 299 5956 299 5958 299C5971 299 5971 304 5971 323L5971 424C5971 441 5971 448 5960 448C5955 448 5953 448 5940 436C5937 432 5927 423 5923 420C5885 448 5844 448 5829 448C5707 448 5669 381 5669 325C5669 290 5685 262 5712 240C5744 214 5772 208 5844 194C5866 190 5948 174 5948 102C5948 51 5913 11 5835 11C5751 11 5715 68 5696 153C5693 166 5692 170 5682 170C5669 170 5669 163 5669 145ZM6049 400L6134 400L6134 124C6134 1 6227 -11 6263 -11C6334 -11 6362 60 6362 124L6362 181L6337 181L6337 126C6337 52 6307 14 6270 14C6203 14 6203 105 6203 122L6203 400L6346 400L6346 431L6203 431L6203 615L6178 615C6177 533 6147 426 6049 422ZM6460 95C6460 14 6557 -11 6620 -11C6686 -11 6732 29 6751 76C6755 36 6782 -6 6829 -6C6850 -6 6911 8 6911 89L6911 145L6886 145L6886 89C6886 31 6861 25 6850 25C6817 25 6813 70 6813 75L6813 275C6813 317 6813 356 6777 393C6738 432 6688 448 6640 448C6558 448 6489 401 6489 335C6489 305 6509 288 6535 288C6563 288 6581 308 6581 334C6581 346 6576 379 6530 380C6557 415 6606 426 6638 426C6687 426 6744 387 6744 298L6744 261C6693 258 6623 255 6560 225C6485 191 6460 139 6460 95ZM6537 96C6537 151 6579 234 6744 240L6744 140C6744 45 6672 11 6627 11C6578 11 6537 46 6537 96ZM6937 400L7022 400L7022 124C7022 1 7115 -11 7151 -11C7222 -11 7250 60 7250 124L7250 181L7225 181L7225 126C7225 52 7195 14 7158 14C7091 14 7091 105 7091 122L7091 400L7234 400L7234 431L7091 431L7091 615L7066 615C7065 533 7035 426 6937 422ZM7334 220C7334 86 7439 -11 7554 -11C7676 -11 7721 100 7721 119C7721 129 7713 131 7708 131C7699 131 7697 125 7695 117C7660 14 7570 14 7560 14C7510 14 7470 44 7447 81C7417 129 7417 195 7417 231L7696 231C7718 231 7721 231 7721 252C7721 351 7667 448 7542 448C7426 448 7334 345 7334 220ZM7418 252C7424 401 7508 426 7542 426C7645 426 7655 291 7655 252ZM8139 342C8139 135 8301 -22 8487 -22C8650 -22 8748 117 8748 233C8748 243 8748 250 8735 250C8724 250 8724 244 8723 234C8715 91 8608 9 8499 9C8438 9 8242 43 8242 341C8242 640 8437 674 8498 674C8607 674 8696 583 8716 437C8718 423 8718 420 8732 420C8748 420 8748 423 8748 444L8748 681C8748 698 8748 705 8737 705C8733 705 8729 705 8721 693L8671 619C8634 655 8583 705 8487 705C8300 705 8139 546 8139 342ZM8847 95C8847 14 8944 -11 9007 -11C9073 -11 9119 29 9138 76C9142 36 9169 -6 9216 -6C9237 -6 9298 8 9298 89L9298 145L9273 145L9273 89C9273 31 9248 25 9237 25C9204 25 9200 70 9200 75L9200 275C9200 317 9200 356 9164 393C9125 432 9075 448 9027 448C8945 448 8876 401 8876 335C8876 305 8896 288 8922 288C8950 288 8968 308 8968 334C8968 346 8963 379 8917 380C8944 415 8993 426 9025 426C9074 426 9131 387 9131 298L9131 261C9080 258 9010 255 8947 225C8872 191 8847 139 8847 95ZM8924 96C8924 151 8966 234 9131 240L9131 140C9131 45 9059 11 9014 11C8965 11 8924 46 8924 96ZM9339 216C9339 88 9438 -11 9554 -11C9688 -11 9720 109 9720 119C9720 129 9710 129 9707 129C9698 129 9696 125 9694 119C9665 26 9600 14 9563 14C9510 14 9422 57 9422 218C9422 381 9504 423 9557 423C9566 423 9629 422 9664 386C9623 383 9617 353 9617 340C9617 314 9635 294 9663 294C9689 294 9709 311 9709 341C9709 409 9633 448 9556 448C9431 448 9339 340 9339 216ZM9753 0C9788 1 9839 3 9866 3C9892 3 9944 1 9978 0L9978 31C9911 31 9900 31 9900 76L9900 260C9900 364 9971 420 10035 420C10098 420 10109 366 10109 309L10109 76C10109 31 10098 31 10031 31L10031 0C10066 1 10117 3 10144 3C10170 3 10222 1 10256 0L10256 31C10204 31 10179 31 10178 61L10178 252C10178 338 10178 369 10147 405C10133 422 10100 442 10042 442C9958 442 9914 382 9898 346L9897 346L9897 694L9753 683L9753 652C9823 652 9831 645 9831 596L9831 76C9831 31 9820 31 9753 31ZM10351 616C10351 589 10373 563 10404 563C10432 563 10457 584 10457 616C10457 648 10432 669 10404 669C10373 669 10351 642 10351 616ZM10309 0C10341 1 10395 3 10419 3C10454 3 10489 1 10523 0L10523 31C10457 31 10453 36 10453 75L10453 442L10313 431L10313 400C10378 400 10387 394 10387 345L10387 76C10387 31 10376 31 10309 31ZM10585 0C10620 1 10671 3 10698 3C10724 3 10776 1 10810 0L10810 31C10743 31 10732 31 10732 76L10732 260C10732 364 10803 420 10867 420C10930 420 10941 366 10941 309L10941 76C10941 31 10930 31 10863 31L10863 0C10898 1 10949 3 10976 3C11002 3 11054 1 11088 0L11088 31C11036 31 11011 31 11010 61L11010 252C11010 338 11010 369 10979 405C10965 422 10932 442 10874 442C10801 442 10754 399 10726 337L10726 442L10585 431L10585 400C10655 400 10663 393 10663 344L10663 76C10663 31 10652 31 10585 31ZM11136 -79C11136 -151 11235 -206 11357 -206C11475 -206 11579 -155 11579 -77C11579 -42 11565 9 11514 37C11461 65 11403 65 11342 65C11317 65 11274 65 11267 66C11235 70 11214 101 11214 133C11214 137 11214 160 11231 180C11270 152 11311 149 11330 149C11423 149 11492 218 11492 295C11492 332 11476 369 11451 392C11487 426 11523 431 11541 431C11543 431 11548 431 11551 430C11540 426 11535 415 11535 403C11535 386 11548 374 11564 374C11574 374 11593 381 11593 404C11593 421 11581 453 11542 453C11522 453 11478 447 11436 406C11394 439 11352 442 11330 442C11237 442 11168 373 11168 296C11168 252 11190 214 11215 193C11202 178 11184 145 11184 110C11184 79 11197 41 11228 21C11168 4 11136 -39 11136 -79ZM11188 -79C11188 -33 11226 4 11270 7L11329 7C11415 7 11527 7 11527 -79C11527 -133 11456 -183 11358 -183C11257 -183 11188 -132 11188 -79ZM11243 295C11243 322 11244 354 11259 379C11267 391 11290 419 11330 419C11417 419 11417 319 11417 296C11417 269 11416 237 11401 212C11393 200 11370 172 11330 172C11243 172 11243 272 11243 295Z" stroke="rgb(224,224,224)" stroke-opacity="1" stroke-width="8" fill="rgb(224,224,224)" fill-opacity="1"></path></g></g></g></g></svg>
</svg>
