<svg xmlns="http://www.w3.org/2000/svg" xmlns:xlink="http://www.w3.org/1999/xlink" x="0" y="0" width="662" height="705.5" style="
        width:662px;
        height:705.5px;
        background: transparent;
        fill: none;
">
        
        
        <svg xmlns="http://www.w3.org/2000/svg" class="role-diagram-draw-area"><g class="shapes-region" style="stroke: black; fill: none;"><g class="composite-shape"><path class="real" d=" M240,312.5 L222.5,330 L77.5,330 L60,312.5 L60,280 L60,280 L240,280 L240,280 Z" style="stroke-width: 1; stroke: rgb(224, 224, 224); fill: none; fill-opacity: 1;"/></g><g class="composite-shape"><path class="real" d=" M240,392.5 L222.5,410 L77.5,410 L60,392.5 L60,360 L60,360 L240,360 L240,360 Z" style="stroke-width: 1; stroke: rgb(224, 224, 224); fill: none; fill-opacity: 1;"/></g><g class="composite-shape"><path class="real" d=" M240,472.5 L222.5,490 L77.5,490 L60,472.5 L60,440 L60,440 L240,440 L240,440 Z" style="stroke-width: 1; stroke: rgb(224, 224, 224); fill: none; fill-opacity: 1;"/></g><g class="composite-shape"><path class="real" d=" M590,392.5 L572.5,410 L427.5,410 L410,392.5 L410,360 L410,360 L590,360 L590,360 Z" style="stroke-width: 1; stroke: rgb(224, 224, 224); fill: none; fill-opacity: 1;"/></g><g class="composite-shape"><path class="real" d=" M590,472.5 L572.5,490 L427.5,490 L410,472.5 L410,440 L410,440 L590,440 L590,440 Z" style="stroke-width: 1; stroke: rgb(224, 224, 224); fill: none; fill-opacity: 1;"/></g><g class="arrow-line"><path class="connection real" stroke-dasharray="" d="  M150,330 L150,358" style="stroke: rgb(224, 224, 224); stroke-width: 1; fill: none; fill-opacity: 1;"/><g stroke="#e0e0e0" transform="matrix(-1.8369701987210297e-16,-1,1,-1.8369701987210297e-16,150,360)" style="stroke: rgb(224, 224, 224); stroke-width: 1;"><path d=" M10.93,-3.29 Q4.96,-0.45 0,0 Q4.96,0.45 10.93,3.29"/></g></g><g class="arrow-line"><path class="connection real" stroke-dasharray="" d="  M150,410 L150,438" style="stroke: rgb(224, 224, 224); stroke-width: 1; fill: none; fill-opacity: 1;"/><g stroke="#e0e0e0" transform="matrix(-1.8369701987210297e-16,-1,1,-1.8369701987210297e-16,150,440)" style="stroke: rgb(224, 224, 224); stroke-width: 1;"><path d=" M10.93,-3.29 Q4.96,-0.45 0,0 Q4.96,0.45 10.93,3.29"/></g></g><g class="arrow-line"><path class="connection real" stroke-dasharray="" d="  M500,410 L500,438" style="stroke: rgb(224, 224, 224); stroke-width: 1; fill: none; fill-opacity: 1;"/><g stroke="#e0e0e0" transform="matrix(-1.8369701987210297e-16,-1,1,-1.8369701987210297e-16,500,439.99999999999994)" style="stroke: rgb(224, 224, 224); stroke-width: 1;"><path d=" M10.93,-3.29 Q4.96,-0.45 0,0 Q4.96,0.45 10.93,3.29"/></g></g><g class="composite-shape"><path class="real" d=" M240,552.5 L222.5,570 L77.5,570 L60,552.5 L60,520 L60,520 L240,520 L240,520 Z" style="stroke-width: 1; stroke: rgb(224, 224, 224); fill: none; fill-opacity: 1;"/></g><g class="arrow-line"><path class="connection real" stroke-dasharray="" d="  M150,490 L150,518" style="stroke: rgb(224, 224, 224); stroke-width: 1; fill: none; fill-opacity: 1;"/><g stroke="#e0e0e0" transform="matrix(-1.8369701987210297e-16,-1,1,-1.8369701987210297e-16,150,520)" style="stroke: rgb(224, 224, 224); stroke-width: 1;"><path d=" M10.93,-3.29 Q4.96,-0.45 0,0 Q4.96,0.45 10.93,3.29"/></g></g><g class="arrow-line"><path class="connection real" stroke-dasharray="" d="  M242.87,540.05 C307.69,540.97 501.23,523.49 500,490" style="stroke: rgb(224, 224, 224); stroke-width: 1; fill: none; fill-opacity: 1;"/><g stroke="#e0e0e0" transform="matrix(0.9997057387743591,0.024257696956077886,-0.024257696956077886,0.9997057387743591,240,540)" style="stroke: rgb(224, 224, 224); stroke-width: 1;"><path d=" M10.93,-3.29 Q4.96,-0.45 0,0 Q4.96,0.45 10.93,3.29"/></g></g><g class="composite-shape"><path class="real" d=" M20,240 L280,240 L280,620 L20,620 Z" style="stroke-width: 1; stroke: rgb(240, 184, 120); fill: none; fill-opacity: 1; stroke-dasharray: 1.125, 3.35; stroke-opacity: 1;"/></g><g class="composite-shape"><path class="real" d=" M360,300 L640,300 L640,530 L360,530 Z" style="stroke-width: 1; stroke: rgb(240, 184, 120); fill: none; fill-opacity: 1; stroke-dasharray: 1.125, 3.35; stroke-opacity: 1;"/></g><g class="composite-shape"><path class="real" d=" M260,658 C260,653.58 263.58,650 268,650 L400,650 C400,650 400,650 400,650 L400,682 C400,686.42 396.42,690 392,690 L260,690 C260,690 260,690 260,690 Z" style="stroke-width: 1; stroke: rgb(224, 224, 224); fill: rgb(53, 165, 93); fill-opacity: 0.52;"/></g><g class="arrow-line"><path class="connection real" stroke-dasharray="" d="  M150,570 C149.75,655.57 329.93,555.51 330.01,648.58" style="stroke: rgb(224, 224, 224); stroke-width: 1; fill: none; fill-opacity: 1;"/><g stroke="#e0e0e0" transform="matrix(0.018324931396103247,-0.9998320843468308,0.9998320843468308,0.018324931396103247,330,650)" style="stroke: rgb(224, 224, 224); stroke-width: 1;"><path d=" M10.93,-3.29 Q4.96,-0.45 0,0 Q4.96,0.45 10.93,3.29"/></g></g><g class="arrow-line"><path class="connection real" stroke-dasharray="" d="  M150,490 C148.03,506.67 53.75,496 40,520 C26.25,544 33.75,581.54 50,610 C66,638.04 216.86,675.83 258.19,670.28" style="stroke: rgb(224, 224, 224); stroke-width: 1; fill: none; fill-opacity: 1;"/><g stroke="#e0e0e0" transform="matrix(-0.9839785236813415,0.1782870296288755,-0.1782870296288755,-0.9839785236813415,260,670)" style="stroke: rgb(224, 224, 224); stroke-width: 1;"><path d=" M10.93,-3.29 Q4.96,-0.45 0,0 Q4.96,0.45 10.93,3.29"/></g></g><g class="arrow-line"><path class="connection real" stroke-dasharray="" d="  M500,490 C499.75,536.77 328.48,564.72 329.96,648.73" style="stroke: rgb(224, 224, 224); stroke-width: 1; fill: none; fill-opacity: 1;"/><g stroke="#e0e0e0" transform="matrix(-0.03821340422388073,-0.9992696011275547,0.9992696011275547,-0.03821340422388073,330,650)" style="stroke: rgb(224, 224, 224); stroke-width: 1;"><path d=" M10.93,-3.29 Q4.96,-0.45 0,0 Q4.96,0.45 10.93,3.29"/></g></g><g class="composite-shape"><path class="real" d=" M270,58 C270,53.58 273.58,50 278,50 L362,50 C366.42,50 370,53.58 370,58 L370,82 C370,86.42 366.42,90 362,90 L278,90 C273.58,90 270,86.42 270,82 Z" style="stroke-width: 1; stroke: rgb(224, 224, 224); fill: none; fill-opacity: 1;"/></g><g class="composite-shape"><path class="real" d=" M90,188 C90,183.58 93.58,180 98,180 L202,180 C206.42,180 210,183.58 210,188 L210,212 C210,216.42 206.42,220 202,220 L98,220 C93.58,220 90,216.42 90,212 Z" style="stroke-width: 1; stroke: rgb(224, 224, 224); fill: none; fill-opacity: 1;"/></g><g class="arrow-line"><path class="connection real" stroke-dasharray="" d="  M320,90 L320,110" style="stroke: rgb(224, 224, 224); stroke-width: 1; fill: none; fill-opacity: 1;"/></g><g class="arrow-line"><path class="connection real" stroke-dasharray="" d="  M320,110 C320.75,147.81 149.97,80.18 149.99,178.51" style="stroke: rgb(224, 224, 224); stroke-width: 1; fill: none; fill-opacity: 1;"/><g stroke="#e0e0e0" transform="matrix(-0.017452406437283498,-0.9998476951563913,0.9998476951563913,-0.017452406437283498,150,180.00000000000003)" style="stroke: rgb(224, 224, 224); stroke-width: 1;"><path d=" M10.93,-3.29 Q4.96,-0.45 0,0 Q4.96,0.45 10.93,3.29"/></g></g><g class="composite-shape"><path class="real" d=" M440,218 C440,213.58 443.58,210 448,210 L552,210 C556.42,210 560,213.58 560,218 L560,242 C560,246.42 556.42,250 552,250 L448,250 C443.58,250 440,246.42 440,242 Z" style="stroke-width: 1; stroke: rgb(224, 224, 224); fill: none; fill-opacity: 1;"/></g><g class="arrow-line"><path class="connection real" stroke-dasharray="" d="  M320,110 C320.75,147.81 496.48,109.88 499.96,208.5" style="stroke: rgb(224, 224, 224); stroke-width: 1; fill: none; fill-opacity: 1;"/><g stroke="#e0e0e0" transform="matrix(-0.017452406437283498,-0.9998476951563913,0.9998476951563913,-0.017452406437283498,500,210)" style="stroke: rgb(224, 224, 224); stroke-width: 1;"><path d=" M10.93,-3.29 Q4.96,-0.45 0,0 Q4.96,0.45 10.93,3.29"/></g></g><g class="arrow-line"><path class="connection real" stroke-dasharray="" d="  M150,220 L150,278" style="stroke: rgb(224, 224, 224); stroke-width: 1; fill: none; fill-opacity: 1;"/><g stroke="#e0e0e0" transform="matrix(-1.8369701987210297e-16,-1,1,-1.8369701987210297e-16,150,280)" style="stroke: rgb(224, 224, 224); stroke-width: 1;"><path d=" M10.93,-3.29 Q4.96,-0.45 0,0 Q4.96,0.45 10.93,3.29"/></g></g><g class="arrow-line"><path class="connection real" stroke-dasharray="" d="  M500,250 L500,358" style="stroke: rgb(224, 224, 224); stroke-width: 1; fill: none; fill-opacity: 1;"/><g stroke="#e0e0e0" transform="matrix(-1.8369701987210297e-16,-1,1,-1.8369701987210297e-16,500,359.99999999999994)" style="stroke: rgb(224, 224, 224); stroke-width: 1;"><path d=" M10.93,-3.29 Q4.96,-0.45 0,0 Q4.96,0.45 10.93,3.29"/></g></g><g class="composite-shape"><path class="real" d=" M30,316 C30,290.59 50.59,270 76,270 L584,270 C609.41,270 630,290.59 630,316 L630,454 C630,479.41 609.41,500 584,500 L76,500 C50.59,500 30,479.41 30,454 Z" style="stroke-width: 1; stroke: rgb(129, 104, 197); fill: none; fill-opacity: 1; stroke-dasharray: 6, 6; stroke-opacity: 1;"/></g><g class="composite-shape"><path class="real" d=" M30,524 C30,513.51 38.51,505 49,505 L251,505 C261.49,505 270,513.51 270,524 L270,581 C270,591.49 261.49,600 251,600 L49,600 C38.51,600 30,591.49 30,581 Z" style="stroke-width: 1; stroke: rgb(129, 104, 197); fill: none; fill-opacity: 1; stroke-dasharray: 6, 6; stroke-opacity: 1;"/></g><g/></g><g/><g/><g/></svg>
        <svg xmlns="http://www.w3.org/2000/svg" xmlns:xlink="http://www.w3.org/1999/xlink" width="660" height="703.5" style="width:660px;height:703.5px;font-family:Asana-Math, Asana;background:transparent;"><g><g><g><text x="78" y="296" style="white-space:pre;stroke:none;fill:rgb(224,224,224);fill-opacity:1;font-size:13.5px;font-family:Arial, Helvetica, sans-serif;font-weight:400;font-style:normal;dominant-baseline:text-before-edge;text-decoration:none;">WOTS Tips Precompute</text></g></g></g><g><g><g><text x="70" y="376" style="white-space:pre;stroke:none;fill:rgb(224,224,224);fill-opacity:1;font-size:13.5px;font-family:Arial, Helvetica, sans-serif;font-weight:400;font-style:normal;dominant-baseline:text-before-edge;text-decoration:none;">XMSS Leaves Precompute</text></g></g></g><g><g><g><text x="92" y="457" style="white-space:pre;stroke:none;fill:rgb(224,224,224);fill-opacity:1;font-size:13.5px;font-family:Arial, Helvetica, sans-serif;font-weight:400;font-style:normal;dominant-baseline:text-before-edge;text-decoration:none;">XMSS Merkle Sign</text></g></g></g><g><g><g><text x="445" y="376" style="white-space:pre;stroke:none;fill:rgb(224,224,224);fill-opacity:1;font-size:13.5px;font-family:Arial, Helvetica, sans-serif;font-weight:400;font-style:normal;dominant-baseline:text-before-edge;text-decoration:none;">FORS Leaves Gen</text></g></g></g><g><g><g><text x="442" y="458" style="white-space:pre;stroke:none;fill:rgb(224,224,224);fill-opacity:1;font-size:13.5px;font-family:Arial, Helvetica, sans-serif;font-weight:400;font-style:normal;dominant-baseline:text-before-edge;text-decoration:none;">FORS Merkle Sign</text></g></g></g><g><g><g><text x="114" y="537" style="white-space:pre;stroke:none;fill:rgb(224,224,224);fill-opacity:1;font-size:13.5px;font-family:Arial, Helvetica, sans-serif;font-weight:400;font-style:normal;dominant-baseline:text-before-edge;text-decoration:none;">WOTS Sign</text></g></g></g><g><g><g><text x="92" y="12" style="white-space:pre;stroke:none;fill:rgb(224,224,224);fill-opacity:1;font-size:21.6px;font-family:Arial, Helvetica, sans-serif;font-weight:400;font-style:normal;dominant-baseline:text-before-edge;text-decoration:none;">SLH-DSA Signing with Vulkan Compute Shaders</text></g></g></g><g><g><g><text x="26" y="249" style="white-space:pre;stroke:none;fill:rgb(240,184,120);fill-opacity:1;font-size:15px;font-family:Arial, Helvetica, sans-serif;font-weight:400;font-style:normal;dominant-baseline:text-before-edge;text-decoration:none;">Primary device</text></g></g></g><g><g><g><text x="369" y="311" style="white-space:pre;stroke:none;fill:rgb(240,184,120);fill-opacity:1;font-size:15px;font-family:Arial, Helvetica, sans-serif;font-weight:400;font-style:normal;dominant-baseline:text-before-edge;text-decoration:none;">Secondary device</text></g></g></g><g><g><g><text x="269" y="661" style="white-space:pre;stroke:none;fill:rgb(224,224,224);fill-opacity:1;font-size:13.5px;font-family:Arial, Helvetica, sans-serif;font-weight:400;font-style:normal;dominant-baseline:text-before-edge;text-decoration:none;">SLH-DSA Signature</text></g></g></g><g><g><g><text x="292" y="62" style="white-space:pre;stroke:none;fill:rgb(224,224,224);fill-opacity:1;font-size:13.5px;font-family:Arial, Helvetica, sans-serif;font-weight:400;font-style:normal;dominant-baseline:text-before-edge;text-decoration:none;">Message</text></g></g></g><g><g><g><text x="103" y="193" style="white-space:pre;stroke:none;fill:rgb(224,224,224);fill-opacity:1;font-size:13.5px;font-family:Arial, Helvetica, sans-serif;font-weight:400;font-style:normal;dominant-baseline:text-before-edge;text-decoration:none;">Hypertree Path</text></g></g></g><g><g><g><text x="453" y="223" style="white-space:pre;stroke:none;fill:rgb(224,224,224);fill-opacity:1;font-size:13.5px;font-family:Arial, Helvetica, sans-serif;font-weight:400;font-style:normal;dominant-baseline:text-before-edge;text-decoration:none;">FORS Indexes</text></g></g></g><g><g><g><text x="292" y="271" style="white-space:pre;stroke:none;fill:rgb(129,104,197);fill-opacity:1;font-size:12px;font-family:Arial, Helvetica, sans-serif;font-weight:400;font-style:normal;dominant-baseline:text-before-edge;text-decoration:none;">Stage 1 (Parallel)</text></g></g></g><g><g><g><text x="212" y="572" style="white-space:pre;stroke:none;fill:rgb(129,104,197);fill-opacity:1;font-size:15px;font-family:Arial, Helvetica, sans-serif;font-weight:400;font-style:normal;dominant-baseline:text-before-edge;text-decoration:none;">Stage 2</text></g></g></g></svg>
</svg>
