<svg xmlns="http://www.w3.org/2000/svg" xmlns:xlink="http://www.w3.org/1999/xlink" x="0" y="0" width="662" height="397.109375" style="
        width:662px;
        height:397.109375px;
        background: transparent;
        fill: none;
">
        
        
        <svg xmlns="http://www.w3.org/2000/svg" class="role-diagram-draw-area"><g class="shapes-region" style="stroke: black; fill: none;"><g class="composite-shape"><path class="real" d=" M233.41,26.11 C233.41,20.56 237.91,16.05 243.46,16.05 L355.09,16.05 C360.64,16.05 365.14,20.56 365.14,26.11 L365.14,56.26 C365.14,61.82 360.64,66.32 355.09,66.32 L243.46,66.32 C237.91,66.32 233.41,61.82 233.41,56.26 Z" style="stroke-width: 1; stroke: rgb(224, 224, 224); fill: none; fill-opacity: 1;"/></g><g class="composite-shape"><path class="real" d=" M130.2,96.05 C130.2,92.26 133.28,89.19 137.07,89.19 L233.12,89.19 C236.91,89.19 239.98,92.26 239.98,96.05 L239.98,116.64 C239.98,120.43 236.91,123.5 233.12,123.5 L137.07,123.5 C133.28,123.5 130.2,120.43 130.2,116.64 Z" style="stroke-width: 1; stroke: rgb(224, 224, 224); fill: none; fill-opacity: 1;"/></g><g class="composite-shape"><path class="real" d=" M365.14,96.05 C365.14,92.26 368.21,89.19 372,89.19 L468.05,89.19 C471.84,89.19 474.91,92.26 474.91,96.05 L474.91,116.64 C474.91,120.43 471.84,123.5 468.05,123.5 L372,123.5 C368.21,123.5 365.14,120.43 365.14,116.64 Z" style="stroke-width: 1; stroke: rgb(224, 224, 224); fill: none; fill-opacity: 1;"/></g><g class="arrow-line"><path class="connection real" stroke-dasharray="" d="  M239.98,100.63 C270.57,102.06 298.6,97.7 299.26,68.16" style="stroke: rgb(224, 224, 224); stroke-width: 1; fill: none; fill-opacity: 1;"/><g stroke="#e0e0e0" transform="matrix(0.015358293574953158,0.9998820544536569,-0.9998820544536569,0.015358293574953158,299.26882607655,66.3170907130073)" style="stroke: rgb(224, 224, 224); stroke-width: 1;"><path d=" M10.93,-3.29 Q4.96,-0.45 0,0 Q4.96,0.45 10.93,3.29"/></g></g><g class="arrow-line"><path class="connection real" stroke-dasharray="" d="  M365.14,100.63 C338.07,101.32 301.26,97.67 299.35,68.16" style="stroke: rgb(224, 224, 224); stroke-width: 1; fill: none; fill-opacity: 1;"/><g stroke="#e0e0e0" transform="matrix(0.015358293574953158,0.9998820544536569,-0.9998820544536569,0.015358293574953158,299.2747691841787,66.3170907130073)" style="stroke: rgb(224, 224, 224); stroke-width: 1;"><path d=" M10.93,-3.29 Q4.96,-0.45 0,0 Q4.96,0.45 10.93,3.29"/></g></g><g class="arrow-line"><path class="connection real" stroke-dasharray="" d="  M147.77,157.82 C175.58,156.19 180.97,154.76 180.72,125.34" style="stroke: rgb(224, 224, 224); stroke-width: 1; fill: none; fill-opacity: 1;"/><g stroke="#e0e0e0" transform="matrix(0.015358293574953158,0.9998820544536569,-0.9998820544536569,0.015358293574953158,180.70092161204718,123.50457441316911)" style="stroke: rgb(224, 224, 224); stroke-width: 1;"><path d=" M10.93,-3.29 Q4.96,-0.45 0,0 Q4.96,0.45 10.93,3.29"/></g></g><g class="arrow-line"><path class="connection real" stroke-dasharray="" d="  M209.24,156.14 C189.92,156.23 181.52,154.54 180.74,125.1" style="stroke: rgb(224, 224, 224); stroke-width: 1; fill: none; fill-opacity: 1;"/><g stroke="#e0e0e0" transform="matrix(0.015358293574953158,0.9998820544536569,-0.9998820544536569,0.015358293574953158,180.7009216120472,123.2674017148631)" style="stroke: rgb(224, 224, 224); stroke-width: 1;"><path d=" M10.93,-3.29 Q4.96,-0.45 0,0 Q4.96,0.45 10.93,3.29"/></g></g><g class="arrow-line"><path class="connection real" stroke-dasharray="" d="  M391.49,158.05 C419.3,156.43 424.69,155 424.44,125.58" style="stroke: rgb(224, 224, 224); stroke-width: 1; fill: none; fill-opacity: 1;"/><g stroke="#e0e0e0" transform="matrix(0.015358293574953158,0.9998820544536569,-0.9998820544536569,0.015358293574953158,424.4183161071996,123.74174711147515)" style="stroke: rgb(224, 224, 224); stroke-width: 1;"><path d=" M10.93,-3.29 Q4.96,-0.45 0,0 Q4.96,0.45 10.93,3.29"/></g></g><g class="arrow-line"><path class="connection real" stroke-dasharray="" d="  M452.96,156.38 C433.63,156.46 425.24,154.77 424.46,125.34" style="stroke: rgb(224, 224, 224); stroke-width: 1; fill: none; fill-opacity: 1;"/><g stroke="#e0e0e0" transform="matrix(0.015358293574953158,0.9998820544536569,-0.9998820544536569,0.015358293574953158,424.4183161071996,123.50457441316911)" style="stroke: rgb(224, 224, 224); stroke-width: 1;"><path d=" M10.93,-3.29 Q4.96,-0.45 0,0 Q4.96,0.45 10.93,3.29"/></g></g><g class="composite-shape"><path class="real" d=" M76.65,144.76 C76.65,139.8 80.68,135.77 85.65,135.77 L137.91,135.77 C142.88,135.77 146.91,139.8 146.91,144.76 L146.91,171.76 C146.91,176.73 142.88,180.75 137.91,180.75 L85.65,180.75 C80.68,180.75 76.65,176.73 76.65,171.76 Z" style="stroke-width: 1; stroke: rgb(224, 224, 224); fill: none; fill-opacity: 1;"/></g><g class="composite-shape"><path class="real" d=" M209.26,143.76 C209.26,138.8 213.29,134.77 218.26,134.77 L270.52,134.77 C275.49,134.77 279.52,138.8 279.52,143.76 L279.52,170.76 C279.52,175.73 275.49,179.75 270.52,179.75 L218.26,179.75 C213.29,179.75 209.26,175.73 209.26,170.76 Z" style="stroke-width: 1; stroke: rgb(224, 224, 224); fill: none; fill-opacity: 1;"/></g><g class="composite-shape"><path class="real" d=" M321.23,144 C321.23,139.03 325.26,135 330.23,135 L382.49,135 C387.46,135 391.49,139.03 391.49,144 L391.49,170.99 C391.49,175.96 387.46,179.99 382.49,179.99 L330.23,179.99 C325.26,179.99 321.23,175.96 321.23,170.99 Z" style="stroke-width: 1; stroke: rgb(224, 224, 224); fill: none; fill-opacity: 1;"/></g><g class="composite-shape"><path class="real" d=" M452.96,144.76 C452.96,139.8 456.99,135.77 461.96,135.77 L514.22,135.77 C519.19,135.77 523.22,139.8 523.22,144.76 L523.22,171.76 C523.22,176.73 519.19,180.75 514.22,180.75 L461.96,180.75 C456.99,180.75 452.96,176.73 452.96,171.76 Z" style="stroke-width: 1; stroke: rgb(224, 224, 224); fill: none; fill-opacity: 1;"/></g><g class="composite-shape"><path class="real" d=" M76.65,205.92 C76.65,204.65 77.68,203.63 78.94,203.63 L87.54,203.63 C88.8,203.63 89.82,204.65 89.82,205.92 L89.82,212.78 C89.82,214.04 88.8,215.07 87.54,215.07 L78.94,215.07 C77.68,215.07 76.65,214.04 76.65,212.78 Z" style="stroke-width: 1; stroke: rgb(224, 224, 224); fill: none; fill-opacity: 1;"/></g><g class="composite-shape"><path class="real" d=" M76.65,228.79 C76.65,227.53 77.68,226.5 78.94,226.5 L87.54,226.5 C88.8,226.5 89.82,227.53 89.82,228.79 L89.82,235.65 C89.82,236.92 88.8,237.94 87.54,237.94 L78.94,237.94 C77.68,237.94 76.65,236.92 76.65,235.65 Z" style="stroke-width: 1; stroke: rgb(224, 224, 224); fill: none; fill-opacity: 1;"/></g><g class="composite-shape"><path class="real" d=" M76.65,251.67 C76.65,250.4 77.68,249.38 78.94,249.38 L87.54,249.38 C88.8,249.38 89.82,250.4 89.82,251.67 L89.82,258.53 C89.82,259.79 88.8,260.82 87.54,260.82 L78.94,260.82 C77.68,260.82 76.65,259.79 76.65,258.53 Z" style="stroke-width: 1; stroke: rgb(224, 224, 224); fill: none; fill-opacity: 1;"/></g><g class="composite-shape"><path class="real" d=" M76.65,274.54 C76.65,273.28 77.68,272.25 78.94,272.25 L87.54,272.25 C88.8,272.25 89.82,273.28 89.82,274.54 L89.82,281.4 C89.82,282.67 88.8,283.69 87.54,283.69 L78.94,283.69 C77.68,283.69 76.65,282.67 76.65,281.4 Z" style="stroke-width: 1; stroke: rgb(224, 224, 224); fill: none; fill-opacity: 1;"/></g><g class="arrow-line"><path class="connection real" stroke-dasharray="" d="  M83.24,272.25 L83.24,262.82" style="stroke: rgb(224, 224, 224); stroke-width: 1; fill: none; fill-opacity: 1;"/><g stroke="#e0e0e0" transform="matrix(3.061616997868383e-16,1,-1,3.061616997868383e-16,83.23748818022682,260.81701247378396)" style="stroke: rgb(224, 224, 224); stroke-width: 1;"><path d=" M6.56,-1.97 Q2.98,-0.27 0,0 Q2.98,0.27 6.56,1.97"/></g></g><g class="arrow-line"><path class="connection real" stroke-dasharray="" d="  M83.24,249.38 L83.24,239.94" style="stroke: rgb(224, 224, 224); stroke-width: 1; fill: none; fill-opacity: 1;"/><g stroke="#e0e0e0" transform="matrix(3.061616997868383e-16,1,-1,3.061616997868383e-16,83.23748818022685,237.94201899371922)" style="stroke: rgb(224, 224, 224); stroke-width: 1;"><path d=" M6.56,-1.97 Q2.98,-0.27 0,0 Q2.98,0.27 6.56,1.97"/></g></g><g class="arrow-line"><path class="connection real" stroke-dasharray="" d="  M83.24,226.5 L83.24,217.07" style="stroke: rgb(224, 224, 224); stroke-width: 1; fill: none; fill-opacity: 1;"/><g stroke="#e0e0e0" transform="matrix(3.061616997868383e-16,1,-1,3.061616997868383e-16,83.23748818022679,215.06702551365453)" style="stroke: rgb(224, 224, 224); stroke-width: 1;"><path d=" M6.56,-1.97 Q2.98,-0.27 0,0 Q2.98,0.27 6.56,1.97"/></g></g><g class="arrow-line"><path class="connection real" stroke-dasharray="" d="  M83.24,192.19 L83.24,203.63" style="stroke: rgb(224, 224, 224); stroke-width: 1; fill: none; fill-opacity: 1;"/></g><g class="composite-shape"><path class="real" d=" M103,205.92 C103,204.65 104.02,203.63 105.28,203.63 L113.88,203.63 C115.15,203.63 116.17,204.65 116.17,205.92 L116.17,212.78 C116.17,214.04 115.15,215.07 113.88,215.07 L105.28,215.07 C104.02,215.07 103,214.04 103,212.78 Z" style="stroke-width: 1; stroke: rgb(224, 224, 224); fill: none; fill-opacity: 1;"/></g><g class="composite-shape"><path class="real" d=" M103,228.79 C103,227.53 104.02,226.5 105.28,226.5 L113.88,226.5 C115.15,226.5 116.17,227.53 116.17,228.79 L116.17,235.65 C116.17,236.92 115.15,237.94 113.88,237.94 L105.28,237.94 C104.02,237.94 103,236.92 103,235.65 Z" style="stroke-width: 1; stroke: rgb(224, 224, 224); fill: none; fill-opacity: 1;"/></g><g class="composite-shape"><path class="real" d=" M103,251.67 C103,250.4 104.02,249.38 105.28,249.38 L113.88,249.38 C115.15,249.38 116.17,250.4 116.17,251.67 L116.17,258.53 C116.17,259.79 115.15,260.82 113.88,260.82 L105.28,260.82 C104.02,260.82 103,259.79 103,258.53 Z" style="stroke-width: 1; stroke: rgb(224, 224, 224); fill: none; fill-opacity: 1;"/></g><g class="composite-shape"><path class="real" d=" M103,274.54 C103,273.28 104.02,272.25 105.28,272.25 L113.88,272.25 C115.15,272.25 116.17,273.28 116.17,274.54 L116.17,281.4 C116.17,282.67 115.15,283.69 113.88,283.69 L105.28,283.69 C104.02,283.69 103,282.67 103,281.4 Z" style="stroke-width: 1; stroke: rgb(224, 224, 224); fill: none; fill-opacity: 1;"/></g><g class="arrow-line"><path class="connection real" stroke-dasharray="" d="  M109.58,272.25 L109.58,262.82" style="stroke: rgb(224, 224, 224); stroke-width: 1; fill: none; fill-opacity: 1;"/><g stroke="#e0e0e0" transform="matrix(3.061616997868383e-16,1,-1,3.061616997868383e-16,109.58349805875753,260.81701247378396)" style="stroke: rgb(224, 224, 224); stroke-width: 1;"><path d=" M6.56,-1.97 Q2.98,-0.27 0,0 Q2.98,0.27 6.56,1.97"/></g></g><g class="arrow-line"><path class="connection real" stroke-dasharray="" d="  M109.58,249.38 L109.58,239.94" style="stroke: rgb(224, 224, 224); stroke-width: 1; fill: none; fill-opacity: 1;"/><g stroke="#e0e0e0" transform="matrix(3.061616997868383e-16,1,-1,3.061616997868383e-16,109.58349805875756,237.94201899371922)" style="stroke: rgb(224, 224, 224); stroke-width: 1;"><path d=" M6.56,-1.97 Q2.98,-0.27 0,0 Q2.98,0.27 6.56,1.97"/></g></g><g class="arrow-line"><path class="connection real" stroke-dasharray="" d="  M109.58,226.5 L109.58,217.07" style="stroke: rgb(224, 224, 224); stroke-width: 1; fill: none; fill-opacity: 1;"/><g stroke="#e0e0e0" transform="matrix(3.061616997868383e-16,1,-1,3.061616997868383e-16,109.5834980587575,215.06702551365453)" style="stroke: rgb(224, 224, 224); stroke-width: 1;"><path d=" M6.56,-1.97 Q2.98,-0.27 0,0 Q2.98,0.27 6.56,1.97"/></g></g><g class="arrow-line"><path class="connection real" stroke-dasharray="" d="  M109.58,192.19 L109.58,203.63" style="stroke: rgb(224, 224, 224); stroke-width: 1; fill: none; fill-opacity: 1;"/></g><g class="composite-shape"><path class="real" d=" M129.34,205.92 C129.34,204.65 130.37,203.63 131.63,203.63 L140.23,203.63 C141.49,203.63 142.52,204.65 142.52,205.92 L142.52,212.78 C142.52,214.04 141.49,215.07 140.23,215.07 L131.63,215.07 C130.37,215.07 129.34,214.04 129.34,212.78 Z" style="stroke-width: 1; stroke: rgb(224, 224, 224); fill: none; fill-opacity: 1;"/></g><g class="composite-shape"><path class="real" d=" M129.34,228.79 C129.34,227.53 130.37,226.5 131.63,226.5 L140.23,226.5 C141.49,226.5 142.52,227.53 142.52,228.79 L142.52,235.65 C142.52,236.92 141.49,237.94 140.23,237.94 L131.63,237.94 C130.37,237.94 129.34,236.92 129.34,235.65 Z" style="stroke-width: 1; stroke: rgb(224, 224, 224); fill: none; fill-opacity: 1;"/></g><g class="composite-shape"><path class="real" d=" M129.34,251.67 C129.34,250.4 130.37,249.38 131.63,249.38 L140.23,249.38 C141.49,249.38 142.52,250.4 142.52,251.67 L142.52,258.53 C142.52,259.79 141.49,260.82 140.23,260.82 L131.63,260.82 C130.37,260.82 129.34,259.79 129.34,258.53 Z" style="stroke-width: 1; stroke: rgb(224, 224, 224); fill: none; fill-opacity: 1;"/></g><g class="composite-shape"><path class="real" d=" M129.34,274.54 C129.34,273.28 130.37,272.25 131.63,272.25 L140.23,272.25 C141.49,272.25 142.52,273.28 142.52,274.54 L142.52,281.4 C142.52,282.67 141.49,283.69 140.23,283.69 L131.63,283.69 C130.37,283.69 129.34,282.67 129.34,281.4 Z" style="stroke-width: 1; stroke: rgb(224, 224, 224); fill: none; fill-opacity: 1;"/></g><g class="arrow-line"><path class="connection real" stroke-dasharray="" d="  M135.93,272.25 L135.93,262.82" style="stroke: rgb(224, 224, 224); stroke-width: 1; fill: none; fill-opacity: 1;"/><g stroke="#e0e0e0" transform="matrix(3.061616997868383e-16,1,-1,3.061616997868383e-16,135.9295079372883,260.81701247378396)" style="stroke: rgb(224, 224, 224); stroke-width: 1;"><path d=" M6.56,-1.97 Q2.98,-0.27 0,0 Q2.98,0.27 6.56,1.97"/></g></g><g class="arrow-line"><path class="connection real" stroke-dasharray="" d="  M135.93,249.38 L135.93,239.94" style="stroke: rgb(224, 224, 224); stroke-width: 1; fill: none; fill-opacity: 1;"/><g stroke="#e0e0e0" transform="matrix(3.061616997868383e-16,1,-1,3.061616997868383e-16,135.92950793728826,237.94201899371922)" style="stroke: rgb(224, 224, 224); stroke-width: 1;"><path d=" M6.56,-1.97 Q2.98,-0.27 0,0 Q2.98,0.27 6.56,1.97"/></g></g><g class="arrow-line"><path class="connection real" stroke-dasharray="" d="  M135.93,226.5 L135.93,217.07" style="stroke: rgb(224, 224, 224); stroke-width: 1; fill: none; fill-opacity: 1;"/><g stroke="#e0e0e0" transform="matrix(3.061616997868383e-16,1,-1,3.061616997868383e-16,135.92950793728826,215.06702551365453)" style="stroke: rgb(224, 224, 224); stroke-width: 1;"><path d=" M6.56,-1.97 Q2.98,-0.27 0,0 Q2.98,0.27 6.56,1.97"/></g></g><g class="arrow-line"><path class="connection real" stroke-dasharray="" d="  M135.93,192.19 L135.93,203.63" style="stroke: rgb(224, 224, 224); stroke-width: 1; fill: none; fill-opacity: 1;"/></g><g class="arrow-line"><path class="connection real" stroke-dasharray="" d="  M83.24,192.19 L135.93,192.19" style="stroke: rgb(224, 224, 224); stroke-width: 1; fill: none; fill-opacity: 1;"/></g><g class="arrow-line"><path class="connection real" stroke-dasharray="" d="  M109.58,192.19 L109.58,182.75" style="stroke: rgb(224, 224, 224); stroke-width: 1; fill: none; fill-opacity: 1;"/><g stroke="#e0e0e0" transform="matrix(3.061616997868383e-16,1,-1,3.061616997868383e-16,109.58349805875756,180.7545352935574)" style="stroke: rgb(224, 224, 224); stroke-width: 1;"><path d=" M6.56,-1.97 Q2.98,-0.27 0,0 Q2.98,0.27 6.56,1.97"/></g></g><g class="composite-shape"><path class="real" d=" M212.33,204.92 C212.33,203.65 213.36,202.63 214.62,202.63 L223.22,202.63 C224.48,202.63 225.51,203.65 225.51,204.92 L225.51,211.78 C225.51,213.04 224.48,214.07 223.22,214.07 L214.62,214.07 C213.36,214.07 212.33,213.04 212.33,211.78 Z" style="stroke-width: 1; stroke: rgb(224, 224, 224); fill: none; fill-opacity: 1;"/></g><g class="composite-shape"><path class="real" d=" M212.33,227.79 C212.33,226.53 213.36,225.5 214.62,225.5 L223.22,225.5 C224.48,225.5 225.51,226.53 225.51,227.79 L225.51,234.65 C225.51,235.92 224.48,236.94 223.22,236.94 L214.62,236.94 C213.36,236.94 212.33,235.92 212.33,234.65 Z" style="stroke-width: 1; stroke: rgb(224, 224, 224); fill: none; fill-opacity: 1;"/></g><g class="composite-shape"><path class="real" d=" M212.33,250.67 C212.33,249.4 213.36,248.38 214.62,248.38 L223.22,248.38 C224.48,248.38 225.51,249.4 225.51,250.67 L225.51,257.53 C225.51,258.79 224.48,259.82 223.22,259.82 L214.62,259.82 C213.36,259.82 212.33,258.79 212.33,257.53 Z" style="stroke-width: 1; stroke: rgb(224, 224, 224); fill: none; fill-opacity: 1;"/></g><g class="composite-shape"><path class="real" d=" M212.33,273.54 C212.33,272.28 213.36,271.25 214.62,271.25 L223.22,271.25 C224.48,271.25 225.51,272.28 225.51,273.54 L225.51,280.4 C225.51,281.67 224.48,282.69 223.22,282.69 L214.62,282.69 C213.36,282.69 212.33,281.67 212.33,280.4 Z" style="stroke-width: 1; stroke: rgb(224, 224, 224); fill: none; fill-opacity: 1;"/></g><g class="arrow-line"><path class="connection real" stroke-dasharray="" d="  M218.92,271.25 L218.92,261.82" style="stroke: rgb(224, 224, 224); stroke-width: 1; fill: none; fill-opacity: 1;"/><g stroke="#e0e0e0" transform="matrix(3.061616997868383e-16,1,-1,3.061616997868383e-16,218.91943905466002,259.817339992809)" style="stroke: rgb(224, 224, 224); stroke-width: 1;"><path d=" M6.56,-1.97 Q2.98,-0.27 0,0 Q2.98,0.27 6.56,1.97"/></g></g><g class="arrow-line"><path class="connection real" stroke-dasharray="" d="  M218.92,248.38 L218.92,238.94" style="stroke: rgb(224, 224, 224); stroke-width: 1; fill: none; fill-opacity: 1;"/><g stroke="#e0e0e0" transform="matrix(3.061616997868383e-16,1,-1,3.061616997868383e-16,218.91943905466002,236.94234651274434)" style="stroke: rgb(224, 224, 224); stroke-width: 1;"><path d=" M6.56,-1.97 Q2.98,-0.27 0,0 Q2.98,0.27 6.56,1.97"/></g></g><g class="arrow-line"><path class="connection real" stroke-dasharray="" d="  M218.92,225.5 L218.92,216.07" style="stroke: rgb(224, 224, 224); stroke-width: 1; fill: none; fill-opacity: 1;"/><g stroke="#e0e0e0" transform="matrix(3.061616997868383e-16,1,-1,3.061616997868383e-16,218.91943905466002,214.06735303267965)" style="stroke: rgb(224, 224, 224); stroke-width: 1;"><path d=" M6.56,-1.97 Q2.98,-0.27 0,0 Q2.98,0.27 6.56,1.97"/></g></g><g class="arrow-line"><path class="connection real" stroke-dasharray="" d="  M218.92,191.19 L218.92,202.63" style="stroke: rgb(224, 224, 224); stroke-width: 1; fill: none; fill-opacity: 1;"/></g><g class="composite-shape"><path class="real" d=" M238.68,204.92 C238.68,203.65 239.7,202.63 240.97,202.63 L249.56,202.63 C250.83,202.63 251.85,203.65 251.85,204.92 L251.85,211.78 C251.85,213.04 250.83,214.07 249.56,214.07 L240.97,214.07 C239.7,214.07 238.68,213.04 238.68,211.78 Z" style="stroke-width: 1; stroke: rgb(224, 224, 224); fill: none; fill-opacity: 1;"/></g><g class="composite-shape"><path class="real" d=" M238.68,227.79 C238.68,226.53 239.7,225.5 240.97,225.5 L249.56,225.5 C250.83,225.5 251.85,226.53 251.85,227.79 L251.85,234.65 C251.85,235.92 250.83,236.94 249.56,236.94 L240.97,236.94 C239.7,236.94 238.68,235.92 238.68,234.65 Z" style="stroke-width: 1; stroke: rgb(224, 224, 224); fill: none; fill-opacity: 1;"/></g><g class="composite-shape"><path class="real" d=" M238.68,250.67 C238.68,249.4 239.7,248.38 240.97,248.38 L249.56,248.38 C250.83,248.38 251.85,249.4 251.85,250.67 L251.85,257.53 C251.85,258.79 250.83,259.82 249.56,259.82 L240.97,259.82 C239.7,259.82 238.68,258.79 238.68,257.53 Z" style="stroke-width: 1; stroke: rgb(224, 224, 224); fill: none; fill-opacity: 1;"/></g><g class="composite-shape"><path class="real" d=" M238.68,273.54 C238.68,272.28 239.7,271.25 240.97,271.25 L249.56,271.25 C250.83,271.25 251.85,272.28 251.85,273.54 L251.85,280.4 C251.85,281.67 250.83,282.69 249.56,282.69 L240.97,282.69 C239.7,282.69 238.68,281.67 238.68,280.4 Z" style="stroke-width: 1; stroke: rgb(224, 224, 224); fill: none; fill-opacity: 1;"/></g><g class="arrow-line"><path class="connection real" stroke-dasharray="" d="  M245.27,271.25 L245.27,261.82" style="stroke: rgb(224, 224, 224); stroke-width: 1; fill: none; fill-opacity: 1;"/><g stroke="#e0e0e0" transform="matrix(3.061616997868383e-16,1,-1,3.061616997868383e-16,245.26544893319073,259.817339992809)" style="stroke: rgb(224, 224, 224); stroke-width: 1;"><path d=" M6.56,-1.97 Q2.98,-0.27 0,0 Q2.98,0.27 6.56,1.97"/></g></g><g class="arrow-line"><path class="connection real" stroke-dasharray="" d="  M245.27,248.38 L245.27,238.94" style="stroke: rgb(224, 224, 224); stroke-width: 1; fill: none; fill-opacity: 1;"/><g stroke="#e0e0e0" transform="matrix(3.061616997868383e-16,1,-1,3.061616997868383e-16,245.2654489331907,236.94234651274434)" style="stroke: rgb(224, 224, 224); stroke-width: 1;"><path d=" M6.56,-1.97 Q2.98,-0.27 0,0 Q2.98,0.27 6.56,1.97"/></g></g><g class="arrow-line"><path class="connection real" stroke-dasharray="" d="  M245.27,225.5 L245.27,216.07" style="stroke: rgb(224, 224, 224); stroke-width: 1; fill: none; fill-opacity: 1;"/><g stroke="#e0e0e0" transform="matrix(3.061616997868383e-16,1,-1,3.061616997868383e-16,245.26544893319075,214.06735303267965)" style="stroke: rgb(224, 224, 224); stroke-width: 1;"><path d=" M6.56,-1.97 Q2.98,-0.27 0,0 Q2.98,0.27 6.56,1.97"/></g></g><g class="arrow-line"><path class="connection real" stroke-dasharray="" d="  M245.27,191.19 L245.27,202.63" style="stroke: rgb(224, 224, 224); stroke-width: 1; fill: none; fill-opacity: 1;"/></g><g class="composite-shape"><path class="real" d=" M265.02,204.92 C265.02,203.65 266.05,202.63 267.31,202.63 L275.91,202.63 C277.17,202.63 278.2,203.65 278.2,204.92 L278.2,211.78 C278.2,213.04 277.17,214.07 275.91,214.07 L267.31,214.07 C266.05,214.07 265.02,213.04 265.02,211.78 Z" style="stroke-width: 1; stroke: rgb(224, 224, 224); fill: none; fill-opacity: 1;"/></g><g class="composite-shape"><path class="real" d=" M265.02,227.79 C265.02,226.53 266.05,225.5 267.31,225.5 L275.91,225.5 C277.17,225.5 278.2,226.53 278.2,227.79 L278.2,234.65 C278.2,235.92 277.17,236.94 275.91,236.94 L267.31,236.94 C266.05,236.94 265.02,235.92 265.02,234.65 Z" style="stroke-width: 1; stroke: rgb(224, 224, 224); fill: none; fill-opacity: 1;"/></g><g class="composite-shape"><path class="real" d=" M265.02,250.67 C265.02,249.4 266.05,248.38 267.31,248.38 L275.91,248.38 C277.17,248.38 278.2,249.4 278.2,250.67 L278.2,257.53 C278.2,258.79 277.17,259.82 275.91,259.82 L267.31,259.82 C266.05,259.82 265.02,258.79 265.02,257.53 Z" style="stroke-width: 1; stroke: rgb(224, 224, 224); fill: none; fill-opacity: 1;"/></g><g class="composite-shape"><path class="real" d=" M265.02,273.54 C265.02,272.28 266.05,271.25 267.31,271.25 L275.91,271.25 C277.17,271.25 278.2,272.28 278.2,273.54 L278.2,280.4 C278.2,281.67 277.17,282.69 275.91,282.69 L267.31,282.69 C266.05,282.69 265.02,281.67 265.02,280.4 Z" style="stroke-width: 1; stroke: rgb(224, 224, 224); fill: none; fill-opacity: 1;"/></g><g class="arrow-line"><path class="connection real" stroke-dasharray="" d="  M271.61,271.25 L271.61,261.82" style="stroke: rgb(224, 224, 224); stroke-width: 1; fill: none; fill-opacity: 1;"/><g stroke="#e0e0e0" transform="matrix(3.061616997868383e-16,1,-1,3.061616997868383e-16,271.6114588117213,259.817339992809)" style="stroke: rgb(224, 224, 224); stroke-width: 1;"><path d=" M6.56,-1.97 Q2.98,-0.27 0,0 Q2.98,0.27 6.56,1.97"/></g></g><g class="arrow-line"><path class="connection real" stroke-dasharray="" d="  M271.61,248.38 L271.61,238.94" style="stroke: rgb(224, 224, 224); stroke-width: 1; fill: none; fill-opacity: 1;"/><g stroke="#e0e0e0" transform="matrix(3.061616997868383e-16,1,-1,3.061616997868383e-16,271.6114588117214,236.94234651274434)" style="stroke: rgb(224, 224, 224); stroke-width: 1;"><path d=" M6.56,-1.97 Q2.98,-0.27 0,0 Q2.98,0.27 6.56,1.97"/></g></g><g class="arrow-line"><path class="connection real" stroke-dasharray="" d="  M271.61,225.5 L271.61,216.07" style="stroke: rgb(224, 224, 224); stroke-width: 1; fill: none; fill-opacity: 1;"/><g stroke="#e0e0e0" transform="matrix(3.061616997868383e-16,1,-1,3.061616997868383e-16,271.6114588117214,214.06735303267965)" style="stroke: rgb(224, 224, 224); stroke-width: 1;"><path d=" M6.56,-1.97 Q2.98,-0.27 0,0 Q2.98,0.27 6.56,1.97"/></g></g><g class="arrow-line"><path class="connection real" stroke-dasharray="" d="  M271.61,191.19 L271.61,202.63" style="stroke: rgb(224, 224, 224); stroke-width: 1; fill: none; fill-opacity: 1;"/></g><g class="arrow-line"><path class="connection real" stroke-dasharray="" d="  M218.92,191.19 L271.61,191.19" style="stroke: rgb(224, 224, 224); stroke-width: 1; fill: none; fill-opacity: 1;"/></g><g class="arrow-line"><path class="connection real" stroke-dasharray="" d="  M245.27,191.19 L245.27,181.75" style="stroke: rgb(224, 224, 224); stroke-width: 1; fill: none; fill-opacity: 1;"/><g stroke="#e0e0e0" transform="matrix(3.061616997868383e-16,1,-1,3.061616997868383e-16,245.26544893319075,179.7548628125826)" style="stroke: rgb(224, 224, 224); stroke-width: 1;"><path d=" M6.56,-1.97 Q2.98,-0.27 0,0 Q2.98,0.27 6.56,1.97"/></g></g><g class="composite-shape"><path class="real" d=" M324.3,205.92 C324.3,204.65 325.33,203.63 326.59,203.63 L335.19,203.63 C336.45,203.63 337.48,204.65 337.48,205.92 L337.48,212.78 C337.48,214.04 336.45,215.07 335.19,215.07 L326.59,215.07 C325.33,215.07 324.3,214.04 324.3,212.78 Z" style="stroke-width: 1; stroke: rgb(224, 224, 224); fill: none; fill-opacity: 1;"/></g><g class="composite-shape"><path class="real" d=" M324.3,228.79 C324.3,227.53 325.33,226.5 326.59,226.5 L335.19,226.5 C336.45,226.5 337.48,227.53 337.48,228.79 L337.48,235.65 C337.48,236.92 336.45,237.94 335.19,237.94 L326.59,237.94 C325.33,237.94 324.3,236.92 324.3,235.65 Z" style="stroke-width: 1; stroke: rgb(224, 224, 224); fill: none; fill-opacity: 1;"/></g><g class="composite-shape"><path class="real" d=" M324.3,251.67 C324.3,250.4 325.33,249.38 326.59,249.38 L335.19,249.38 C336.45,249.38 337.48,250.4 337.48,251.67 L337.48,258.53 C337.48,259.79 336.45,260.82 335.19,260.82 L326.59,260.82 C325.33,260.82 324.3,259.79 324.3,258.53 Z" style="stroke-width: 1; stroke: rgb(224, 224, 224); fill: none; fill-opacity: 1;"/></g><g class="composite-shape"><path class="real" d=" M324.3,274.54 C324.3,273.28 325.33,272.25 326.59,272.25 L335.19,272.25 C336.45,272.25 337.48,273.28 337.48,274.54 L337.48,281.4 C337.48,282.67 336.45,283.69 335.19,283.69 L326.59,283.69 C325.33,283.69 324.3,282.67 324.3,281.4 Z" style="stroke-width: 1; stroke: rgb(224, 224, 224); fill: none; fill-opacity: 1;"/></g><g class="arrow-line"><path class="connection real" stroke-dasharray="" d="  M330.89,272.25 L330.89,262.82" style="stroke: rgb(224, 224, 224); stroke-width: 1; fill: none; fill-opacity: 1;"/><g stroke="#e0e0e0" transform="matrix(3.061616997868383e-16,1,-1,3.061616997868383e-16,330.8899810384156,260.81701247378396)" style="stroke: rgb(224, 224, 224); stroke-width: 1;"><path d=" M6.56,-1.97 Q2.98,-0.27 0,0 Q2.98,0.27 6.56,1.97"/></g></g><g class="arrow-line"><path class="connection real" stroke-dasharray="" d="  M330.89,249.38 L330.89,239.94" style="stroke: rgb(224, 224, 224); stroke-width: 1; fill: none; fill-opacity: 1;"/><g stroke="#e0e0e0" transform="matrix(3.061616997868383e-16,1,-1,3.061616997868383e-16,330.8899810384155,237.94201899371922)" style="stroke: rgb(224, 224, 224); stroke-width: 1;"><path d=" M6.56,-1.97 Q2.98,-0.27 0,0 Q2.98,0.27 6.56,1.97"/></g></g><g class="arrow-line"><path class="connection real" stroke-dasharray="" d="  M330.89,226.5 L330.89,217.07" style="stroke: rgb(224, 224, 224); stroke-width: 1; fill: none; fill-opacity: 1;"/><g stroke="#e0e0e0" transform="matrix(3.061616997868383e-16,1,-1,3.061616997868383e-16,330.88998103841556,215.06702551365453)" style="stroke: rgb(224, 224, 224); stroke-width: 1;"><path d=" M6.56,-1.97 Q2.98,-0.27 0,0 Q2.98,0.27 6.56,1.97"/></g></g><g class="arrow-line"><path class="connection real" stroke-dasharray="" d="  M330.89,192.19 L330.89,203.63" style="stroke: rgb(224, 224, 224); stroke-width: 1; fill: none; fill-opacity: 1;"/></g><g class="composite-shape"><path class="real" d=" M350.65,205.92 C350.65,204.65 351.67,203.63 352.94,203.63 L361.53,203.63 C362.8,203.63 363.82,204.65 363.82,205.92 L363.82,212.78 C363.82,214.04 362.8,215.07 361.53,215.07 L352.94,215.07 C351.67,215.07 350.65,214.04 350.65,212.78 Z" style="stroke-width: 1; stroke: rgb(224, 224, 224); fill: none; fill-opacity: 1;"/></g><g class="composite-shape"><path class="real" d=" M350.65,228.79 C350.65,227.53 351.67,226.5 352.94,226.5 L361.53,226.5 C362.8,226.5 363.82,227.53 363.82,228.79 L363.82,235.65 C363.82,236.92 362.8,237.94 361.53,237.94 L352.94,237.94 C351.67,237.94 350.65,236.92 350.65,235.65 Z" style="stroke-width: 1; stroke: rgb(224, 224, 224); fill: none; fill-opacity: 1;"/></g><g class="composite-shape"><path class="real" d=" M350.65,251.67 C350.65,250.4 351.67,249.38 352.94,249.38 L361.53,249.38 C362.8,249.38 363.82,250.4 363.82,251.67 L363.82,258.53 C363.82,259.79 362.8,260.82 361.53,260.82 L352.94,260.82 C351.67,260.82 350.65,259.79 350.65,258.53 Z" style="stroke-width: 1; stroke: rgb(224, 224, 224); fill: none; fill-opacity: 1;"/></g><g class="composite-shape"><path class="real" d=" M350.65,274.54 C350.65,273.28 351.67,272.25 352.94,272.25 L361.53,272.25 C362.8,272.25 363.82,273.28 363.82,274.54 L363.82,281.4 C363.82,282.67 362.8,283.69 361.53,283.69 L352.94,283.69 C351.67,283.69 350.65,282.67 350.65,281.4 Z" style="stroke-width: 1; stroke: rgb(224, 224, 224); fill: none; fill-opacity: 1;"/></g><g class="arrow-line"><path class="connection real" stroke-dasharray="" d="  M357.24,272.25 L357.24,262.82" style="stroke: rgb(224, 224, 224); stroke-width: 1; fill: none; fill-opacity: 1;"/><g stroke="#e0e0e0" transform="matrix(3.061616997868383e-16,1,-1,3.061616997868383e-16,357.2359909169462,260.81701247378396)" style="stroke: rgb(224, 224, 224); stroke-width: 1;"><path d=" M6.56,-1.97 Q2.98,-0.27 0,0 Q2.98,0.27 6.56,1.97"/></g></g><g class="arrow-line"><path class="connection real" stroke-dasharray="" d="  M357.24,249.38 L357.24,239.94" style="stroke: rgb(224, 224, 224); stroke-width: 1; fill: none; fill-opacity: 1;"/><g stroke="#e0e0e0" transform="matrix(3.061616997868383e-16,1,-1,3.061616997868383e-16,357.2359909169463,237.94201899371922)" style="stroke: rgb(224, 224, 224); stroke-width: 1;"><path d=" M6.56,-1.97 Q2.98,-0.27 0,0 Q2.98,0.27 6.56,1.97"/></g></g><g class="arrow-line"><path class="connection real" stroke-dasharray="" d="  M357.24,226.5 L357.24,217.07" style="stroke: rgb(224, 224, 224); stroke-width: 1; fill: none; fill-opacity: 1;"/><g stroke="#e0e0e0" transform="matrix(3.061616997868383e-16,1,-1,3.061616997868383e-16,357.23599091694626,215.06702551365453)" style="stroke: rgb(224, 224, 224); stroke-width: 1;"><path d=" M6.56,-1.97 Q2.98,-0.27 0,0 Q2.98,0.27 6.56,1.97"/></g></g><g class="arrow-line"><path class="connection real" stroke-dasharray="" d="  M357.24,192.19 L357.24,203.63" style="stroke: rgb(224, 224, 224); stroke-width: 1; fill: none; fill-opacity: 1;"/></g><g class="composite-shape"><path class="real" d=" M377,205.92 C377,204.65 378.02,203.63 379.28,203.63 L387.88,203.63 C389.14,203.63 390.17,204.65 390.17,205.92 L390.17,212.78 C390.17,214.04 389.14,215.07 387.88,215.07 L379.28,215.07 C378.02,215.07 377,214.04 377,212.78 Z" style="stroke-width: 1; stroke: rgb(224, 224, 224); fill: none; fill-opacity: 1;"/></g><g class="composite-shape"><path class="real" d=" M377,228.79 C377,227.53 378.02,226.5 379.28,226.5 L387.88,226.5 C389.14,226.5 390.17,227.53 390.17,228.79 L390.17,235.65 C390.17,236.92 389.14,237.94 387.88,237.94 L379.28,237.94 C378.02,237.94 377,236.92 377,235.65 Z" style="stroke-width: 1; stroke: rgb(224, 224, 224); fill: none; fill-opacity: 1;"/></g><g class="composite-shape"><path class="real" d=" M377,251.67 C377,250.4 378.02,249.38 379.28,249.38 L387.88,249.38 C389.14,249.38 390.17,250.4 390.17,251.67 L390.17,258.53 C390.17,259.79 389.14,260.82 387.88,260.82 L379.28,260.82 C378.02,260.82 377,259.79 377,258.53 Z" style="stroke-width: 1; stroke: rgb(224, 224, 224); fill: none; fill-opacity: 1;"/></g><g class="composite-shape"><path class="real" d=" M377,274.54 C377,273.28 378.02,272.25 379.28,272.25 L387.88,272.25 C389.14,272.25 390.17,273.28 390.17,274.54 L390.17,281.4 C390.17,282.67 389.14,283.69 387.88,283.69 L379.28,283.69 C378.02,283.69 377,282.67 377,281.4 Z" style="stroke-width: 1; stroke: rgb(224, 224, 224); fill: none; fill-opacity: 1;"/></g><g class="arrow-line"><path class="connection real" stroke-dasharray="" d="  M383.58,272.25 L383.58,262.82" style="stroke: rgb(224, 224, 224); stroke-width: 1; fill: none; fill-opacity: 1;"/><g stroke="#e0e0e0" transform="matrix(3.061616997868383e-16,1,-1,3.061616997868383e-16,383.58200079547703,260.81701247378396)" style="stroke: rgb(224, 224, 224); stroke-width: 1;"><path d=" M6.56,-1.97 Q2.98,-0.27 0,0 Q2.98,0.27 6.56,1.97"/></g></g><g class="arrow-line"><path class="connection real" stroke-dasharray="" d="  M383.58,249.38 L383.58,239.94" style="stroke: rgb(224, 224, 224); stroke-width: 1; fill: none; fill-opacity: 1;"/><g stroke="#e0e0e0" transform="matrix(3.061616997868383e-16,1,-1,3.061616997868383e-16,383.5820007954769,237.94201899371922)" style="stroke: rgb(224, 224, 224); stroke-width: 1;"><path d=" M6.56,-1.97 Q2.98,-0.27 0,0 Q2.98,0.27 6.56,1.97"/></g></g><g class="arrow-line"><path class="connection real" stroke-dasharray="" d="  M383.58,226.5 L383.58,217.07" style="stroke: rgb(224, 224, 224); stroke-width: 1; fill: none; fill-opacity: 1;"/><g stroke="#e0e0e0" transform="matrix(3.061616997868383e-16,1,-1,3.061616997868383e-16,383.582000795477,215.06702551365453)" style="stroke: rgb(224, 224, 224); stroke-width: 1;"><path d=" M6.56,-1.97 Q2.98,-0.27 0,0 Q2.98,0.27 6.56,1.97"/></g></g><g class="arrow-line"><path class="connection real" stroke-dasharray="" d="  M383.58,192.19 L383.58,203.63" style="stroke: rgb(224, 224, 224); stroke-width: 1; fill: none; fill-opacity: 1;"/></g><g class="arrow-line"><path class="connection real" stroke-dasharray="" d="  M330.89,192.19 L383.58,192.19" style="stroke: rgb(224, 224, 224); stroke-width: 1; fill: none; fill-opacity: 1;"/></g><g class="arrow-line"><path class="connection real" stroke-dasharray="" d="  M357.24,192.19 L357.24,182.75" style="stroke: rgb(224, 224, 224); stroke-width: 1; fill: none; fill-opacity: 1;"/><g stroke="#e0e0e0" transform="matrix(3.061616997868383e-16,1,-1,3.061616997868383e-16,357.2359909169462,180.7545352935574)" style="stroke: rgb(224, 224, 224); stroke-width: 1;"><path d=" M6.56,-1.97 Q2.98,-0.27 0,0 Q2.98,0.27 6.56,1.97"/></g></g><g class="composite-shape"><path class="real" d=" M456.03,205.92 C456.03,204.65 457.06,203.63 458.32,203.63 L466.92,203.63 C468.18,203.63 469.21,204.65 469.21,205.92 L469.21,212.78 C469.21,214.04 468.18,215.07 466.92,215.07 L458.32,215.07 C457.06,215.07 456.03,214.04 456.03,212.78 Z" style="stroke-width: 1; stroke: rgb(224, 224, 224); fill: none; fill-opacity: 1;"/></g><g class="composite-shape"><path class="real" d=" M456.03,228.79 C456.03,227.53 457.06,226.5 458.32,226.5 L466.92,226.5 C468.18,226.5 469.21,227.53 469.21,228.79 L469.21,235.65 C469.21,236.92 468.18,237.94 466.92,237.94 L458.32,237.94 C457.06,237.94 456.03,236.92 456.03,235.65 Z" style="stroke-width: 1; stroke: rgb(224, 224, 224); fill: none; fill-opacity: 1;"/></g><g class="composite-shape"><path class="real" d=" M456.03,251.67 C456.03,250.4 457.06,249.38 458.32,249.38 L466.92,249.38 C468.18,249.38 469.21,250.4 469.21,251.67 L469.21,258.53 C469.21,259.79 468.18,260.82 466.92,260.82 L458.32,260.82 C457.06,260.82 456.03,259.79 456.03,258.53 Z" style="stroke-width: 1; stroke: rgb(224, 224, 224); fill: none; fill-opacity: 1;"/></g><g class="composite-shape"><path class="real" d=" M456.03,274.54 C456.03,273.28 457.06,272.25 458.32,272.25 L466.92,272.25 C468.18,272.25 469.21,273.28 469.21,274.54 L469.21,281.4 C469.21,282.67 468.18,283.69 466.92,283.69 L458.32,283.69 C457.06,283.69 456.03,282.67 456.03,281.4 Z" style="stroke-width: 1; stroke: rgb(224, 224, 224); fill: none; fill-opacity: 1;"/></g><g class="arrow-line"><path class="connection real" stroke-dasharray="" d="  M462.62,272.25 L462.62,262.82" style="stroke: rgb(224, 224, 224); stroke-width: 1; fill: none; fill-opacity: 1;"/><g stroke="#e0e0e0" transform="matrix(3.061616997868383e-16,1,-1,3.061616997868383e-16,462.62003043106904,260.81701247378396)" style="stroke: rgb(224, 224, 224); stroke-width: 1;"><path d=" M6.56,-1.97 Q2.98,-0.27 0,0 Q2.98,0.27 6.56,1.97"/></g></g><g class="arrow-line"><path class="connection real" stroke-dasharray="" d="  M462.62,249.38 L462.62,239.94" style="stroke: rgb(224, 224, 224); stroke-width: 1; fill: none; fill-opacity: 1;"/><g stroke="#e0e0e0" transform="matrix(3.061616997868383e-16,1,-1,3.061616997868383e-16,462.62003043106904,237.94201899371922)" style="stroke: rgb(224, 224, 224); stroke-width: 1;"><path d=" M6.56,-1.97 Q2.98,-0.27 0,0 Q2.98,0.27 6.56,1.97"/></g></g><g class="arrow-line"><path class="connection real" stroke-dasharray="" d="  M462.62,226.5 L462.62,217.07" style="stroke: rgb(224, 224, 224); stroke-width: 1; fill: none; fill-opacity: 1;"/><g stroke="#e0e0e0" transform="matrix(3.061616997868383e-16,1,-1,3.061616997868383e-16,462.62003043106915,215.06702551365453)" style="stroke: rgb(224, 224, 224); stroke-width: 1;"><path d=" M6.56,-1.97 Q2.98,-0.27 0,0 Q2.98,0.27 6.56,1.97"/></g></g><g class="arrow-line"><path class="connection real" stroke-dasharray="" d="  M462.62,192.19 L462.62,203.63" style="stroke: rgb(224, 224, 224); stroke-width: 1; fill: none; fill-opacity: 1;"/></g><g class="composite-shape"><path class="real" d=" M482.38,205.92 C482.38,204.65 483.4,203.63 484.67,203.63 L493.27,203.63 C494.53,203.63 495.55,204.65 495.55,205.92 L495.55,212.78 C495.55,214.04 494.53,215.07 493.27,215.07 L484.67,215.07 C483.4,215.07 482.38,214.04 482.38,212.78 Z" style="stroke-width: 1; stroke: rgb(224, 224, 224); fill: none; fill-opacity: 1;"/></g><g class="composite-shape"><path class="real" d=" M482.38,228.79 C482.38,227.53 483.4,226.5 484.67,226.5 L493.27,226.5 C494.53,226.5 495.55,227.53 495.55,228.79 L495.55,235.65 C495.55,236.92 494.53,237.94 493.27,237.94 L484.67,237.94 C483.4,237.94 482.38,236.92 482.38,235.65 Z" style="stroke-width: 1; stroke: rgb(224, 224, 224); fill: none; fill-opacity: 1;"/></g><g class="composite-shape"><path class="real" d=" M482.38,251.67 C482.38,250.4 483.4,249.38 484.67,249.38 L493.27,249.38 C494.53,249.38 495.55,250.4 495.55,251.67 L495.55,258.53 C495.55,259.79 494.53,260.82 493.27,260.82 L484.67,260.82 C483.4,260.82 482.38,259.79 482.38,258.53 Z" style="stroke-width: 1; stroke: rgb(224, 224, 224); fill: none; fill-opacity: 1;"/></g><g class="composite-shape"><path class="real" d=" M482.38,274.54 C482.38,273.28 483.4,272.25 484.67,272.25 L493.27,272.25 C494.53,272.25 495.55,273.28 495.55,274.54 L495.55,281.4 C495.55,282.67 494.53,283.69 493.27,283.69 L484.67,283.69 C483.4,283.69 482.38,282.67 482.38,281.4 Z" style="stroke-width: 1; stroke: rgb(224, 224, 224); fill: none; fill-opacity: 1;"/></g><g class="arrow-line"><path class="connection real" stroke-dasharray="" d="  M488.97,272.25 L488.97,262.82" style="stroke: rgb(224, 224, 224); stroke-width: 1; fill: none; fill-opacity: 1;"/><g stroke="#e0e0e0" transform="matrix(3.061616997868383e-16,1,-1,3.061616997868383e-16,488.9660403095998,260.81701247378396)" style="stroke: rgb(224, 224, 224); stroke-width: 1;"><path d=" M6.56,-1.97 Q2.98,-0.27 0,0 Q2.98,0.27 6.56,1.97"/></g></g><g class="arrow-line"><path class="connection real" stroke-dasharray="" d="  M488.97,249.38 L488.97,239.94" style="stroke: rgb(224, 224, 224); stroke-width: 1; fill: none; fill-opacity: 1;"/><g stroke="#e0e0e0" transform="matrix(3.061616997868383e-16,1,-1,3.061616997868383e-16,488.96604030959975,237.94201899371922)" style="stroke: rgb(224, 224, 224); stroke-width: 1;"><path d=" M6.56,-1.97 Q2.98,-0.27 0,0 Q2.98,0.27 6.56,1.97"/></g></g><g class="arrow-line"><path class="connection real" stroke-dasharray="" d="  M488.97,226.5 L488.97,217.07" style="stroke: rgb(224, 224, 224); stroke-width: 1; fill: none; fill-opacity: 1;"/><g stroke="#e0e0e0" transform="matrix(3.061616997868383e-16,1,-1,3.061616997868383e-16,488.96604030959986,215.06702551365453)" style="stroke: rgb(224, 224, 224); stroke-width: 1;"><path d=" M6.56,-1.97 Q2.98,-0.27 0,0 Q2.98,0.27 6.56,1.97"/></g></g><g class="arrow-line"><path class="connection real" stroke-dasharray="" d="  M488.97,192.19 L488.97,203.63" style="stroke: rgb(224, 224, 224); stroke-width: 1; fill: none; fill-opacity: 1;"/></g><g class="composite-shape"><path class="real" d=" M508.73,205.92 C508.73,204.65 509.75,203.63 511.01,203.63 L519.61,203.63 C520.87,203.63 521.9,204.65 521.9,205.92 L521.9,212.78 C521.9,214.04 520.87,215.07 519.61,215.07 L511.01,215.07 C509.75,215.07 508.73,214.04 508.73,212.78 Z" style="stroke-width: 1; stroke: rgb(224, 224, 224); fill: none; fill-opacity: 1;"/></g><g class="composite-shape"><path class="real" d=" M508.73,228.79 C508.73,227.53 509.75,226.5 511.01,226.5 L519.61,226.5 C520.87,226.5 521.9,227.53 521.9,228.79 L521.9,235.65 C521.9,236.92 520.87,237.94 519.61,237.94 L511.01,237.94 C509.75,237.94 508.73,236.92 508.73,235.65 Z" style="stroke-width: 1; stroke: rgb(224, 224, 224); fill: none; fill-opacity: 1;"/></g><g class="composite-shape"><path class="real" d=" M508.73,251.67 C508.73,250.4 509.75,249.38 511.01,249.38 L519.61,249.38 C520.87,249.38 521.9,250.4 521.9,251.67 L521.9,258.53 C521.9,259.79 520.87,260.82 519.61,260.82 L511.01,260.82 C509.75,260.82 508.73,259.79 508.73,258.53 Z" style="stroke-width: 1; stroke: rgb(224, 224, 224); fill: none; fill-opacity: 1;"/></g><g class="composite-shape"><path class="real" d=" M508.73,274.54 C508.73,273.28 509.75,272.25 511.01,272.25 L519.61,272.25 C520.87,272.25 521.9,273.28 521.9,274.54 L521.9,281.4 C521.9,282.67 520.87,283.69 519.61,283.69 L511.01,283.69 C509.75,283.69 508.73,282.67 508.73,281.4 Z" style="stroke-width: 1; stroke: rgb(224, 224, 224); fill: none; fill-opacity: 1;"/></g><g class="arrow-line"><path class="connection real" stroke-dasharray="" d="  M515.31,272.25 L515.31,262.82" style="stroke: rgb(224, 224, 224); stroke-width: 1; fill: none; fill-opacity: 1;"/><g stroke="#e0e0e0" transform="matrix(3.061616997868383e-16,1,-1,3.061616997868383e-16,515.3120501881306,260.81701247378396)" style="stroke: rgb(224, 224, 224); stroke-width: 1;"><path d=" M6.56,-1.97 Q2.98,-0.27 0,0 Q2.98,0.27 6.56,1.97"/></g></g><g class="arrow-line"><path class="connection real" stroke-dasharray="" d="  M515.31,249.38 L515.31,239.94" style="stroke: rgb(224, 224, 224); stroke-width: 1; fill: none; fill-opacity: 1;"/><g stroke="#e0e0e0" transform="matrix(3.061616997868383e-16,1,-1,3.061616997868383e-16,515.3120501881306,237.94201899371922)" style="stroke: rgb(224, 224, 224); stroke-width: 1;"><path d=" M6.56,-1.97 Q2.98,-0.27 0,0 Q2.98,0.27 6.56,1.97"/></g></g><g class="arrow-line"><path class="connection real" stroke-dasharray="" d="  M515.31,226.5 L515.31,217.07" style="stroke: rgb(224, 224, 224); stroke-width: 1; fill: none; fill-opacity: 1;"/><g stroke="#e0e0e0" transform="matrix(3.061616997868383e-16,1,-1,3.061616997868383e-16,515.3120501881306,215.06702551365453)" style="stroke: rgb(224, 224, 224); stroke-width: 1;"><path d=" M6.56,-1.97 Q2.98,-0.27 0,0 Q2.98,0.27 6.56,1.97"/></g></g><g class="arrow-line"><path class="connection real" stroke-dasharray="" d="  M515.31,192.19 L515.31,203.63" style="stroke: rgb(224, 224, 224); stroke-width: 1; fill: none; fill-opacity: 1;"/></g><g class="arrow-line"><path class="connection real" stroke-dasharray="" d="  M462.62,192.19 L515.31,192.19" style="stroke: rgb(224, 224, 224); stroke-width: 1; fill: none; fill-opacity: 1;"/></g><g class="arrow-line"><path class="connection real" stroke-dasharray="" d="  M488.97,192.19 L488.97,182.75" style="stroke: rgb(224, 224, 224); stroke-width: 1; fill: none; fill-opacity: 1;"/><g stroke="#e0e0e0" transform="matrix(3.061616997868383e-16,1,-1,3.061616997868383e-16,488.96604030959975,180.7545352935574)" style="stroke: rgb(224, 224, 224); stroke-width: 1;"><path d=" M6.56,-1.97 Q2.98,-0.27 0,0 Q2.98,0.27 6.56,1.97"/></g></g><g class="arrow-line"><path class="connection real" stroke-dasharray="" d="  M600,341 C639.8,311.15 623.17,197.64 531.39,229.51" style="stroke: rgb(224, 224, 224); stroke-width: 1; fill: none; fill-opacity: 1;"/><g stroke="#e0e0e0" transform="matrix(0.9408216337039956,-0.3389021297580536,0.3389021297580536,0.9408216337039956,530,230)" style="stroke: rgb(224, 224, 224); stroke-width: 1;"><path d=" M10.93,-3.29 Q4.96,-0.45 0,0 Q4.96,0.45 10.93,3.29"/></g></g><g class="composite-shape"><path class="real" d=" M230,341 C230,324.43 312.83,311 415,311 C517.17,311 600,324.43 600,341 C600,357.57 517.17,371 415,371 C312.83,371 230,357.57 230,341 Z" style="stroke-width: 1; stroke: rgb(224, 224, 224); fill: none; fill-opacity: 1;"/></g><g/></g><g/><g/><g/></svg>
        <svg xmlns="http://www.w3.org/2000/svg" xmlns:xlink="http://www.w3.org/1999/xlink" width="660" height="395.109375" style="width:660px;height:395.109375px;font-family:Asana-Math, Asana;background:transparent;"><g><g><g><text x="265.90625" y="32.140625" style="white-space:pre;stroke:none;fill:rgb(224,224,224);fill-opacity:1;font-size:15px;font-family:Arial, Helvetica, sans-serif;font-weight:400;font-style:normal;dominant-baseline:text-before-edge;text-decoration:none;">Root Node</text></g></g></g><g><g><g><text x="155.28125" y="100.40625" style="white-space:pre;stroke:none;fill:rgb(224,224,224);fill-opacity:1;font-size:10.5px;font-family:Arial, Helvetica, sans-serif;font-weight:400;font-style:normal;dominant-baseline:text-before-edge;text-decoration:none;">Internal Node</text></g></g></g><g><g><g><text x="390.21875" y="100.40625" style="white-space:pre;stroke:none;fill:rgb(224,224,224);fill-opacity:1;font-size:10.5px;font-family:Arial, Helvetica, sans-serif;font-weight:400;font-style:normal;dominant-baseline:text-before-edge;text-decoration:none;">Internal Node</text></g></g></g><g><g><g><text x="93.40625" y="144" style="white-space:pre;stroke:none;fill:rgb(224,224,224);fill-opacity:1;font-size:10.5px;font-family:Arial, Helvetica, sans-serif;font-weight:400;font-style:normal;dominant-baseline:text-before-edge;text-decoration:none;">WOTS+</text></g></g><g><g><text x="81" y="158.6875" style="white-space:pre;stroke:none;fill:rgb(224,224,224);fill-opacity:1;font-size:10.5px;font-family:Arial, Helvetica, sans-serif;font-weight:400;font-style:normal;dominant-baseline:text-before-edge;text-decoration:none;">Pubkey Hash</text></g></g></g><g><g><g><text x="459.015625" y="24.140625" style="white-space:pre;stroke:none;fill:rgb(224,224,224);fill-opacity:1;font-size:15px;font-family:Arial, Helvetica, sans-serif;font-weight:400;font-style:normal;dominant-baseline:text-before-edge;text-decoration:none;">XMSS Tree</text></g></g></g><g><g><g><text x="76.890625" y="285.765625" style="white-space:pre;stroke:none;fill:rgb(224,224,224);fill-opacity:1;font-size:10.5px;font-family:Arial, Helvetica, sans-serif;font-weight:400;font-style:normal;dominant-baseline:text-before-edge;text-decoration:none;">WOTS Chains</text></g></g></g><g><g><g><text x="212.578125" y="284.765625" style="white-space:pre;stroke:none;fill:rgb(224,224,224);fill-opacity:1;font-size:10.5px;font-family:Arial, Helvetica, sans-serif;font-weight:400;font-style:normal;dominant-baseline:text-before-edge;text-decoration:none;">WOTS Chains</text></g></g></g><g><g><g><text x="324.546875" y="285.765625" style="white-space:pre;stroke:none;fill:rgb(224,224,224);fill-opacity:1;font-size:10.5px;font-family:Arial, Helvetica, sans-serif;font-weight:400;font-style:normal;dominant-baseline:text-before-edge;text-decoration:none;">WOTS Chains</text></g></g></g><g><g><g><text x="456.28125" y="285.765625" style="white-space:pre;stroke:none;fill:rgb(224,224,224);fill-opacity:1;font-size:10.5px;font-family:Arial, Helvetica, sans-serif;font-weight:400;font-style:normal;dominant-baseline:text-before-edge;text-decoration:none;">WOTS Chains</text></g></g></g><g><g><g><text x="272" y="323" style="white-space:pre;stroke:none;fill:rgb(224,224,224);fill-opacity:1;font-size:15px;font-family:Arial, Helvetica, sans-serif;font-weight:400;font-style:normal;dominant-baseline:text-before-edge;text-decoration:none;">Each of these chains can be computed</text></g></g><g><g><text x="300.484375" y="344" style="white-space:pre;stroke:none;fill:rgb(224,224,224);fill-opacity:1;font-size:15px;font-family:Arial, Helvetica, sans-serif;font-weight:400;font-style:normal;dominant-baseline:text-before-edge;text-decoration:none;">independently, thus in parallel!</text></g></g></g><g><g><g><text x="224.40625" y="142" style="white-space:pre;stroke:none;fill:rgb(224,224,224);fill-opacity:1;font-size:10.5px;font-family:Arial, Helvetica, sans-serif;font-weight:400;font-style:normal;dominant-baseline:text-before-edge;text-decoration:none;">WOTS+</text></g></g><g><g><text x="212" y="156.6875" style="white-space:pre;stroke:none;fill:rgb(224,224,224);fill-opacity:1;font-size:10.5px;font-family:Arial, Helvetica, sans-serif;font-weight:400;font-style:normal;dominant-baseline:text-before-edge;text-decoration:none;">Pubkey Hash</text></g></g></g><g><g><g><text x="338.40625" y="142" style="white-space:pre;stroke:none;fill:rgb(224,224,224);fill-opacity:1;font-size:10.5px;font-family:Arial, Helvetica, sans-serif;font-weight:400;font-style:normal;dominant-baseline:text-before-edge;text-decoration:none;">WOTS+</text></g></g><g><g><text x="326" y="156.6875" style="white-space:pre;stroke:none;fill:rgb(224,224,224);fill-opacity:1;font-size:10.5px;font-family:Arial, Helvetica, sans-serif;font-weight:400;font-style:normal;dominant-baseline:text-before-edge;text-decoration:none;">Pubkey Hash</text></g></g></g><g><g><g><text x="468.40625" y="142" style="white-space:pre;stroke:none;fill:rgb(224,224,224);fill-opacity:1;font-size:10.5px;font-family:Arial, Helvetica, sans-serif;font-weight:400;font-style:normal;dominant-baseline:text-before-edge;text-decoration:none;">WOTS+</text></g></g><g><g><text x="456" y="156.6875" style="white-space:pre;stroke:none;fill:rgb(224,224,224);fill-opacity:1;font-size:10.5px;font-family:Arial, Helvetica, sans-serif;font-weight:400;font-style:normal;dominant-baseline:text-before-edge;text-decoration:none;">Pubkey Hash</text></g></g></g></svg>
</svg>
