<svg xmlns="http://www.w3.org/2000/svg" xmlns:xlink="http://www.w3.org/1999/xlink" x="0" y="0" width="661.6000366210938" height="915.7750244140625" style="
        width:661.6000366210938px;
        height:915.7750244140625px;
        background: transparent;
        fill: none;
">
        
        
        <svg xmlns="http://www.w3.org/2000/svg" class="role-diagram-draw-area"><g class="shapes-region" style="stroke: black; fill: none;"><g class="composite-shape"><path class="real" d=" M250,24.84 C250,19.99 253.93,16.05 258.79,16.05 L341.21,16.05 C346.07,16.05 350,19.99 350,24.84 L350,51.21 C350,56.07 346.07,60 341.21,60 L258.79,60 C253.93,60 250,56.07 250,51.21 Z" style="stroke-width: 1; stroke: rgb(224, 224, 224); fill: none; fill-opacity: 1;"/></g><g class="composite-shape"><path class="real" d=" M171.66,86 C171.66,82.69 174.34,80 177.66,80 L248.99,80 C252.31,80 254.99,82.69 254.99,86 L254.99,104 C254.99,107.31 252.31,110 248.99,110 L177.66,110 C174.34,110 171.66,107.31 171.66,104 Z" style="stroke-width: 1; stroke: rgb(224, 224, 224); fill: none; fill-opacity: 1;"/></g><g class="composite-shape"><path class="real" d=" M350,86 C350,82.69 352.69,80 356,80 L427.33,80 C430.65,80 433.33,82.69 433.33,86 L433.33,104 C433.33,107.31 430.65,110 427.33,110 L356,110 C352.69,110 350,107.31 350,104 Z" style="stroke-width: 1; stroke: rgb(224, 224, 224); fill: rgb(128, 76, 246); fill-opacity: 0.48;"/></g><g class="arrow-line"><path class="connection real" stroke-dasharray="" d="  M254.99,90 C278.21,91.25 299.5,87.44 300,61.61" style="stroke: rgb(224, 224, 224); stroke-width: 1; fill: none; fill-opacity: 1;"/><g stroke="#e0e0e0" transform="matrix(0.013264113343633163,0.9999120277790478,-0.9999120277790478,0.013264113343633163,300,60)" style="stroke: rgb(224, 224, 224); stroke-width: 1;"><path d=" M10.93,-3.29 Q4.96,-0.45 0,0 Q4.96,0.45 10.93,3.29"/></g></g><g class="arrow-line"><path class="connection real" stroke-dasharray="" d="  M350,90 C329.45,90.6 301.51,87.41 300.06,61.61" style="stroke: rgb(224, 224, 224); stroke-width: 1; fill: none; fill-opacity: 1;"/><g stroke="#e0e0e0" transform="matrix(0.013264113343633163,0.9999120277790478,-0.9999120277790478,0.013264113343633163,300,60)" style="stroke: rgb(224, 224, 224); stroke-width: 1;"><path d=" M10.93,-3.29 Q4.96,-0.45 0,0 Q4.96,0.45 10.93,3.29"/></g></g><g class="composite-shape"><path class="real" d=" M131.66,137.87 C131.66,133.52 135.18,130 139.53,130 L177.13,130 C181.47,130 184.99,133.52 184.99,137.87 L184.99,161.47 C184.99,165.81 181.47,169.33 177.13,169.33 L139.53,169.33 C135.18,169.33 131.66,165.81 131.66,161.47 Z" style="stroke-width: 1; stroke: rgb(224, 224, 224); fill: rgb(128, 76, 246); fill-opacity: 0.48;"/></g><g class="composite-shape"><path class="real" d=" M231.66,138.53 C231.66,134.19 235.18,130.67 239.53,130.67 L277.13,130.67 C281.47,130.67 284.99,134.19 284.99,138.53 L284.99,162.13 C284.99,166.48 281.47,170 277.13,170 L239.53,170 C235.18,170 231.66,166.48 231.66,162.13 Z" style="stroke-width: 1; stroke: rgb(224, 224, 224); fill: none; fill-opacity: 1;"/></g><g class="arrow-line"><path class="connection real" stroke-dasharray="" d="  M184.99,140 C206,138.59 210.15,137.34 210.01,112" style="stroke: rgb(224, 224, 224); stroke-width: 1; fill: none; fill-opacity: 1;"/><g stroke="#e0e0e0" transform="matrix(0.013264113343633163,0.9999120277790478,-0.9999120277790478,0.013264113343633163,209.99175585892164,110)" style="stroke: rgb(224, 224, 224); stroke-width: 1;"><path d=" M10.93,-3.29 Q4.96,-0.45 0,0 Q4.96,0.45 10.93,3.29"/></g></g><g class="arrow-line"><path class="connection real" stroke-dasharray="" d="  M231.66,138.53 C217.06,138.61 210.68,137.15 210.03,111.79" style="stroke: rgb(224, 224, 224); stroke-width: 1; fill: none; fill-opacity: 1;"/><g stroke="#e0e0e0" transform="matrix(0.013264113343633163,0.9999120277790478,-0.9999120277790478,0.013264113343633163,209.99175585892164,109.79263583308759)" style="stroke: rgb(224, 224, 224); stroke-width: 1;"><path d=" M10.93,-3.29 Q4.96,-0.45 0,0 Q4.96,0.45 10.93,3.29"/></g></g><g class="composite-shape"><path class="real" d=" M131,198.53 C131,194.19 134.52,190.67 138.87,190.67 L176.47,190.67 C180.81,190.67 184.33,194.19 184.33,198.53 L184.33,222.13 C184.33,226.48 180.81,230 176.47,230 L138.87,230 C134.52,230 131,226.48 131,222.13 Z" style="stroke-width: 1; stroke: rgb(224, 224, 224); fill: none; fill-opacity: 1;"/></g><g class="composite-shape"><path class="real" d=" M231.66,198.33 C231.66,193.98 235.18,190.46 239.53,190.46 L277.13,190.46 C281.47,190.46 284.99,193.98 284.99,198.33 L284.99,221.93 C284.99,226.27 281.47,229.79 277.13,229.79 L239.53,229.79 C235.18,229.79 231.66,226.27 231.66,221.93 Z" style="stroke-width: 1; stroke: rgb(224, 224, 224); fill: none; fill-opacity: 1;"/></g><g class="arrow-line"><path class="connection real" stroke-dasharray="" d="  M160,190 L160,172" style="stroke: rgb(224, 224, 224); stroke-width: 1; fill: none; fill-opacity: 1;"/><g stroke="#e0e0e0" transform="matrix(3.061616997868383e-16,1,-1,3.061616997868383e-16,160,170)" style="stroke: rgb(224, 224, 224); stroke-width: 1;"><path d=" M10.93,-3.29 Q4.96,-0.45 0,0 Q4.96,0.45 10.93,3.29"/></g></g><g class="arrow-line"><path class="connection real" stroke-dasharray="" d="  M260,190 L260,172" style="stroke: rgb(224, 224, 224); stroke-width: 1; fill: none; fill-opacity: 1;"/><g stroke="#e0e0e0" transform="matrix(3.061616997868383e-16,1,-1,3.061616997868383e-16,260,170)" style="stroke: rgb(224, 224, 224); stroke-width: 1;"><path d=" M10.93,-3.29 Q4.96,-0.45 0,0 Q4.96,0.45 10.93,3.29"/></g></g><g class="composite-shape"><path class="real" d=" M218,286 C218,282.69 220.69,280 224,280 L293,280 C296.31,280 299,282.69 299,286 L299,304 C299,307.31 296.31,310 293,310 L224,310 C220.69,310 218,307.31 218,304 Z" style="stroke-width: 1; stroke: rgb(224, 224, 224); fill: none; fill-opacity: 1;"/></g><g class="composite-shape"><path class="real" d=" M130.66,336 C130.66,332.69 133.34,330 136.66,330 L207.99,330 C211.31,330 213.99,332.69 213.99,336 L213.99,354 C213.99,357.31 211.31,360 207.99,360 L136.66,360 C133.34,360 130.66,357.31 130.66,354 Z" style="stroke-width: 1; stroke: rgb(224, 224, 224); fill: rgb(128, 76, 246); fill-opacity: 0.48;"/></g><g class="composite-shape"><path class="real" d=" M309,336 C309,332.69 311.69,330 315,330 L386.33,330 C389.65,330 392.33,332.69 392.33,336 L392.33,354 C392.33,357.31 389.65,360 386.33,360 L315,360 C311.69,360 309,357.31 309,354 Z" style="stroke-width: 1; stroke: rgb(224, 224, 224); fill: none; fill-opacity: 1;"/></g><g class="arrow-line"><path class="connection real" stroke-dasharray="" d="  M213.99,340 C237.21,341.25 258.5,337.44 259,311.61" style="stroke: rgb(224, 224, 224); stroke-width: 1; fill: none; fill-opacity: 1;"/><g stroke="#e0e0e0" transform="matrix(0.013264113343633163,0.9999120277790478,-0.9999120277790478,0.013264113343633163,259,310)" style="stroke: rgb(224, 224, 224); stroke-width: 1;"><path d=" M10.93,-3.29 Q4.96,-0.45 0,0 Q4.96,0.45 10.93,3.29"/></g></g><g class="arrow-line"><path class="connection real" stroke-dasharray="" d="  M309,340 C288.45,340.6 260.51,337.41 259.06,311.61" style="stroke: rgb(224, 224, 224); stroke-width: 1; fill: none; fill-opacity: 1;"/><g stroke="#e0e0e0" transform="matrix(0.013264113343633163,0.9999120277790478,-0.9999120277790478,0.013264113343633163,259,310)" style="stroke: rgb(224, 224, 224); stroke-width: 1;"><path d=" M10.93,-3.29 Q4.96,-0.45 0,0 Q4.96,0.45 10.93,3.29"/></g></g><g class="composite-shape"><path class="real" d=" M275.67,388.07 C275.67,383.73 279.19,380.21 283.53,380.21 L321.13,380.21 C325.48,380.21 329,383.73 329,388.07 L329,411.67 C329,416.02 325.48,419.54 321.13,419.54 L283.53,419.54 C279.19,419.54 275.67,416.02 275.67,411.67 Z" style="stroke-width: 1; stroke: rgb(224, 224, 224); fill: rgb(128, 76, 246); fill-opacity: 0.48;"/></g><g class="composite-shape"><path class="real" d=" M375.67,388.74 C375.67,384.4 379.19,380.87 383.53,380.87 L421.13,380.87 C425.48,380.87 429,384.4 429,388.74 L429,412.34 C429,416.69 425.48,420.21 421.13,420.21 L383.53,420.21 C379.19,420.21 375.67,416.69 375.67,412.34 Z" style="stroke-width: 1; stroke: rgb(224, 224, 224); fill: none; fill-opacity: 1;"/></g><g class="arrow-line"><path class="connection real" stroke-dasharray="" d="  M329,390.21 C350.01,388.79 354.16,387.55 354.02,362.2" style="stroke: rgb(224, 224, 224); stroke-width: 1; fill: none; fill-opacity: 1;"/><g stroke="#e0e0e0" transform="matrix(0.013264113343633163,0.9999120277790478,-0.9999120277790478,0.013264113343633163,354,360.20736416691244)" style="stroke: rgb(224, 224, 224); stroke-width: 1;"><path d=" M10.93,-3.29 Q4.96,-0.45 0,0 Q4.96,0.45 10.93,3.29"/></g></g><g class="arrow-line"><path class="connection real" stroke-dasharray="" d="  M375.67,388.74 C361.07,388.82 354.69,387.35 354.04,362" style="stroke: rgb(224, 224, 224); stroke-width: 1; fill: none; fill-opacity: 1;"/><g stroke="#e0e0e0" transform="matrix(0.013264113343633163,0.9999120277790478,-0.9999120277790478,0.013264113343633163,354.00000000000006,360)" style="stroke: rgb(224, 224, 224); stroke-width: 1;"><path d=" M10.93,-3.29 Q4.96,-0.45 0,0 Q4.96,0.45 10.93,3.29"/></g></g><g class="composite-shape"><path class="real" d=" M275.67,447.87 C275.67,443.52 279.19,440 283.53,440 L321.13,440 C325.48,440 329,443.52 329,447.87 L329,471.47 C329,475.81 325.48,479.33 321.13,479.33 L283.53,479.33 C279.19,479.33 275.67,475.81 275.67,471.47 Z" style="stroke-width: 1; stroke: rgb(224, 224, 224); fill: none; fill-opacity: 1;"/></g><g class="composite-shape"><path class="real" d=" M375.67,448.53 C375.67,444.19 379.19,440.67 383.53,440.67 L421.13,440.67 C425.48,440.67 429,444.19 429,448.53 L429,472.13 C429,476.48 425.48,480 421.13,480 L383.53,480 C379.19,480 375.67,476.48 375.67,472.13 Z" style="stroke-width: 1; stroke: rgb(224, 224, 224); fill: none; fill-opacity: 1;"/></g><g class="arrow-line"><path class="connection real" stroke-dasharray="" d="  M303,440 L303,422" style="stroke: rgb(224, 224, 224); stroke-width: 1; fill: none; fill-opacity: 1;"/><g stroke="#e0e0e0" transform="matrix(3.061616997868383e-16,1,-1,3.061616997868383e-16,303,420)" style="stroke: rgb(224, 224, 224); stroke-width: 1;"><path d=" M10.93,-3.29 Q4.96,-0.45 0,0 Q4.96,0.45 10.93,3.29"/></g></g><g class="arrow-line"><path class="connection real" stroke-dasharray="" d="  M402,440 L402,422" style="stroke: rgb(224, 224, 224); stroke-width: 1; fill: none; fill-opacity: 1;"/><g stroke="#e0e0e0" transform="matrix(3.061616997868383e-16,1,-1,3.061616997868383e-16,402,420)" style="stroke: rgb(224, 224, 224); stroke-width: 1;"><path d=" M10.93,-3.29 Q4.96,-0.45 0,0 Q4.96,0.45 10.93,3.29"/></g></g><g class="arrow-line"><path class="connection real" stroke-dasharray="" d="  M260,230 L260,278" style="stroke: rgb(128, 76, 246); stroke-opacity: 1; stroke-width: 1; fill: none; fill-opacity: 1;"/><g stroke="rgb(128,76,246)" stroke-opacity="1" transform="matrix(-1.8369701987210297e-16,-1,1,-1.8369701987210297e-16,260,279.99999999999994)" style="stroke: rgb(128, 76, 246); stroke-width: 1;"><path d=" M10.93,-3.29 Q4.96,-0.45 0,0 Q4.96,0.45 10.93,3.29"/></g></g><g class="composite-shape"><path class="real" d=" M363,557 C363,553.69 365.69,551 369,551 L438,551 C441.31,551 444,553.69 444,557 L444,575 C444,578.31 441.31,581 438,581 L369,581 C365.69,581 363,578.31 363,575 Z" style="stroke-width: 1; stroke: rgb(224, 224, 224); fill: none; fill-opacity: 1;"/></g><g class="composite-shape"><path class="real" d=" M275.66,607 C275.66,603.69 278.34,601 281.66,601 L352.99,601 C356.31,601 358.99,603.69 358.99,607 L358.99,625 C358.99,628.31 356.31,631 352.99,631 L281.66,631 C278.34,631 275.66,628.31 275.66,625 Z" style="stroke-width: 1; stroke: rgb(224, 224, 224); fill: none; fill-opacity: 1;"/></g><g class="composite-shape"><path class="real" d=" M454,607 C454,603.69 456.69,601 460,601 L531.33,601 C534.65,601 537.33,603.69 537.33,607 L537.33,625 C537.33,628.31 534.65,631 531.33,631 L460,631 C456.69,631 454,628.31 454,625 Z" style="stroke-width: 1; stroke: rgb(224, 224, 224); fill: rgb(128, 76, 246); fill-opacity: 0.48;"/></g><g class="arrow-line"><path class="connection real" stroke-dasharray="" d="  M358.99,611 C382.21,612.25 403.5,608.44 404,582.61" style="stroke: rgb(224, 224, 224); stroke-width: 1; fill: none; fill-opacity: 1;"/><g stroke="#e0e0e0" transform="matrix(0.013264113343633163,0.9999120277790478,-0.9999120277790478,0.013264113343633163,404,581)" style="stroke: rgb(224, 224, 224); stroke-width: 1;"><path d=" M10.93,-3.29 Q4.96,-0.45 0,0 Q4.96,0.45 10.93,3.29"/></g></g><g class="arrow-line"><path class="connection real" stroke-dasharray="" d="  M454,611 C433.45,611.6 405.51,608.41 404.06,582.61" style="stroke: rgb(224, 224, 224); stroke-width: 1; fill: none; fill-opacity: 1;"/><g stroke="#e0e0e0" transform="matrix(0.013264113343633163,0.9999120277790478,-0.9999120277790478,0.013264113343633163,404,581)" style="stroke: rgb(224, 224, 224); stroke-width: 1;"><path d=" M10.93,-3.29 Q4.96,-0.45 0,0 Q4.96,0.45 10.93,3.29"/></g></g><g class="composite-shape"><path class="real" d=" M235.66,658.87 C235.66,654.52 239.18,651 243.53,651 L281.13,651 C285.47,651 288.99,654.52 288.99,658.87 L288.99,682.47 C288.99,686.81 285.47,690.33 281.13,690.33 L243.53,690.33 C239.18,690.33 235.66,686.81 235.66,682.47 Z" style="stroke-width: 1; stroke: rgb(224, 224, 224); fill: rgb(128, 76, 246); fill-opacity: 0.48;"/></g><g class="composite-shape"><path class="real" d=" M335.66,659.53 C335.66,655.19 339.18,651.67 343.53,651.67 L381.13,651.67 C385.47,651.67 388.99,655.19 388.99,659.53 L388.99,683.13 C388.99,687.48 385.47,691 381.13,691 L343.53,691 C339.18,691 335.66,687.48 335.66,683.13 Z" style="stroke-width: 1; stroke: rgb(224, 224, 224); fill: none; fill-opacity: 1;"/></g><g class="arrow-line"><path class="connection real" stroke-dasharray="" d="  M288.99,661 C310,659.59 314.15,658.34 314.01,633" style="stroke: rgb(224, 224, 224); stroke-width: 1; fill: none; fill-opacity: 1;"/><g stroke="#e0e0e0" transform="matrix(0.013264113343633163,0.9999120277790478,-0.9999120277790478,0.013264113343633163,313.9917558589217,631)" style="stroke: rgb(224, 224, 224); stroke-width: 1;"><path d=" M10.93,-3.29 Q4.96,-0.45 0,0 Q4.96,0.45 10.93,3.29"/></g></g><g class="arrow-line"><path class="connection real" stroke-dasharray="" d="  M335.66,659.53 C321.06,659.61 314.68,658.15 314.03,632.79" style="stroke: rgb(224, 224, 224); stroke-width: 1; fill: none; fill-opacity: 1;"/><g stroke="#e0e0e0" transform="matrix(0.013264113343633163,0.9999120277790478,-0.9999120277790478,0.013264113343633163,313.9917558589217,630.7926358330876)" style="stroke: rgb(224, 224, 224); stroke-width: 1;"><path d=" M10.93,-3.29 Q4.96,-0.45 0,0 Q4.96,0.45 10.93,3.29"/></g></g><g class="composite-shape"><path class="real" d=" M235,719.53 C235,715.19 238.52,711.67 242.87,711.67 L280.47,711.67 C284.81,711.67 288.33,715.19 288.33,719.53 L288.33,743.13 C288.33,747.48 284.81,751 280.47,751 L242.87,751 C238.52,751 235,747.48 235,743.13 Z" style="stroke-width: 1; stroke: rgb(224, 224, 224); fill: none; fill-opacity: 1;"/></g><g class="composite-shape"><path class="real" d=" M335.66,719.33 C335.66,714.98 339.18,711.46 343.53,711.46 L381.13,711.46 C385.47,711.46 388.99,714.98 388.99,719.33 L388.99,742.93 C388.99,747.27 385.47,750.79 381.13,750.79 L343.53,750.79 C339.18,750.79 335.66,747.27 335.66,742.93 Z" style="stroke-width: 1; stroke: rgb(224, 224, 224); fill: none; fill-opacity: 1;"/></g><g class="arrow-line"><path class="connection real" stroke-dasharray="" d="  M264,711 L264,693" style="stroke: rgb(224, 224, 224); stroke-width: 1; fill: none; fill-opacity: 1;"/><g stroke="#e0e0e0" transform="matrix(3.061616997868383e-16,1,-1,3.061616997868383e-16,264,691)" style="stroke: rgb(224, 224, 224); stroke-width: 1;"><path d=" M10.93,-3.29 Q4.96,-0.45 0,0 Q4.96,0.45 10.93,3.29"/></g></g><g class="arrow-line"><path class="connection real" stroke-dasharray="" d="  M364,711 L364,693" style="stroke: rgb(224, 224, 224); stroke-width: 1; fill: none; fill-opacity: 1;"/><g stroke="#e0e0e0" transform="matrix(3.061616997868383e-16,1,-1,3.061616997868383e-16,364.0000000000001,691)" style="stroke: rgb(224, 224, 224); stroke-width: 1;"><path d=" M10.93,-3.29 Q4.96,-0.45 0,0 Q4.96,0.45 10.93,3.29"/></g></g><g class="arrow-line"><path class="connection real" stroke-dasharray="" d="  M404,480 L404,548" style="stroke: rgb(128, 76, 246); stroke-opacity: 1; stroke-width: 1; fill: none; fill-opacity: 1;"/><g stroke="rgb(128,76,246)" stroke-opacity="1" transform="matrix(-1.8369701987210297e-16,-1,1,-1.8369701987210297e-16,404,550)" style="stroke: rgb(128, 76, 246); stroke-width: 1;"><path d=" M10.93,-3.29 Q4.96,-0.45 0,0 Q4.96,0.45 10.93,3.29"/></g></g><g class="composite-shape"><path class="real" d=" M336.67,807.87 C336.67,803.52 340.19,800 344.53,800 L382.13,800 C386.48,800 390,803.52 390,807.87 L390,831.47 C390,835.81 386.48,839.33 382.13,839.33 L344.53,839.33 C340.19,839.33 336.67,835.81 336.67,831.47 Z" style="stroke-width: 1; stroke: rgb(224, 224, 224); fill: none; fill-opacity: 1;"/></g><g class="arrow-line"><path class="connection real" stroke-dasharray="" d="  M363,751 L363,798" style="stroke: rgb(128, 76, 246); stroke-opacity: 1; stroke-width: 1; fill: none; fill-opacity: 1;"/><g stroke="rgb(128,76,246)" stroke-opacity="1" transform="matrix(-1.8369701987210297e-16,-1,1,-1.8369701987210297e-16,363,800)" style="stroke: rgb(128, 76, 246); stroke-width: 1;"><path d=" M10.93,-3.29 Q4.96,-0.45 0,0 Q4.96,0.45 10.93,3.29"/></g></g><g class="composite-shape"><path class="real" d=" M505,860 L470,860 L470,790 L520,790 L520,845 Z L505,860" style="stroke-width: 1; stroke: rgb(224, 224, 224); fill: none; fill-opacity: 1;"/><path class="real" d=" M520,845 L508,848 L505,860" style="stroke-width: 1; stroke: rgb(224, 224, 224); fill: none; fill-opacity: 1;"/></g><g class="arrow-line"><path class="connection real" stroke-dasharray="" d="  M390,820 L468,820" style="stroke: rgb(128, 76, 246); stroke-opacity: 1; stroke-width: 1; fill: none; fill-opacity: 1;"/><g stroke="rgb(128,76,246)" stroke-opacity="1" transform="matrix(-1,1.2246467991473532e-16,-1.2246467991473532e-16,-1,470,820.0000000000001)" style="stroke: rgb(128, 76, 246); stroke-width: 1;"><path d=" M10.93,-3.29 Q4.96,-0.45 0,0 Q4.96,0.45 10.93,3.29"/></g></g><g class="composite-shape"><path class="real" d=" M14.67,576 C14.67,567.16 21.83,560 30.67,560 L142,560 C150.84,560 158,567.16 158,576 L158,624 C158,632.84 150.84,640 142,640 L30.67,640 C21.83,640 14.67,632.84 14.67,624 Z" style="stroke-width: 1; stroke: rgb(224, 224, 224); fill: rgb(128, 76, 246); fill-opacity: 0.48;"/></g><g class="composite-shape"><path class="real" d=" M100,10 L500,10 L500,240 L100,240 Z" style="stroke-width: 1; stroke: rgb(224, 224, 224); fill: none; fill-opacity: 1; stroke-dasharray: 1.125, 3.35;"/></g><g class="composite-shape"><path class="real" d=" M70,270 L450,270 L450,490 L70,490 Z" style="stroke-width: 1; stroke: rgb(224, 224, 224); fill: none; fill-opacity: 1; stroke-dasharray: 1.125, 3.35;"/></g><g class="composite-shape"><path class="real" d=" M210,530 L600,530 L600,760 L210,760 Z" style="stroke-width: 1; stroke: rgb(224, 224, 224); fill: none; fill-opacity: 1; stroke-dasharray: 1.125, 3.35;"/></g><g/></g><g/><g/><g/></svg>
        <svg xmlns="http://www.w3.org/2000/svg" xmlns:xlink="http://www.w3.org/1999/xlink" width="660" height="914.1749877929688" style="width:660px;height:914.1749877929688px;font-family:Asana-Math, Asana;background:transparent;"><g><g><g><text x="273.8000183105469" y="22.599990844726562" style="white-space:pre;stroke:none;fill:rgb(224,224,224);fill-opacity:1;font-size:12px;font-family:Arial, Helvetica, sans-serif;font-weight:400;font-style:normal;dominant-baseline:text-before-edge;text-decoration:none;">SPHINCS</text></g></g><g><g><text x="281.125" y="37.59999084472656" style="white-space:pre;stroke:none;fill:rgb(224,224,224);fill-opacity:1;font-size:12px;font-family:Arial, Helvetica, sans-serif;font-weight:400;font-style:normal;dominant-baseline:text-before-edge;text-decoration:none;">pubkey</text></g></g></g><g><g><g><text x="182.78750610351562" y="88.59999084472656" style="white-space:pre;stroke:none;fill:rgb(224,224,224);fill-opacity:1;font-size:10.5px;font-family:Arial, Helvetica, sans-serif;font-weight:400;font-style:normal;dominant-baseline:text-before-edge;text-decoration:none;">Internal Node</text></g></g></g><g><g><g><text x="369.79998779296875" y="88.59999084472656" style="white-space:pre;stroke:none;fill:rgb(224,224,224);fill-opacity:1;font-size:10.5px;font-family:Arial, Helvetica, sans-serif;font-weight:400;font-style:normal;dominant-baseline:text-before-edge;text-decoration:none;">Surrogate</text></g></g></g><g><g><g><text x="140.45001220703125" y="136.92498779296875" style="white-space:pre;stroke:none;fill:rgb(224,224,224);fill-opacity:1;font-size:10.5px;font-family:Arial, Helvetica, sans-serif;font-weight:400;font-style:normal;dominant-baseline:text-before-edge;text-decoration:none;">Pubkey</text></g></g><g><g><text x="145.70001220703125" y="151.62499237060547" style="white-space:pre;stroke:none;fill:rgb(224,224,224);fill-opacity:1;font-size:10.5px;font-family:Arial, Helvetica, sans-serif;font-weight:400;font-style:normal;dominant-baseline:text-before-edge;text-decoration:none;">Hash</text></g></g></g><g><g><g><text x="139.80001831054688" y="197.59999084472656" style="white-space:pre;stroke:none;fill:rgb(224,224,224);fill-opacity:1;font-size:10.5px;font-family:Arial, Helvetica, sans-serif;font-weight:400;font-style:normal;dominant-baseline:text-before-edge;text-decoration:none;">WOTS+</text></g></g><g><g><text x="141.10000610351562" y="212.29999160766602" style="white-space:pre;stroke:none;fill:rgb(224,224,224);fill-opacity:1;font-size:10.5px;font-family:Arial, Helvetica, sans-serif;font-weight:400;font-style:normal;dominant-baseline:text-before-edge;text-decoration:none;">Pubkey</text></g></g></g><g><g><g><text x="240.45001220703125" y="197.38748931884766" style="white-space:pre;stroke:none;fill:rgb(224,224,224);fill-opacity:1;font-size:10.5px;font-family:Arial, Helvetica, sans-serif;font-weight:400;font-style:normal;dominant-baseline:text-before-edge;text-decoration:none;">WOTS+</text></g></g><g><g><text x="241.75" y="212.08749389648438" style="white-space:pre;stroke:none;fill:rgb(224,224,224);fill-opacity:1;font-size:10.5px;font-family:Arial, Helvetica, sans-serif;font-weight:400;font-style:normal;dominant-baseline:text-before-edge;text-decoration:none;">Pubkey</text></g></g></g><g><g><g><text x="239.80001831054688" y="136.59999084472656" style="white-space:pre;stroke:none;fill:rgb(224,224,224);fill-opacity:1;font-size:10.5px;font-family:Arial, Helvetica, sans-serif;font-weight:400;font-style:normal;dominant-baseline:text-before-edge;text-decoration:none;">Pubkey</text></g></g><g><g><text x="245.05001831054688" y="151.29999542236328" style="white-space:pre;stroke:none;fill:rgb(224,224,224);fill-opacity:1;font-size:10.5px;font-family:Arial, Helvetica, sans-serif;font-weight:400;font-style:normal;dominant-baseline:text-before-edge;text-decoration:none;">Hash</text></g></g></g><g><g><g><text x="229.80001831054688" y="288.9999942779541" style="white-space:pre;stroke:none;fill:rgb(224,224,224);fill-opacity:1;font-size:12px;font-family:Arial, Helvetica, sans-serif;font-weight:400;font-style:normal;dominant-baseline:text-before-edge;text-decoration:none;">Root Node</text></g></g></g><g><g><g><text x="149.78750610351562" y="338.5999984741211" style="white-space:pre;stroke:none;fill:rgb(224,224,224);fill-opacity:1;font-size:10.5px;font-family:Arial, Helvetica, sans-serif;font-weight:400;font-style:normal;dominant-baseline:text-before-edge;text-decoration:none;">Surrogate</text></g></g></g><g><g><g><text x="320.125" y="338.5999984741211" style="white-space:pre;stroke:none;fill:rgb(224,224,224);fill-opacity:1;font-size:10.5px;font-family:Arial, Helvetica, sans-serif;font-weight:400;font-style:normal;dominant-baseline:text-before-edge;text-decoration:none;">Internal Node</text></g></g></g><g><g><g><text x="284.4624938964844" y="446.9250030517578" style="white-space:pre;stroke:none;fill:rgb(224,224,224);fill-opacity:1;font-size:10.5px;font-family:Arial, Helvetica, sans-serif;font-weight:400;font-style:normal;dominant-baseline:text-before-edge;text-decoration:none;">WOTS+</text></g></g><g><g><text x="285.76251220703125" y="461.625" style="white-space:pre;stroke:none;fill:rgb(224,224,224);fill-opacity:1;font-size:10.5px;font-family:Arial, Helvetica, sans-serif;font-weight:400;font-style:normal;dominant-baseline:text-before-edge;text-decoration:none;">Pubkey</text></g></g></g><g><g><g><text x="384.4625244140625" y="447.59999084472656" style="white-space:pre;stroke:none;fill:rgb(224,224,224);fill-opacity:1;font-size:10.5px;font-family:Arial, Helvetica, sans-serif;font-weight:400;font-style:normal;dominant-baseline:text-before-edge;text-decoration:none;">WOTS+</text></g></g><g><g><text x="385.76251220703125" y="462.3000030517578" style="white-space:pre;stroke:none;fill:rgb(224,224,224);fill-opacity:1;font-size:10.5px;font-family:Arial, Helvetica, sans-serif;font-weight:400;font-style:normal;dominant-baseline:text-before-edge;text-decoration:none;">Pubkey</text></g></g></g><g><g><g><text x="284.8000183105469" y="387.5999984741211" style="white-space:pre;stroke:none;fill:rgb(224,224,224);fill-opacity:1;font-size:10.5px;font-family:Arial, Helvetica, sans-serif;font-weight:400;font-style:normal;dominant-baseline:text-before-edge;text-decoration:none;">Pubkey</text></g></g><g><g><text x="290.0500183105469" y="402.3000030517578" style="white-space:pre;stroke:none;fill:rgb(224,224,224);fill-opacity:1;font-size:10.5px;font-family:Arial, Helvetica, sans-serif;font-weight:400;font-style:normal;dominant-baseline:text-before-edge;text-decoration:none;">Hash</text></g></g></g><g><g><g><text x="384.79998779296875" y="388.5999984741211" style="white-space:pre;stroke:none;fill:rgb(224,224,224);fill-opacity:1;font-size:10.5px;font-family:Arial, Helvetica, sans-serif;font-weight:400;font-style:normal;dominant-baseline:text-before-edge;text-decoration:none;">Pubkey</text></g></g><g><g><text x="390.04998779296875" y="403.3000030517578" style="white-space:pre;stroke:none;fill:rgb(224,224,224);fill-opacity:1;font-size:10.5px;font-family:Arial, Helvetica, sans-serif;font-weight:400;font-style:normal;dominant-baseline:text-before-edge;text-decoration:none;">Hash</text></g></g></g><g><g><g><text x="374.79998779296875" y="560" style="white-space:pre;stroke:none;fill:rgb(224,224,224);fill-opacity:1;font-size:12px;font-family:Arial, Helvetica, sans-serif;font-weight:400;font-style:normal;dominant-baseline:text-before-edge;text-decoration:none;">Root Node</text></g></g></g><g><g><g><text x="286.7875061035156" y="609.6000061035156" style="white-space:pre;stroke:none;fill:rgb(224,224,224);fill-opacity:1;font-size:10.5px;font-family:Arial, Helvetica, sans-serif;font-weight:400;font-style:normal;dominant-baseline:text-before-edge;text-decoration:none;">Internal Node</text></g></g></g><g><g><g><text x="474.79998779296875" y="610.6000061035156" style="white-space:pre;stroke:none;fill:rgb(224,224,224);fill-opacity:1;font-size:10.5px;font-family:Arial, Helvetica, sans-serif;font-weight:400;font-style:normal;dominant-baseline:text-before-edge;text-decoration:none;">Surrogate</text></g></g></g><g><g><g><text x="244.45001220703125" y="657.9249877929688" style="white-space:pre;stroke:none;fill:rgb(224,224,224);fill-opacity:1;font-size:10.5px;font-family:Arial, Helvetica, sans-serif;font-weight:400;font-style:normal;dominant-baseline:text-before-edge;text-decoration:none;">Pubkey</text></g></g><g><g><text x="249.70001220703125" y="672.625" style="white-space:pre;stroke:none;fill:rgb(224,224,224);fill-opacity:1;font-size:10.5px;font-family:Arial, Helvetica, sans-serif;font-weight:400;font-style:normal;dominant-baseline:text-before-edge;text-decoration:none;">Hash</text></g></g></g><g><g><g><text x="243.80001831054688" y="718.6000061035156" style="white-space:pre;stroke:none;fill:rgb(224,224,224);fill-opacity:1;font-size:10.5px;font-family:Arial, Helvetica, sans-serif;font-weight:400;font-style:normal;dominant-baseline:text-before-edge;text-decoration:none;">WOTS+</text></g></g><g><g><text x="245.10000610351562" y="733.2999877929688" style="white-space:pre;stroke:none;fill:rgb(224,224,224);fill-opacity:1;font-size:10.5px;font-family:Arial, Helvetica, sans-serif;font-weight:400;font-style:normal;dominant-baseline:text-before-edge;text-decoration:none;">Pubkey</text></g></g></g><g><g><g><text x="344.45001220703125" y="718.3875122070312" style="white-space:pre;stroke:none;fill:rgb(224,224,224);fill-opacity:1;font-size:10.5px;font-family:Arial, Helvetica, sans-serif;font-weight:400;font-style:normal;dominant-baseline:text-before-edge;text-decoration:none;">WOTS+</text></g></g><g><g><text x="345.75" y="733.0874938964844" style="white-space:pre;stroke:none;fill:rgb(224,224,224);fill-opacity:1;font-size:10.5px;font-family:Arial, Helvetica, sans-serif;font-weight:400;font-style:normal;dominant-baseline:text-before-edge;text-decoration:none;">Pubkey</text></g></g></g><g><g><g><text x="343.8000183105469" y="657.6000061035156" style="white-space:pre;stroke:none;fill:rgb(224,224,224);fill-opacity:1;font-size:10.5px;font-family:Arial, Helvetica, sans-serif;font-weight:400;font-style:normal;dominant-baseline:text-before-edge;text-decoration:none;">Pubkey</text></g></g><g><g><text x="349.04998779296875" y="672.2999877929688" style="white-space:pre;stroke:none;fill:rgb(224,224,224);fill-opacity:1;font-size:10.5px;font-family:Arial, Helvetica, sans-serif;font-weight:400;font-style:normal;dominant-baseline:text-before-edge;text-decoration:none;">Hash</text></g></g></g><g><g><g><text x="348.38751220703125" y="806.9250183105469" style="white-space:pre;stroke:none;fill:rgb(224,224,224);fill-opacity:1;font-size:10.5px;font-family:Arial, Helvetica, sans-serif;font-weight:400;font-style:normal;dominant-baseline:text-before-edge;text-decoration:none;">FORS</text></g></g><g><g><text x="345.4624938964844" y="821.6250305175781" style="white-space:pre;stroke:none;fill:rgb(224,224,224);fill-opacity:1;font-size:10.5px;font-family:Arial, Helvetica, sans-serif;font-weight:400;font-style:normal;dominant-baseline:text-before-edge;text-decoration:none;">Pubkey</text></g></g></g><g><g><g><text x="261.8000183105469" y="249.19999313354492" style="white-space:pre;stroke:none;fill:rgb(224,224,224);fill-opacity:1;font-size:7.35px;font-family:Arial, Helvetica, sans-serif;font-weight:400;font-style:normal;dominant-baseline:text-before-edge;text-decoration:none;">WOTS+ certification</text></g></g><g><g><text x="279.4250183105469" y="259.7499933242798" style="white-space:pre;stroke:none;fill:rgb(224,224,224);fill-opacity:1;font-size:7.35px;font-family:Arial, Helvetica, sans-serif;font-weight:400;font-style:normal;dominant-baseline:text-before-edge;text-decoration:none;">signature</text></g></g></g><g><g><g><text x="407.79998779296875" y="504.1999969482422" style="white-space:pre;stroke:none;fill:rgb(224,224,224);fill-opacity:1;font-size:7.35px;font-family:Arial, Helvetica, sans-serif;font-weight:400;font-style:normal;dominant-baseline:text-before-edge;text-decoration:none;">WOTS+ certification</text></g></g><g><g><text x="425.42498779296875" y="514.75" style="white-space:pre;stroke:none;fill:rgb(224,224,224);fill-opacity:1;font-size:7.35px;font-family:Arial, Helvetica, sans-serif;font-weight:400;font-style:normal;dominant-baseline:text-before-edge;text-decoration:none;">signature</text></g></g></g><g><g><g><text x="365.79998779296875" y="771.2000122070312" style="white-space:pre;stroke:none;fill:rgb(224,224,224);fill-opacity:1;font-size:7.35px;font-family:Arial, Helvetica, sans-serif;font-weight:400;font-style:normal;dominant-baseline:text-before-edge;text-decoration:none;">WOTS+ certification</text></g></g><g><g><text x="383.42498779296875" y="781.75" style="white-space:pre;stroke:none;fill:rgb(224,224,224);fill-opacity:1;font-size:7.35px;font-family:Arial, Helvetica, sans-serif;font-weight:400;font-style:normal;dominant-baseline:text-before-edge;text-decoration:none;">signature</text></g></g></g><g><g><g><text x="480.0875244140625" y="812.9875183105469" style="white-space:pre;stroke:none;fill:rgb(224,224,224);fill-opacity:1;font-size:10.5px;font-family:Arial, Helvetica, sans-serif;font-weight:400;font-style:normal;dominant-baseline:text-before-edge;text-decoration:none;">actual</text></g></g><g><g><text x="472.79998779296875" y="823.4875183105469" style="white-space:pre;stroke:none;fill:rgb(224,224,224);fill-opacity:1;font-size:10.5px;font-family:Arial, Helvetica, sans-serif;font-weight:400;font-style:normal;dominant-baseline:text-before-edge;text-decoration:none;">message</text></g></g></g><g><g><g><text x="401.79998779296875" y="829.0000305175781" style="white-space:pre;stroke:none;fill:rgb(224,224,224);fill-opacity:1;font-size:7.5px;font-family:Arial, Helvetica, sans-serif;font-weight:400;font-style:normal;dominant-baseline:text-before-edge;text-decoration:none;">final message</text></g></g><g><g><text x="409.48748779296875" y="836.5000305175781" style="white-space:pre;stroke:none;fill:rgb(224,224,224);fill-opacity:1;font-size:7.5px;font-family:Arial, Helvetica, sans-serif;font-weight:400;font-style:normal;dominant-baseline:text-before-edge;text-decoration:none;">signature</text></g></g></g><g><g><g><text x="39.65000915527344" y="576.6000061035156" style="white-space:pre;stroke:none;fill:rgb(224,224,224);fill-opacity:1;font-size:10.5px;font-family:Arial, Helvetica, sans-serif;font-weight:400;font-style:normal;dominant-baseline:text-before-edge;text-decoration:none;">Colored nodes and</text></g></g><g><g><text x="24.800003051757812" y="591.2999877929688" style="white-space:pre;stroke:none;fill:rgb(224,224,224);fill-opacity:1;font-size:10.5px;font-family:Arial, Helvetica, sans-serif;font-weight:400;font-style:normal;dominant-baseline:text-before-edge;text-decoration:none;">lines are revealed to form</text></g></g><g><g><text x="28.875" y="606" style="white-space:pre;stroke:none;fill:rgb(224,224,224);fill-opacity:1;font-size:10.5px;font-family:Arial, Helvetica, sans-serif;font-weight:400;font-style:normal;dominant-baseline:text-before-edge;text-decoration:none;">the SPHINCS signature</text></g></g></g><g><g><g><text x="411.79998779296875" y="21.399993896484375" style="white-space:pre;stroke:none;fill:rgb(224,224,224);fill-opacity:1;font-size:15px;font-family:Arial, Helvetica, sans-serif;font-weight:400;font-style:normal;dominant-baseline:text-before-edge;text-decoration:none;">Root Tree</text></g></g></g><g><g><g><text x="348.79998779296875" y="282.79999446868896" style="white-space:pre;stroke:none;fill:rgb(224,224,224);fill-opacity:1;font-size:12px;font-family:Arial, Helvetica, sans-serif;font-weight:400;font-style:normal;dominant-baseline:text-before-edge;text-decoration:none;">Intermediate Tree</text></g></g></g><g><g><g><text x="497.375" y="541.6749877929688" style="white-space:pre;stroke:none;fill:rgb(224,224,224);fill-opacity:1;font-size:12px;font-family:Arial, Helvetica, sans-serif;font-weight:400;font-style:normal;dominant-baseline:text-before-edge;text-decoration:none;">Bottom-level Tree</text></g></g></g></svg>
</svg>
