<svg xmlns="http://www.w3.org/2000/svg" xmlns:xlink="http://www.w3.org/1999/xlink" x="0" y="0" width="661.8333740234375" height="882.6666870117188" style="
        width:661.8333740234375px;
        height:882.6666870117188px;
        background: transparent;
        fill: none;
">
        
        
        <svg xmlns="http://www.w3.org/2000/svg" class="role-diagram-draw-area"><g class="shapes-region" style="stroke: black; fill: none;"><g class="composite-shape"><path class="real" d=" M12,26.83 L69.08,26.83 L69.08,112.69 L12,112.69 Z" style="stroke-width: 1px; stroke: rgb(224, 224, 224); fill: none; fill-opacity: 1;"/></g><g class="composite-shape"><path class="real" d=" M25.33,64.52 L56.63,64.52 L56.63,89.67 L25.33,89.67 Z" style="stroke-width: 1px; stroke: rgb(224, 224, 224); fill: none; fill-opacity: 1;"/></g><g class="composite-shape"><path class="real" d=" M6,20.33 L75.08,20.33 L75.08,119.19 L6,119.19 Z" style="stroke-width: 1px; stroke: rgb(224, 224, 224); fill: none; fill-opacity: 1;"/></g><g class="composite-shape"><path class="real" d=" M251.74,24 L333.3,24 L333.3,100.52 L251.74,100.52 Z" style="stroke-width: 1px; stroke: rgb(224, 224, 224); fill: none; fill-opacity: 1;"/></g><g class="composite-shape"><path class="real" d=" M268.67,61.73 L299.97,61.73 L299.97,85.19 L268.67,85.19 Z" style="stroke-width: 1px; stroke: rgb(224, 224, 224); fill: none; fill-opacity: 1;"/></g><g class="composite-shape"><path class="real" d=" M243.08,19 L339.97,19 L339.97,109.19 L243.08,109.19 Z" style="stroke-width: 1px; stroke: rgb(224, 224, 224); fill: none; fill-opacity: 1;"/></g><g class="arrow-line"><path class="connection real" stroke-dasharray="" d="  M56.41,74.52 L240.41,74.52" style="stroke: rgb(224, 224, 224); stroke-width: 1px; fill: none; fill-opacity: 1;"/><g stroke="#e0e0e0" transform="matrix(-1,1.2246467991473532e-16,-1.2246467991473532e-16,-1,242.4111124674479,74.52222696940103)" style="stroke: rgb(224, 224, 224); stroke-width: 1px;"><path d=" M10.93,-3.29 Q4.96,-0.45 0,0 Q4.96,0.45 10.93,3.29"/></g></g><g class="arrow-line"><path class="connection real" stroke-dasharray="" d="  M173.24,74.52 L173.16,317.71" style="stroke: rgb(224, 224, 224); stroke-width: 1px; fill: none; fill-opacity: 1;"/></g><g class="composite-shape"><path class="real" d=" M251.97,277.67 L332.63,277.67 L332.63,354.19 L251.97,354.19 Z" style="stroke-width: 1px; stroke: rgb(224, 224, 224); fill: none; fill-opacity: 1;"/></g><g class="composite-shape"><path class="real" d=" M268,315.4 L299.3,315.4 L299.3,338.86 L268,338.86 Z" style="stroke-width: 1px; stroke: rgb(224, 224, 224); fill: none; fill-opacity: 1;"/></g><g class="composite-shape"><path class="real" d=" M244.63,272.67 L339.3,272.67 L339.3,362.86 L244.63,362.86 Z" style="stroke-width: 1px; stroke: rgb(224, 224, 224); fill: none; fill-opacity: 1;"/></g><g class="arrow-line"><path class="connection real" stroke-dasharray="" d="  M173.16,317.71 L242.63,318.18" style="stroke: rgb(224, 224, 224); stroke-width: 1px; fill: none; fill-opacity: 1;"/><g stroke="#e0e0e0" transform="matrix(-0.9999780067029094,-0.006632202535817041,0.006632202535817041,-0.9999780067029094,244.63333129882818,318.18889363606775)" style="stroke: rgb(224, 224, 224); stroke-width: 1px;"><path d=" M10.93,-3.29 Q4.96,-0.45 0,0 Q4.96,0.45 10.93,3.29"/></g></g><g class="composite-shape"><path class="real" d=" M493.3,12.67 L563.97,12.67 L563.97,120.52 L493.3,120.52 Z" style="stroke-width: 1px; stroke: rgb(224, 224, 224); fill: none; fill-opacity: 1;"/></g><g class="composite-shape"><path class="real" d=" M512,50.4 L543.3,50.4 L543.3,73.86 L512,73.86 Z" style="stroke-width: 1px; stroke: rgb(224, 224, 224); fill: none; fill-opacity: 1;"/></g><g class="composite-shape"><path class="real" d=" M513.33,83.73 L544.63,83.73 L544.63,107.19 L513.33,107.19 Z" style="stroke-width: 1px; stroke: rgb(224, 224, 224); fill: none; fill-opacity: 1;"/></g><g class="composite-shape"><path class="real" d=" M491.97,259 L562.63,259 L562.63,366.86 L491.97,366.86 Z" style="stroke-width: 1px; stroke: rgb(224, 224, 224); fill: none; fill-opacity: 1;"/></g><g class="composite-shape"><path class="real" d=" M510.67,296.73 L541.97,296.73 L541.97,320.19 L510.67,320.19 Z" style="stroke-width: 1px; stroke: rgb(224, 224, 224); fill: none; fill-opacity: 1;"/></g><g class="composite-shape"><path class="real" d=" M512,330.06 L543.3,330.06 L543.3,353.52 L512,353.52 Z" style="stroke-width: 1px; stroke: rgb(224, 224, 224); fill: none; fill-opacity: 1;"/></g><g class="arrow-line"><path class="connection real" stroke-dasharray="" d="  M298.67,327.33 L489.91,326.86" style="stroke: rgb(224, 224, 224); stroke-width: 1px; fill: none; fill-opacity: 1;"/><g stroke="#e0e0e0" transform="matrix(-0.9999970147507714,0.0024434585213451514,-0.0024434585213451514,-0.9999970147507714,491.91111246744794,326.85556030273443)" style="stroke: rgb(224, 224, 224); stroke-width: 1px;"><path d=" M10.93,-3.29 Q4.96,-0.45 0,0 Q4.96,0.45 10.93,3.29"/></g></g><g class="arrow-line"><path class="connection real" stroke-dasharray="" d="  M544.63,64.52 L581.74,64.52" style="stroke: rgb(224, 224, 224); stroke-width: 1px; fill: none; fill-opacity: 1;"/></g><g class="arrow-line"><path class="connection real" stroke-dasharray="" d="  M544.63,96.52 L581.74,96.52" style="stroke: rgb(224, 224, 224); stroke-width: 1px; fill: none; fill-opacity: 1;"/></g><g class="arrow-line"><path class="connection real" stroke-dasharray="" d="  M542.06,310.86 L579.17,310.86" style="stroke: rgb(224, 224, 224); stroke-width: 1px; fill: none; fill-opacity: 1;"/></g><g class="composite-shape"><path class="real" d=" M578.76,334.72 C578.76,331.48 581.38,328.86 584.62,328.86 L631.3,328.86 C634.54,328.86 637.17,331.48 637.17,334.72 L637.17,352.32 C637.17,355.56 634.54,358.19 631.3,358.19 L584.62,358.19 C581.38,358.19 578.76,355.56 578.76,352.32 Z" style="stroke-width: 1px; stroke: rgb(224, 224, 224); fill: none; fill-opacity: 1; stroke-dasharray: 6px, 6px;"/></g><g class="arrow-line"><path class="connection real" stroke-dasharray="" d="  M542.06,342.86 L579.17,342.86" style="stroke: rgb(224, 224, 224); stroke-width: 1px; fill: none; fill-opacity: 1;"/></g><g class="composite-shape"><path class="real" d=" M274.67,626.57 C274.67,595.88 299.55,571 330.24,571 L545.89,571 C576.59,571 601.47,595.88 601.47,626.57 L601.47,793.29 C601.47,823.99 576.59,848.87 545.89,848.87 L330.24,848.87 C299.55,848.87 274.67,823.99 274.67,793.29 Z" style="stroke-width: 1px; stroke: rgb(224, 224, 224); fill: none; fill-opacity: 1; stroke-dasharray: 6px, 6px;"/></g><g class="arrow-line"><path class="connection real" stroke-dasharray="1.125 3.35" d="  M306.13,577.86 C354.8,531.86 729.02,529.86 584.62,358.19" style="stroke: rgb(224, 224, 224); stroke-width: 1px; fill: none; fill-opacity: 1;"/></g><g class="arrow-line"><path class="connection real" stroke-dasharray="1.125 3.35" d="  M595.69,599.87 C573.02,524.53 659.47,468.52 635.02,356.52" style="stroke: rgb(224, 224, 224); stroke-width: 1px; fill: none; fill-opacity: 1;"/></g><g class="grouped-shape"><g class="composite-shape"><path class="real" d=" M578.76,301.39 C578.76,298.15 581.38,295.52 584.62,295.52 L631.3,295.52 C634.54,295.52 637.17,298.15 637.17,301.39 L637.17,318.99 C637.17,322.23 634.54,324.86 631.3,324.86 L584.62,324.86 C581.38,324.86 578.76,322.23 578.76,318.99 Z" style="stroke-width: 1px; stroke: rgb(224, 224, 224); fill: none; fill-opacity: 1; stroke-dasharray: 6px, 6px;"/></g></g><g class="composite-shape"><path class="real" d=" M442.41,699 L499.74,699 L499.74,770.19 L442.41,770.19 Z" style="stroke-width: 1px; stroke: rgb(224, 224, 224); fill: none; fill-opacity: 1;"/></g><g class="grouped-shape"><g class="composite-shape"><path class="real" d=" M455.33,733.52 L486.63,733.52 L486.63,758.67 L455.33,758.67 Z" style="stroke-width: 1px; stroke: rgb(224, 224, 224); fill: none; fill-opacity: 1;"/></g></g><g class="arrow-line"><path class="connection real" stroke-dasharray="" d="  M274,657 L441.74,657.52" style="stroke: rgb(224, 224, 224); stroke-width: 1px; fill: none; fill-opacity: 1;"/><g stroke="#e0e0e0" transform="matrix(-0.9999950652018582,-0.0031415874858796893,0.0031415874858796893,-0.9999950652018582,443.74444580078125,657.5222269694011)" style="stroke: rgb(224, 224, 224); stroke-width: 1px;"><path d=" M10.93,-3.29 Q4.96,-0.45 0,0 Q4.96,0.45 10.93,3.29"/></g></g><g class="arrow-line"><path class="connection real" stroke-dasharray="" d="  M486,748.33 L552.41,747.55" style="stroke: rgb(224, 224, 224); stroke-width: 1px; fill: none; fill-opacity: 1;"/><g stroke="#e0e0e0" transform="matrix(-0.9999295732792146,0.011867960298538642,-0.011867960298538642,-0.9999295732792146,554.4111124674481,747.522226969401)" style="stroke: rgb(224, 224, 224); stroke-width: 1px;"><path d=" M10.93,-3.29 Q4.96,-0.45 0,0 Q4.96,0.45 10.93,3.29"/></g></g><g class="arrow-line"><path class="connection real" stroke-dasharray="" d="  M372,657.67 L371.08,820.19" style="stroke: rgb(224, 224, 224); stroke-width: 1px; fill: none; fill-opacity: 1;"/></g><g class="arrow-line"><path class="connection real" stroke-dasharray="" d="  M372.63,744.86 L439.08,744.86" style="stroke: rgb(224, 224, 224); stroke-width: 1px; fill: none; fill-opacity: 1;"/><g stroke="#e0e0e0" transform="matrix(-1,1.2246467991473532e-16,-1.2246467991473532e-16,-1,441.07777913411456,744.8555603027343)" style="stroke: rgb(224, 224, 224); stroke-width: 1px;"><path d=" M10.93,-3.29 Q4.96,-0.45 0,0 Q4.96,0.45 10.93,3.29"/></g></g><g class="composite-shape"><path class="real" d=" M443.74,615 L504.41,615 L504.41,686.19 L443.74,686.19 Z" style="stroke-width: 1px; stroke: rgb(224, 224, 224); fill: none; fill-opacity: 1;"/></g><g class="grouped-shape"><g class="composite-shape"><path class="real" d=" M456.67,649.52 L487.97,649.52 L487.97,674.67 L456.67,674.67 Z" style="stroke-width: 1px; stroke: rgb(224, 224, 224); fill: none; fill-opacity: 1;"/></g></g><g class="arrow-line"><path class="connection real" stroke-dasharray="" d="  M486,665.67 L552.41,664.88" style="stroke: rgb(224, 224, 224); stroke-width: 1px; fill: none; fill-opacity: 1;"/><g stroke="#e0e0e0" transform="matrix(-0.9999295732792146,0.011867960298538642,-0.011867960298538642,-0.9999295732792146,554.411112467448,664.8555603027341)" style="stroke: rgb(224, 224, 224); stroke-width: 1px;"><path d=" M10.93,-3.29 Q4.96,-0.45 0,0 Q4.96,0.45 10.93,3.29"/></g></g><g class="arrow-line"><path class="connection real" stroke-dasharray="" d="  M371.08,820.19 L443.74,819.54" style="stroke: rgb(224, 224, 224); stroke-width: 1px; fill: none; fill-opacity: 1;"/><g stroke="#e0e0e0" transform="matrix(-0.9999603847661206,0.008901061644096278,-0.008901061644096278,-0.9999603847661206,445.74444580078125,819.5222269694011)" style="stroke: rgb(224, 224, 224); stroke-width: 1px;"><path d=" M10.93,-3.29 Q4.96,-0.45 0,0 Q4.96,0.45 10.93,3.29"/></g></g><g class="arrow-line"><path class="connection real" stroke-dasharray="" d="  M300,75 L491.24,74.53" style="stroke: rgb(224, 224, 224); stroke-width: 1px; fill: none; fill-opacity: 1;"/><g stroke="#e0e0e0" transform="matrix(-0.9999970147507714,0.0024434585213451514,-0.0024434585213451514,-0.9999970147507714,493.24444580078125,74.52222696940103)" style="stroke: rgb(224, 224, 224); stroke-width: 1px;"><path d=" M10.93,-3.29 Q4.96,-0.45 0,0 Q4.96,0.45 10.93,3.29"/></g></g><g class="arrow-line"><path class="connection real" stroke-dasharray="" d="  M418,75.33 L417.91,234.02" style="stroke: rgb(224, 224, 224); stroke-width: 1px; fill: none; fill-opacity: 1;"/></g><g class="arrow-line"><path class="connection real" stroke-dasharray="" d="  M418.58,166.02 L499.91,166.02" style="stroke: rgb(224, 224, 224); stroke-width: 1px; fill: none; fill-opacity: 1;"/><g stroke="#e0e0e0" transform="matrix(-1,3.6739403974420594e-16,-3.6739403974420594e-16,-1,501.9111124674478,166.022226969401)" style="stroke: rgb(224, 224, 224); stroke-width: 1px;"><path d=" M10.93,-3.29 Q4.96,-0.45 0,0 Q4.96,0.45 10.93,3.29"/></g></g><g class="grouped-shape"><g class="composite-shape"><path class="real" d=" M581.42,54.06 C581.42,50.82 584.05,48.19 587.29,48.19 L633.97,48.19 C637.21,48.19 639.83,50.82 639.83,54.06 L639.83,71.66 C639.83,74.9 637.21,77.52 633.97,77.52 L587.29,77.52 C584.05,77.52 581.42,74.9 581.42,71.66 Z" style="stroke-width: 1px; stroke: rgb(224, 224, 224); fill: none; fill-opacity: 1; stroke-dasharray: 6px, 6px;"/></g></g><g class="grouped-shape"><g class="composite-shape"><path class="real" d=" M582.09,90.72 C582.09,87.48 584.72,84.86 587.96,84.86 L634.63,84.86 C637.87,84.86 640.5,87.48 640.5,90.72 L640.5,108.32 C640.5,111.56 637.87,114.19 634.63,114.19 L587.96,114.19 C584.72,114.19 582.09,111.56 582.09,108.32 Z" style="stroke-width: 1px; stroke: rgb(224, 224, 224); fill: none; fill-opacity: 1; stroke-dasharray: 6px, 6px;"/></g></g><g class="composite-shape"><path class="real" d=" M501.08,131.33 L561.74,131.33 L561.74,202.52 L501.08,202.52 Z" style="stroke-width: 1px; stroke: rgb(224, 224, 224); fill: none; fill-opacity: 1;"/></g><g class="composite-shape"><path class="real" d=" M515.33,166.52 L546.63,166.52 L546.63,191.67 L515.33,191.67 Z" style="stroke-width: 1px; stroke: rgb(224, 224, 224); fill: none; fill-opacity: 1;"/></g><g class="arrow-line"><path class="connection real" stroke-dasharray="" d="  M545.67,182 L611.91,182.67" style="stroke: rgb(224, 224, 224); stroke-width: 1px; fill: none; fill-opacity: 1;"/><g stroke="#e0e0e0" transform="matrix(-0.9999487637875227,-0.010122736774459934,0.010122736774459934,-0.9999487637875227,613.911112467448,182.68889363606772)" style="stroke: rgb(224, 224, 224); stroke-width: 1px;"><path d=" M10.93,-3.29 Q4.96,-0.45 0,0 Q4.96,0.45 10.93,3.29"/></g></g><g class="arrow-line"><path class="connection real" stroke-dasharray="" d="  M417.91,234.02 L488.58,234.02" style="stroke: rgb(224, 224, 224); stroke-width: 1px; fill: none; fill-opacity: 1;"/><g stroke="#e0e0e0" transform="matrix(-1,1.2246467991473532e-16,-1.2246467991473532e-16,-1,490.57777913411445,234.02222696940103)" style="stroke: rgb(224, 224, 224); stroke-width: 1px;"><path d=" M10.93,-3.29 Q4.96,-0.45 0,0 Q4.96,0.45 10.93,3.29"/></g></g><g class="arrow-line"><path class="connection real" stroke-dasharray="" d="  M415.33,328 L415.24,486.69" style="stroke: rgb(224, 224, 224); stroke-width: 1px; fill: none; fill-opacity: 1;"/></g><g class="arrow-line"><path class="connection real" stroke-dasharray="" d="  M415.91,418.69 L497.24,418.69" style="stroke: rgb(224, 224, 224); stroke-width: 1px; fill: none; fill-opacity: 1;"/><g stroke="#e0e0e0" transform="matrix(-1,3.6739403974420594e-16,-3.6739403974420594e-16,-1,499.24444580078114,418.6888936360676)" style="stroke: rgb(224, 224, 224); stroke-width: 1px;"><path d=" M10.93,-3.29 Q4.96,-0.45 0,0 Q4.96,0.45 10.93,3.29"/></g></g><g class="composite-shape"><path class="real" d=" M498.41,384 L559.08,384 L559.08,455.19 L498.41,455.19 Z" style="stroke-width: 1px; stroke: rgb(224, 224, 224); fill: none; fill-opacity: 1;"/></g><g class="composite-shape"><path class="real" d=" M512.67,419.19 L543.97,419.19 L543.97,444.33 L512.67,444.33 Z" style="stroke-width: 1px; stroke: rgb(224, 224, 224); fill: none; fill-opacity: 1;"/></g><g class="arrow-line"><path class="connection real" stroke-dasharray="" d="  M543,434.67 L609.24,435.34" style="stroke: rgb(224, 224, 224); stroke-width: 1px; fill: none; fill-opacity: 1;"/><g stroke="#e0e0e0" transform="matrix(-0.9999487637875227,-0.010122736774459934,0.010122736774459934,-0.9999487637875227,611.2444458007812,435.3555603027343)" style="stroke: rgb(224, 224, 224); stroke-width: 1px;"><path d=" M10.93,-3.29 Q4.96,-0.45 0,0 Q4.96,0.45 10.93,3.29"/></g></g><g class="arrow-line"><path class="connection real" stroke-dasharray="" d="  M415.24,486.69 L485.91,486.69" style="stroke: rgb(224, 224, 224); stroke-width: 1px; fill: none; fill-opacity: 1;"/><g stroke="#e0e0e0" transform="matrix(-1,1.2246467991473532e-16,-1.2246467991473532e-16,-1,487.9111124674479,486.68889363606763)" style="stroke: rgb(224, 224, 224); stroke-width: 1px;"><path d=" M10.93,-3.29 Q4.96,-0.45 0,0 Q4.96,0.45 10.93,3.29"/></g></g><g/></g><g/><g/><g/></svg>
        <svg xmlns="http://www.w3.org/2000/svg" xmlns:xlink="http://www.w3.org/1999/xlink" width="660" height="880.8333129882812" style="width:660px;height:880.8333129882812px;font-family:Asana-Math, Asana;background:transparent;"><g><g><g><g><g><g><text x="24.25" y="29.583328247070312" style="white-space:pre;stroke:none;fill:rgb(224,224,224);fill-opacity:1;font-size:15px;font-family:Arial, Helvetica, sans-serif;font-weight:400;font-style:normal;dominant-baseline:text-before-edge;text-decoration:rgb(224, 224, 224);">TX</text></g></g></g></g><g><g><g><g><g><g><g><text x="44.01666259765625" y="41.80000305175781" style="white-space:pre;stroke:none;fill:rgb(224,224,224);fill-opacity:1;font-size:10.5px;font-family:Arial, Helvetica, sans-serif;font-weight:400;font-style:normal;dominant-baseline:text-before-edge;text-decoration:rgb(224, 224, 224);">init</text></g></g></g></g></g></g></g></g></g><g><g><g><g><g><g><g transform="matrix(1,0,0,1,37.58331298828125,81.25)"><path transform="matrix(0.017,0,0,-0.017,0,0)" d="M166 420C187 420 203 421 229 424C118 304 76 221 76 121C76 44 122 -11 186 -11C324 -11 477 236 477 384C477 441 451 482 415 482C402 482 390 478 382 470L332 423L343 404C352 410 361 413 370 413C397 413 413 390 413 350C413 202 316 39 228 39C179 39 148 81 148 146C148 251 187 342 285 464L275 482C255 473 242 470 214 470C186 470 144 472 115 475L103 476C97 477 92 477 91 477C79 477 70 475 59 470C45 443 34 407 21 352L43 352L60 394C67 411 87 422 111 422C144 422 128 420 166 420Z" stroke="rgb(224,224,224)" stroke-opacity="1" stroke-width="8" fill="rgb(224,224,224)" fill-opacity="1"></path></g></g></g></g><svg x="37.58331298828125" overflow="visible" y="62.58332824707031" height="9" width="8.25"><polyline points="0.00,8.06 4.13,5.31 8.25,8.06" style="fill:none;fill-opacity:1;stroke-width:1px;stroke:rgb(224,224,224);stroke-opacity:1;"></polyline></svg></g></g></g><g><g><g><g><g><g><text x="262.25" y="28.25" style="white-space:pre;stroke:none;fill:rgb(224,224,224);fill-opacity:1;font-size:15px;font-family:Arial, Helvetica, sans-serif;font-weight:400;font-style:normal;dominant-baseline:text-before-edge;text-decoration:rgb(224, 224, 224);">TX</text></g></g></g></g><g><g><g><g><g><g><g><text x="282.01666259765625" y="40.46665954589844" style="white-space:pre;stroke:none;fill:rgb(224,224,224);fill-opacity:1;font-size:10.5px;font-family:Arial, Helvetica, sans-serif;font-weight:400;font-style:normal;dominant-baseline:text-before-edge;text-decoration:rgb(224, 224, 224);">outcome 1</text></g></g></g></g></g></g></g></g></g><g><g><g><g><g><g><g transform="matrix(1,0,0,1,280.91668701171875,77.85000610351562)"><path transform="matrix(0.017,0,0,-0.017,0,0)" d="M166 420C187 420 203 421 229 424C118 304 76 221 76 121C76 44 122 -11 186 -11C324 -11 477 236 477 384C477 441 451 482 415 482C402 482 390 478 382 470L332 423L343 404C352 410 361 413 370 413C397 413 413 390 413 350C413 202 316 39 228 39C179 39 148 81 148 146C148 251 187 342 285 464L275 482C255 473 242 470 214 470C186 470 144 472 115 475L103 476C97 477 92 477 91 477C79 477 70 475 59 470C45 443 34 407 21 352L43 352L60 394C67 411 87 422 111 422C144 422 128 420 166 420Z" stroke="rgb(224,224,224)" stroke-opacity="1" stroke-width="8" fill="rgb(224,224,224)" fill-opacity="1"></path></g></g></g></g><svg x="280.91668701171875" overflow="visible" y="59.18333435058594" height="9" width="8.25"><polyline points="0.00,8.06 4.13,5.31 8.25,8.06" style="fill:none;fill-opacity:1;stroke-width:1px;stroke:rgb(224,224,224);stroke-opacity:1;"></polyline></svg></g></g></g><g><g><g><g transform="matrix(1,0,0,1,83.58331298828125,68.1)"><path transform="matrix(0.0136,0,0,-0.0136,0,0)" d="M567 55C567 39 552 30 524 28L480 25L480 -3C582 0 582 0 602 0C622 0 622 0 724 -3L724 25L698 28C651 35 650 35 642 80L555 705L509 705L136 112C100 56 82 40 48 32L28 27L28 -3C120 0 120 0 140 0C159 0 161 0 247 -3L247 25L195 28C179 29 164 38 164 47C164 55 171 69 190 102L292 277L538 277L563 89L563 86C563 84 567 69 567 55ZM496 601L533 313L317 313Z" stroke="rgb(224,224,224)" stroke-opacity="1" stroke-width="8" fill="rgb(224,224,224)" fill-opacity="1"></path></g></g><g><g transform="matrix(1,0,0,1,96.38330078125,68.1)"><path transform="matrix(0.0136,0,0,-0.0136,0,0)" d="M604 241L604 300L364 300L364 538L305 538L305 300L65 300L65 241L305 241L305 0L364 0L364 241Z" stroke="rgb(224,224,224)" stroke-opacity="1" stroke-width="8" fill="rgb(224,224,224)" fill-opacity="1"></path></g></g><g><g transform="matrix(1,0,0,1,108.26666259765625,68.1)"><path transform="matrix(0.0136,0,0,-0.0136,0,0)" d="M543 227C543 337 459 353 377 365C434 385 459 397 490 425C536 464 559 511 559 562C559 644 501 692 401 692C399 692 389 692 374 691L311 690C299 689 263 689 251 689C232 689 201 690 152 691L100 692L97 664L150 662C174 661 185 653 185 635C185 621 181 589 176 559L89 55C85 37 73 30 31 23L26 -3L63 -2C90 0 105 0 117 0C128 0 154 -1 180 -2L217 -3L237 -4C256 -5 269 -6 277 -6C392 -6 543 87 543 227ZM166 41L217 340L302 340C405 340 455 298 455 211C455 108 382 34 282 34C228 34 207 38 166 41ZM352 655C433 655 473 619 473 544C473 439 399 376 275 376L223 376L272 650C288 650 329 655 352 655Z" stroke="rgb(224,224,224)" stroke-opacity="1" stroke-width="8" fill="rgb(224,224,224)" fill-opacity="1"></path></g></g><g><g transform="matrix(1,0,0,1,119.23333740234375,68.1)"><path transform="matrix(0.0136,0,0,-0.0136,0,0)" d="M604 241L604 300L364 300L364 538L305 538L305 300L65 300L65 241L305 241L305 0L364 0L364 241Z" stroke="rgb(224,224,224)" stroke-opacity="1" stroke-width="8" fill="rgb(224,224,224)" fill-opacity="1"></path></g></g><g><g transform="matrix(1,0,0,1,131.11669921875,68.1)"><path transform="matrix(0.0136,0,0,-0.0136,0,0)" d="M45 284C45 90 152 -18 343 -18C439 -18 510 5 600 67C600 67 610 103 610 103C610 103 600 110 600 110C506 53 454 35 376 35C219 35 133 131 133 309C133 447 190 653 418 653C489 653 541 639 597 603L597 519L624 519C629 576 637 619 651 665C575 694 518 706 456 706C276 706 45 578 45 284Z" stroke="rgb(224,224,224)" stroke-opacity="1" stroke-width="8" fill="rgb(224,224,224)" fill-opacity="1"></path></g></g><g><g transform="matrix(1,0,0,1,143,68.1)"><path transform="matrix(0.0136,0,0,-0.0136,0,0)" d="M604 241L604 300L364 300L364 538L305 538L305 300L65 300L65 241L305 241L305 0L364 0L364 241Z" stroke="rgb(224,224,224)" stroke-opacity="1" stroke-width="8" fill="rgb(224,224,224)" fill-opacity="1"></path></g></g><g><g transform="matrix(1,0,0,1,154.88330078125,68.1)"><path transform="matrix(0.0136,0,0,-0.0136,0,0)" d="M937 664L950 695C922 699 775 701 773 692L688 536L442 114L292 692C269 686 146 690 125 692L122 664L148 662C200 658 218 648 218 622C218 616 72 100 70 93C54 41 39 28 -16 23L-19 -3L20 -2C54 -1 79 0 93 0C107 0 133 -1 168 -2L203 -3L206 25L168 28C136 30 119 40 119 55C119 65 121 78 126 96L250 560L399 -18L422 -18L479 86L718 500L770 587L733 67C729 39 717 32 666 28L635 25L632 -3L679 -2C721 -1 751 0 766 0C782 0 812 -1 853 -2L899 -3L902 25L865 28C829 31 811 42 811 63L812 100L853 631C855 650 870 660 899 662Z" stroke="rgb(224,224,224)" stroke-opacity="1" stroke-width="8" fill="rgb(224,224,224)" fill-opacity="1"></path></g></g></g></g><g><g><g><g><g><g><text x="261.58331298828125" y="281.91668701171875" style="white-space:pre;stroke:none;fill:rgb(224,224,224);fill-opacity:1;font-size:15px;font-family:Arial, Helvetica, sans-serif;font-weight:400;font-style:normal;dominant-baseline:text-before-edge;text-decoration:rgb(224, 224, 224);">TX</text></g></g></g></g><g><g><g><g><g><g><g><text x="281.3499755859375" y="294.1333312988281" style="white-space:pre;stroke:none;fill:rgb(224,224,224);fill-opacity:1;font-size:10.5px;font-family:Arial, Helvetica, sans-serif;font-weight:400;font-style:normal;dominant-baseline:text-before-edge;text-decoration:rgb(224, 224, 224);">outcome 2</text></g></g></g></g></g></g></g></g></g><g><g><g><g><g><g><g transform="matrix(1,0,0,1,278.91668701171875,332.183349609375)"><path transform="matrix(0.017,0,0,-0.017,0,0)" d="M166 420C187 420 203 421 229 424C118 304 76 221 76 121C76 44 122 -11 186 -11C324 -11 477 236 477 384C477 441 451 482 415 482C402 482 390 478 382 470L332 423L343 404C352 410 361 413 370 413C397 413 413 390 413 350C413 202 316 39 228 39C179 39 148 81 148 146C148 251 187 342 285 464L275 482C255 473 242 470 214 470C186 470 144 472 115 475L103 476C97 477 92 477 91 477C79 477 70 475 59 470C45 443 34 407 21 352L43 352L60 394C67 411 87 422 111 422C144 422 128 420 166 420Z" stroke="rgb(224,224,224)" stroke-opacity="1" stroke-width="8" fill="rgb(224,224,224)" fill-opacity="1"></path></g></g></g></g><svg x="278.91668701171875" overflow="visible" y="313.51666259765625" height="9" width="8.25"><polyline points="0.00,8.06 4.13,5.31 8.25,8.06" style="fill:none;fill-opacity:1;stroke-width:1px;stroke:rgb(224,224,224);stroke-opacity:1;"></polyline></svg></g></g></g><g><g><g><g transform="matrix(1,0,0,1,193.58331298828125,64.58332824707031)"><path transform="matrix(0.017,0,0,-0.017,0,0)" d="M604 241L604 300L364 300L364 538L305 538L305 300L65 300L65 241L305 241L305 0L364 0L364 241Z" stroke="rgb(224,224,224)" stroke-opacity="1" stroke-width="8" fill="rgb(224,224,224)" fill-opacity="1"></path></g></g><g><g transform="matrix(1,0,0,1,204.58331298828125,64.58332824707031)"><path transform="matrix(0.017,0,0,-0.017,0,0)" d="M108 471C108 386 146 339 230 319L325 296C379 283 406 248 406 191C406 96 335 30 232 30C178 30 140 42 96 73L96 172L66 172C60 117 53 72 42 20C91 -5 144 -18 197 -18C352 -18 485 99 485 234C485 313 442 355 341 377L276 391C210 405 180 442 180 508C180 595 247 658 339 658C388 658 421 645 451 613L451 537L481 537C485 591 492 629 506 672C461 696 421 706 374 706C250 706 108 614 108 471Z" stroke="rgb(224,224,224)" stroke-opacity="1" stroke-width="8" fill="rgb(224,224,224)" fill-opacity="1"></path></g></g><g><g><g><g><g transform="matrix(1,0,0,1,214.26666259765625,67.91666259765626)"><path transform="matrix(0.0119,0,0,-0.0119,0,0)" d="M418 -3L418 27L366 30C311 33 301 44 301 96L301 700L60 598L67 548L217 614L217 96C217 44 206 33 152 30L96 27L96 -3C250 0 250 0 261 0C292 0 402 -3 418 -3Z" stroke="rgb(224,224,224)" stroke-opacity="1" stroke-width="8" fill="rgb(224,224,224)" fill-opacity="1"></path></g></g></g></g></g></g></g><g><g><g><g transform="matrix(1,0,0,1,185.58331298828125,309.58331298828125)"><path transform="matrix(0.017,0,0,-0.017,0,0)" d="M604 241L604 300L364 300L364 538L305 538L305 300L65 300L65 241L305 241L305 0L364 0L364 241Z" stroke="rgb(224,224,224)" stroke-opacity="1" stroke-width="8" fill="rgb(224,224,224)" fill-opacity="1"></path></g></g><g><g transform="matrix(1,0,0,1,196.58331298828125,309.58331298828125)"><path transform="matrix(0.017,0,0,-0.017,0,0)" d="M108 471C108 386 146 339 230 319L325 296C379 283 406 248 406 191C406 96 335 30 232 30C178 30 140 42 96 73L96 172L66 172C60 117 53 72 42 20C91 -5 144 -18 197 -18C352 -18 485 99 485 234C485 313 442 355 341 377L276 391C210 405 180 442 180 508C180 595 247 658 339 658C388 658 421 645 451 613L451 537L481 537C485 591 492 629 506 672C461 696 421 706 374 706C250 706 108 614 108 471Z" stroke="rgb(224,224,224)" stroke-opacity="1" stroke-width="8" fill="rgb(224,224,224)" fill-opacity="1"></path></g></g><g><g><g><g><g transform="matrix(1,0,0,1,206.26666259765625,312.9166625976562)"><path transform="matrix(0.0119,0,0,-0.0119,0,0)" d="M16 23L16 -3C203 -3 203 0 239 0C275 0 275 -3 468 -3L468 82C353 77 307 81 122 77L304 270C401 373 431 428 431 503C431 618 353 689 226 689C154 689 105 669 56 619L39 483L68 483L81 529C97 587 133 612 200 612C286 612 341 558 341 473C341 398 299 324 186 204Z" stroke="rgb(224,224,224)" stroke-opacity="1" stroke-width="8" fill="rgb(224,224,224)" fill-opacity="1"></path></g></g></g></g></g></g></g><g><g><g><g><g><g><text x="504.91668701171875" y="16.916671752929688" style="white-space:pre;stroke:none;fill:rgb(224,224,224);fill-opacity:1;font-size:15px;font-family:Arial, Helvetica, sans-serif;font-weight:400;font-style:normal;dominant-baseline:text-before-edge;text-decoration:rgb(224, 224, 224);">TX</text></g></g></g></g><g><g><g><g><g><g><g><text x="524.683349609375" y="29.133331298828125" style="white-space:pre;stroke:none;fill:rgb(224,224,224);fill-opacity:1;font-size:10.5px;font-family:Arial, Helvetica, sans-serif;font-weight:400;font-style:normal;dominant-baseline:text-before-edge;text-decoration:rgb(224, 224, 224);">split 1</text></g></g></g></g></g></g></g></g></g><g><g><g><g transform="matrix(1,0,0,1,521.5833740234375,64.51666259765625)"><path transform="matrix(0.017,0,0,-0.017,0,0)" d="M166 420C187 420 203 421 229 424C118 304 76 221 76 121C76 44 122 -11 186 -11C324 -11 477 236 477 384C477 441 451 482 415 482C402 482 390 478 382 470L332 423L343 404C352 410 361 413 370 413C397 413 413 390 413 350C413 202 316 39 228 39C179 39 148 81 148 146C148 251 187 342 285 464L275 482C255 473 242 470 214 470C186 470 144 472 115 475L103 476C97 477 92 477 91 477C79 477 70 475 59 470C45 443 34 407 21 352L43 352L60 394C67 411 87 422 111 422C144 422 128 420 166 420Z" stroke="rgb(224,224,224)" stroke-opacity="1" stroke-width="8" fill="rgb(224,224,224)" fill-opacity="1"></path></g></g><g><g><g><g><g transform="matrix(1,0,0,1,530.3499755859375,67.8499969482422)"><path transform="matrix(0.0119,0,0,-0.0119,0,0)" d="M567 55C567 39 552 30 524 28L480 25L480 -3C582 0 582 0 602 0C622 0 622 0 724 -3L724 25L698 28C651 35 650 35 642 80L555 705L509 705L136 112C100 56 82 40 48 32L28 27L28 -3C120 0 120 0 140 0C159 0 161 0 247 -3L247 25L195 28C179 29 164 38 164 47C164 55 171 69 190 102L292 277L538 277L563 89L563 86C563 84 567 69 567 55ZM496 601L533 313L317 313Z" stroke="rgb(224,224,224)" stroke-opacity="1" stroke-width="8" fill="rgb(224,224,224)" fill-opacity="1"></path></g></g></g></g></g></g></g><g><g><g><g transform="matrix(1,0,0,1,522.25,97.183349609375)"><path transform="matrix(0.017,0,0,-0.017,0,0)" d="M166 420C187 420 203 421 229 424C118 304 76 221 76 121C76 44 122 -11 186 -11C324 -11 477 236 477 384C477 441 451 482 415 482C402 482 390 478 382 470L332 423L343 404C352 410 361 413 370 413C397 413 413 390 413 350C413 202 316 39 228 39C179 39 148 81 148 146C148 251 187 342 285 464L275 482C255 473 242 470 214 470C186 470 144 472 115 475L103 476C97 477 92 477 91 477C79 477 70 475 59 470C45 443 34 407 21 352L43 352L60 394C67 411 87 422 111 422C144 422 128 420 166 420Z" stroke="rgb(224,224,224)" stroke-opacity="1" stroke-width="8" fill="rgb(224,224,224)" fill-opacity="1"></path></g></g><g><g><g><g><g transform="matrix(1,0,0,1,531.0166015625,100.51666870117188)"><path transform="matrix(0.0119,0,0,-0.0119,0,0)" d="M543 227C543 337 459 353 377 365C434 385 459 397 490 425C536 464 559 511 559 562C559 644 501 692 401 692C399 692 389 692 374 691L311 690C299 689 263 689 251 689C232 689 201 690 152 691L100 692L97 664L150 662C174 661 185 653 185 635C185 621 181 589 176 559L89 55C85 37 73 30 31 23L26 -3L63 -2C90 0 105 0 117 0C128 0 154 -1 180 -2L217 -3L237 -4C256 -5 269 -6 277 -6C392 -6 543 87 543 227ZM166 41L217 340L302 340C405 340 455 298 455 211C455 108 382 34 282 34C228 34 207 38 166 41ZM352 655C433 655 473 619 473 544C473 439 399 376 275 376L223 376L272 650C288 650 329 655 352 655Z" stroke="rgb(224,224,224)" stroke-opacity="1" stroke-width="8" fill="rgb(224,224,224)" fill-opacity="1"></path></g></g></g></g></g></g></g><g><g><g><g><g><g><text x="504.25" y="263.25" style="white-space:pre;stroke:none;fill:rgb(224,224,224);fill-opacity:1;font-size:15px;font-family:Arial, Helvetica, sans-serif;font-weight:400;font-style:normal;dominant-baseline:text-before-edge;text-decoration:rgb(224, 224, 224);">TX</text></g></g></g></g><g><g><g><g><g><g><g><text x="524.0166015625" y="275.4666748046875" style="white-space:pre;stroke:none;fill:rgb(224,224,224);fill-opacity:1;font-size:10.5px;font-family:Arial, Helvetica, sans-serif;font-weight:400;font-style:normal;dominant-baseline:text-before-edge;text-decoration:rgb(224, 224, 224);">split 2</text></g></g></g></g></g></g></g></g></g><g><g><g><g transform="matrix(1,0,0,1,520.25,310.8500061035156)"><path transform="matrix(0.017,0,0,-0.017,0,0)" d="M166 420C187 420 203 421 229 424C118 304 76 221 76 121C76 44 122 -11 186 -11C324 -11 477 236 477 384C477 441 451 482 415 482C402 482 390 478 382 470L332 423L343 404C352 410 361 413 370 413C397 413 413 390 413 350C413 202 316 39 228 39C179 39 148 81 148 146C148 251 187 342 285 464L275 482C255 473 242 470 214 470C186 470 144 472 115 475L103 476C97 477 92 477 91 477C79 477 70 475 59 470C45 443 34 407 21 352L43 352L60 394C67 411 87 422 111 422C144 422 128 420 166 420Z" stroke="rgb(224,224,224)" stroke-opacity="1" stroke-width="8" fill="rgb(224,224,224)" fill-opacity="1"></path></g></g><g><g><g><g><g transform="matrix(1,0,0,1,529.0166015625,314.1833251953125)"><path transform="matrix(0.0119,0,0,-0.0119,0,0)" d="M543 227C543 337 459 353 377 365C434 385 459 397 490 425C536 464 559 511 559 562C559 644 501 692 401 692C399 692 389 692 374 691L311 690C299 689 263 689 251 689C232 689 201 690 152 691L100 692L97 664L150 662C174 661 185 653 185 635C185 621 181 589 176 559L89 55C85 37 73 30 31 23L26 -3L63 -2C90 0 105 0 117 0C128 0 154 -1 180 -2L217 -3L237 -4C256 -5 269 -6 277 -6C392 -6 543 87 543 227ZM166 41L217 340L302 340C405 340 455 298 455 211C455 108 382 34 282 34C228 34 207 38 166 41ZM352 655C433 655 473 619 473 544C473 439 399 376 275 376L223 376L272 650C288 650 329 655 352 655Z" stroke="rgb(224,224,224)" stroke-opacity="1" stroke-width="8" fill="rgb(224,224,224)" fill-opacity="1"></path></g></g></g></g></g></g></g><g><g><g><g transform="matrix(1,0,0,1,521.5833740234375,343.51666259765625)"><path transform="matrix(0.017,0,0,-0.017,0,0)" d="M166 420C187 420 203 421 229 424C118 304 76 221 76 121C76 44 122 -11 186 -11C324 -11 477 236 477 384C477 441 451 482 415 482C402 482 390 478 382 470L332 423L343 404C352 410 361 413 370 413C397 413 413 390 413 350C413 202 316 39 228 39C179 39 148 81 148 146C148 251 187 342 285 464L275 482C255 473 242 470 214 470C186 470 144 472 115 475L103 476C97 477 92 477 91 477C79 477 70 475 59 470C45 443 34 407 21 352L43 352L60 394C67 411 87 422 111 422C144 422 128 420 166 420Z" stroke="rgb(224,224,224)" stroke-opacity="1" stroke-width="8" fill="rgb(224,224,224)" fill-opacity="1"></path></g></g><g><g><g><g><g transform="matrix(1,0,0,1,530.3499755859375,346.8500122070312)"><path transform="matrix(0.0119,0,0,-0.0119,0,0)" d="M45 284C45 90 152 -18 343 -18C439 -18 510 5 600 67C600 67 610 103 610 103C610 103 600 110 600 110C506 53 454 35 376 35C219 35 133 131 133 309C133 447 190 653 418 653C489 653 541 639 597 603L597 519L624 519C629 576 637 619 651 665C575 694 518 706 456 706C276 706 45 578 45 284Z" stroke="rgb(224,224,224)" stroke-opacity="1" stroke-width="8" fill="rgb(224,224,224)" fill-opacity="1"></path></g></g></g></g></g></g></g><g><g><g><g transform="matrix(1,0,0,1,446.25,345.91668701171875)"><path transform="matrix(0.017,0,0,-0.017,0,0)" d="M604 241L604 300L364 300L364 538L305 538L305 300L65 300L65 241L305 241L305 0L364 0L364 241Z" stroke="rgb(224,224,224)" stroke-opacity="1" stroke-width="8" fill="rgb(224,224,224)" fill-opacity="1"></path></g></g><g><g transform="matrix(1,0,0,1,457.25,345.91668701171875)"><path transform="matrix(0.017,0,0,-0.017,0,0)" d="M-33 6L-28 -4C79 0 185 0 292 0C393 0 494 -1 594 -4L602 6C560 116 534 238 504 354C475 466 442 580 424 697L399 697C336 587 53 127 -33 6ZM482 37L50 37C148 215 249 389 356 564L363 564C408 391 449 215 482 37Z" stroke="rgb(224,224,224)" stroke-opacity="1" stroke-width="8" fill="rgb(224,224,224)" fill-opacity="1"></path></g></g></g></g><g><g><g><g transform="matrix(1,0,0,1,345.58331298828125,319.7666870117188)"><path transform="matrix(0.0136,0,0,-0.0136,0,0)" d="M543 227C543 337 459 353 377 365C434 385 459 397 490 425C536 464 559 511 559 562C559 644 501 692 401 692C399 692 389 692 374 691L311 690C299 689 263 689 251 689C232 689 201 690 152 691L100 692L97 664L150 662C174 661 185 653 185 635C185 621 181 589 176 559L89 55C85 37 73 30 31 23L26 -3L63 -2C90 0 105 0 117 0C128 0 154 -1 180 -2L217 -3L237 -4C256 -5 269 -6 277 -6C392 -6 543 87 543 227ZM166 41L217 340L302 340C405 340 455 298 455 211C455 108 382 34 282 34C228 34 207 38 166 41ZM352 655C433 655 473 619 473 544C473 439 399 376 275 376L223 376L272 650C288 650 329 655 352 655Z" stroke="rgb(224,224,224)" stroke-opacity="1" stroke-width="8" fill="rgb(224,224,224)" fill-opacity="1"></path></g></g><g><g transform="matrix(1,0,0,1,356.54998779296875,319.7666870117188)"><path transform="matrix(0.0136,0,0,-0.0136,0,0)" d="M604 241L604 300L364 300L364 538L305 538L305 300L65 300L65 241L305 241L305 0L364 0L364 241Z" stroke="rgb(224,224,224)" stroke-opacity="1" stroke-width="8" fill="rgb(224,224,224)" fill-opacity="1"></path></g></g><g><g transform="matrix(1,0,0,1,368.433349609375,319.7666870117188)"><path transform="matrix(0.0136,0,0,-0.0136,0,0)" d="M45 284C45 90 152 -18 343 -18C439 -18 510 5 600 67C600 67 610 103 610 103C610 103 600 110 600 110C506 53 454 35 376 35C219 35 133 131 133 309C133 447 190 653 418 653C489 653 541 639 597 603L597 519L624 519C629 576 637 619 651 665C575 694 518 706 456 706C276 706 45 578 45 284Z" stroke="rgb(224,224,224)" stroke-opacity="1" stroke-width="8" fill="rgb(224,224,224)" fill-opacity="1"></path></g></g><g><g transform="matrix(1,0,0,1,380.316650390625,319.7666870117188)"><path transform="matrix(0.0136,0,0,-0.0136,0,0)" d="M604 241L604 300L364 300L364 538L305 538L305 300L65 300L65 241L305 241L305 0L364 0L364 241Z" stroke="rgb(224,224,224)" stroke-opacity="1" stroke-width="8" fill="rgb(224,224,224)" fill-opacity="1"></path></g></g><g><g transform="matrix(1,0,0,1,392.20001220703125,319.7666870117188)"><path transform="matrix(0.0136,0,0,-0.0136,0,0)" d="M937 664L950 695C922 699 775 701 773 692L688 536L442 114L292 692C269 686 146 690 125 692L122 664L148 662C200 658 218 648 218 622C218 616 72 100 70 93C54 41 39 28 -16 23L-19 -3L20 -2C54 -1 79 0 93 0C107 0 133 -1 168 -2L203 -3L206 25L168 28C136 30 119 40 119 55C119 65 121 78 126 96L250 560L399 -18L422 -18L479 86L718 500L770 587L733 67C729 39 717 32 666 28L635 25L632 -3L679 -2C721 -1 751 0 766 0C782 0 812 -1 853 -2L899 -3L902 25L865 28C829 31 811 42 811 63L812 100L853 631C855 650 870 660 899 662Z" stroke="rgb(224,224,224)" stroke-opacity="1" stroke-width="8" fill="rgb(224,224,224)" fill-opacity="1"></path></g></g></g></g><g><g><g><text x="590.7333984375" y="332.0999755859375" style="white-space:pre;stroke:none;fill:rgb(224,224,224);fill-opacity:1;font-size:10.5px;font-family:Arial, Helvetica, sans-serif;font-weight:400;font-style:normal;dominant-baseline:text-before-edge;text-decoration:rgb(224, 224, 224);">payout</text></g></g><g><g><text x="587.5333251953125" y="344.13330078125" style="white-space:pre;stroke:none;fill:rgb(224,224,224);fill-opacity:1;font-size:10.5px;font-family:Arial, Helvetica, sans-serif;font-weight:400;font-style:normal;dominant-baseline:text-before-edge;text-decoration:rgb(224, 224, 224);">contract</text></g></g></g><g><g><g><g><g><g><text x="456.25" y="703.25" style="white-space:pre;stroke:none;fill:rgb(224,224,224);fill-opacity:1;font-size:15px;font-family:Arial, Helvetica, sans-serif;font-weight:400;font-style:normal;dominant-baseline:text-before-edge;text-decoration:rgb(224, 224, 224);">TX</text></g></g></g></g><g><g><g><g><g><g><g><text x="476.01666259765625" y="715.4666748046875" style="white-space:pre;stroke:none;fill:rgb(224,224,224);fill-opacity:1;font-size:10.5px;font-family:Arial, Helvetica, sans-serif;font-weight:400;font-style:normal;dominant-baseline:text-before-edge;text-decoration:rgb(224, 224, 224);">win</text></g></g></g></g></g></g></g></g></g><g><g><g><g transform="matrix(1,0,0,1,464.25,750.9166870117188)"><path transform="matrix(0.017,0,0,-0.017,0,0)" d="M166 420C187 420 203 421 229 424C118 304 76 221 76 121C76 44 122 -11 186 -11C324 -11 477 236 477 384C477 441 451 482 415 482C402 482 390 478 382 470L332 423L343 404C352 410 361 413 370 413C397 413 413 390 413 350C413 202 316 39 228 39C179 39 148 81 148 146C148 251 187 342 285 464L275 482C255 473 242 470 214 470C186 470 144 472 115 475L103 476C97 477 92 477 91 477C79 477 70 475 59 470C45 443 34 407 21 352L43 352L60 394C67 411 87 422 111 422C144 422 128 420 166 420Z" stroke="rgb(224,224,224)" stroke-opacity="1" stroke-width="8" fill="rgb(224,224,224)" fill-opacity="1"></path></g></g><g><g><g><g><g transform="matrix(1,0,0,1,473.01666259765625,754.2499755859375)"><path transform="matrix(0.0119,0,0,-0.0119,0,0)" d="M45 284C45 90 152 -18 343 -18C439 -18 510 5 600 67C600 67 610 103 610 103C610 103 600 110 600 110C506 53 454 35 376 35C219 35 133 131 133 309C133 447 190 653 418 653C489 653 541 639 597 603L597 519L624 519C629 576 637 619 651 665C575 694 518 706 456 706C276 706 45 578 45 284Z" stroke="rgb(224,224,224)" stroke-opacity="1" stroke-width="8" fill="rgb(224,224,224)" fill-opacity="1"></path></g></g></g></g></g></g></g><g><g><g><g transform="matrix(1,0,0,1,394.25,736.25)"><path transform="matrix(0.017,0,0,-0.017,0,0)" d="M604 241L604 300L364 300L364 538L305 538L305 300L65 300L65 241L305 241L305 0L364 0L364 241Z" stroke="rgb(224,224,224)" stroke-opacity="1" stroke-width="8" fill="rgb(224,224,224)" fill-opacity="1"></path></g></g><g><g transform="matrix(1,0,0,1,405.25,736.25)"><path transform="matrix(0.017,0,0,-0.017,0,0)" d="M390 646L463 646C541 646 577 641 580 629C583 621 585 602 584 592L580 528L608 528L635 692L544 691C456 690 388 689 353 689C316 689 252 690 166 691L71 692L53 528L82 528L97 588C102 610 109 626 115 633C121 640 159 646 196 646L308 646L222 125C206 34 204 31 164 28L113 25L109 -3L166 -2C206 -1 235 0 251 0C270 0 301 -1 340 -2L384 -3L387 25L328 28C302 29 292 37 292 58C292 67 293 74 296 93Z" stroke="rgb(224,224,224)" stroke-opacity="1" stroke-width="8" fill="rgb(224,224,224)" fill-opacity="1"></path></g></g><g><g><g><g><g transform="matrix(1,0,0,1,415.8499755859375,739.583349609375)"><path transform="matrix(0.0119,0,0,-0.0119,0,0)" d="M45 284C45 90 152 -18 343 -18C439 -18 510 5 600 67C600 67 610 103 610 103C610 103 600 110 600 110C506 53 454 35 376 35C219 35 133 131 133 309C133 447 190 653 418 653C489 653 541 639 597 603L597 519L624 519C629 576 637 619 651 665C575 694 518 706 456 706C276 706 45 578 45 284Z" stroke="rgb(224,224,224)" stroke-opacity="1" stroke-width="8" fill="rgb(224,224,224)" fill-opacity="1"></path></g></g></g></g></g></g></g><g><g><g><g transform="matrix(1,0,0,1,396.91668701171875,760.5833129882812)"><path transform="matrix(0.017,0,0,-0.017,0,0)" d="M604 241L604 300L364 300L364 538L305 538L305 300L65 300L65 241L305 241L305 0L364 0L364 241Z" stroke="rgb(224,224,224)" stroke-opacity="1" stroke-width="8" fill="rgb(224,224,224)" fill-opacity="1"></path></g></g><g><g transform="matrix(1,0,0,1,407.91668701171875,760.5833129882812)"><path transform="matrix(0.017,0,0,-0.017,0,0)" d="M-33 6L-28 -4C79 0 185 0 292 0C393 0 494 -1 594 -4L602 6C560 116 534 238 504 354C475 466 442 580 424 697L399 697C336 587 53 127 -33 6ZM482 37L50 37C148 215 249 389 356 564L363 564C408 391 449 215 482 37Z" stroke="rgb(224,224,224)" stroke-opacity="1" stroke-width="8" fill="rgb(224,224,224)" fill-opacity="1"></path></g></g></g></g><g><g><g><g transform="matrix(1,0,0,1,522.9166259765625,737.25)"><path transform="matrix(0.017,0,0,-0.017,0,0)" d="M45 284C45 90 152 -18 343 -18C439 -18 510 5 600 67C600 67 610 103 610 103C610 103 600 110 600 110C506 53 454 35 376 35C219 35 133 131 133 309C133 447 190 653 418 653C489 653 541 639 597 603L597 519L624 519C629 576 637 619 651 665C575 694 518 706 456 706C276 706 45 578 45 284Z" stroke="rgb(224,224,224)" stroke-opacity="1" stroke-width="8" fill="rgb(224,224,224)" fill-opacity="1"></path></g></g></g></g><g><g><g><g><g><g><text x="450.91668701171875" y="619.5999755859375" style="white-space:pre;stroke:none;fill:rgb(224,224,224);fill-opacity:1;font-size:13.5px;font-family:Arial, Helvetica, sans-serif;font-weight:400;font-style:normal;dominant-baseline:text-before-edge;text-decoration:rgb(224, 224, 224);">TX</text></g></g></g></g><g><g><g><g><g><g><g><text x="468.79998779296875" y="630.7166748046875" style="white-space:pre;stroke:none;fill:rgb(224,224,224);fill-opacity:1;font-size:9.45px;font-family:Arial, Helvetica, sans-serif;font-weight:400;font-style:normal;dominant-baseline:text-before-edge;text-decoration:rgb(224, 224, 224);">reclaim</text></g></g></g></g></g></g></g></g></g><g><g><g><g transform="matrix(1,0,0,1,465.58331298828125,666.9166870117188)"><path transform="matrix(0.017,0,0,-0.017,0,0)" d="M166 420C187 420 203 421 229 424C118 304 76 221 76 121C76 44 122 -11 186 -11C324 -11 477 236 477 384C477 441 451 482 415 482C402 482 390 478 382 470L332 423L343 404C352 410 361 413 370 413C397 413 413 390 413 350C413 202 316 39 228 39C179 39 148 81 148 146C148 251 187 342 285 464L275 482C255 473 242 470 214 470C186 470 144 472 115 475L103 476C97 477 92 477 91 477C79 477 70 475 59 470C45 443 34 407 21 352L43 352L60 394C67 411 87 422 111 422C144 422 128 420 166 420Z" stroke="rgb(224,224,224)" stroke-opacity="1" stroke-width="8" fill="rgb(224,224,224)" fill-opacity="1"></path></g></g><g><g><g><g><g transform="matrix(1,0,0,1,474.3499755859375,670.2499755859375)"><path transform="matrix(0.0119,0,0,-0.0119,0,0)" d="M45 284C45 90 152 -18 343 -18C439 -18 510 5 600 67C600 67 610 103 610 103C610 103 600 110 600 110C506 53 454 35 376 35C219 35 133 131 133 309C133 447 190 653 418 653C489 653 541 639 597 603L597 519L624 519C629 576 637 619 651 665C575 694 518 706 456 706C276 706 45 578 45 284Z" stroke="rgb(224,224,224)" stroke-opacity="1" stroke-width="8" fill="rgb(224,224,224)" fill-opacity="1"></path></g></g></g></g></g></g></g><g><g><g><g transform="matrix(1,0,0,1,522.9166259765625,654.5833129882812)"><path transform="matrix(0.017,0,0,-0.017,0,0)" d="M937 664L950 695C922 699 775 701 773 692L688 536L442 114L292 692C269 686 146 690 125 692L122 664L148 662C200 658 218 648 218 622C218 616 72 100 70 93C54 41 39 28 -16 23L-19 -3L20 -2C54 -1 79 0 93 0C107 0 133 -1 168 -2L203 -3L206 25L168 28C136 30 119 40 119 55C119 65 121 78 126 96L250 560L399 -18L422 -18L479 86L718 500L770 587L733 67C729 39 717 32 666 28L635 25L632 -3L679 -2C721 -1 751 0 766 0C782 0 812 -1 853 -2L899 -3L902 25L865 28C829 31 811 42 811 63L812 100L853 631C855 650 870 660 899 662Z" stroke="rgb(224,224,224)" stroke-opacity="1" stroke-width="8" fill="rgb(224,224,224)" fill-opacity="1"></path></g></g></g></g><g><g><g><g transform="matrix(1,0,0,1,394.25,674.5833129882812)"><path transform="matrix(0.017,0,0,-0.017,0,0)" d="M604 241L604 300L364 300L364 538L305 538L305 300L65 300L65 241L305 241L305 0L364 0L364 241Z" stroke="rgb(224,224,224)" stroke-opacity="1" stroke-width="8" fill="rgb(224,224,224)" fill-opacity="1"></path></g></g><g><g transform="matrix(1,0,0,1,405.25,674.5833129882812)"><path transform="matrix(0.017,0,0,-0.017,0,0)" d="M16 23L16 -3C203 -3 203 0 239 0C275 0 275 -3 468 -3L468 82C353 77 307 81 122 77L304 270C401 373 431 428 431 503C431 618 353 689 226 689C154 689 105 669 56 619L39 483L68 483L81 529C97 587 133 612 200 612C286 612 341 558 341 473C341 398 299 324 186 204ZM466 6L471 -4C578 0 684 0 791 0C892 0 993 -1 1093 -4L1101 6C1059 116 1033 238 1003 354C974 466 941 580 923 697L898 697C835 587 552 127 466 6ZM981 37L549 37C647 215 748 389 855 564L862 564C907 391 948 215 981 37Z" stroke="rgb(224,224,224)" stroke-opacity="1" stroke-width="8" fill="rgb(224,224,224)" fill-opacity="1"></path></g></g></g></g><g><g><g><g transform="matrix(1,0,0,1,294.91668701171875,644.5833129882812)"><path transform="matrix(0.017,0,0,-0.017,0,0)" d="M45 284C45 90 152 -18 343 -18C439 -18 510 5 600 67C600 67 610 103 610 103C610 103 600 110 600 110C506 53 454 35 376 35C219 35 133 131 133 309C133 447 190 653 418 653C489 653 541 639 597 603L597 519L624 519C629 576 637 619 651 665C575 694 518 706 456 706C276 706 45 578 45 284Z" stroke="rgb(224,224,224)" stroke-opacity="1" stroke-width="8" fill="rgb(224,224,224)" fill-opacity="1"></path></g></g><g><g transform="matrix(1,0,0,1,310.23333740234375,644.5833129882812)"><path transform="matrix(0.017,0,0,-0.017,0,0)" d="M604 241L604 300L364 300L364 538L305 538L305 300L65 300L65 241L305 241L305 0L364 0L364 241Z" stroke="rgb(224,224,224)" stroke-opacity="1" stroke-width="8" fill="rgb(224,224,224)" fill-opacity="1"></path></g></g><g><g transform="matrix(1,0,0,1,324.63330078125,644.5833129882812)"><path transform="matrix(0.017,0,0,-0.017,0,0)" d="M937 664L950 695C922 699 775 701 773 692L688 536L442 114L292 692C269 686 146 690 125 692L122 664L148 662C200 658 218 648 218 622C218 616 72 100 70 93C54 41 39 28 -16 23L-19 -3L20 -2C54 -1 79 0 93 0C107 0 133 -1 168 -2L203 -3L206 25L168 28C136 30 119 40 119 55C119 65 121 78 126 96L250 560L399 -18L422 -18L479 86L718 500L770 587L733 67C729 39 717 32 666 28L635 25L632 -3L679 -2C721 -1 751 0 766 0C782 0 812 -1 853 -2L899 -3L902 25L865 28C829 31 811 42 811 63L812 100L853 631C855 650 870 660 899 662Z" stroke="rgb(224,224,224)" stroke-opacity="1" stroke-width="8" fill="rgb(224,224,224)" fill-opacity="1"></path></g></g></g></g><g><g><g><text x="451.58331298828125" y="804.38330078125" style="white-space:pre;stroke:none;fill:rgb(224,224,224);fill-opacity:1;font-size:12px;font-family:Arial, Helvetica, sans-serif;font-weight:400;font-style:normal;dominant-baseline:text-before-edge;text-decoration:rgb(224, 224, 224);">single winner</text></g></g><g><g><text x="456.61669921875" y="816.38330078125" style="white-space:pre;stroke:none;fill:rgb(224,224,224);fill-opacity:1;font-size:12px;font-family:Arial, Helvetica, sans-serif;font-weight:400;font-style:normal;dominant-baseline:text-before-edge;text-decoration:rgb(224, 224, 224);">cooperates</text></g></g></g><g><g><g><g transform="matrix(1,0,0,1,447.58331298828125,93.58331298828125)"><path transform="matrix(0.017,0,0,-0.017,0,0)" d="M604 241L604 300L364 300L364 538L305 538L305 300L65 300L65 241L305 241L305 0L364 0L364 241Z" stroke="rgb(224,224,224)" stroke-opacity="1" stroke-width="8" fill="rgb(224,224,224)" fill-opacity="1"></path></g></g><g><g transform="matrix(1,0,0,1,458.58331298828125,93.58331298828125)"><path transform="matrix(0.017,0,0,-0.017,0,0)" d="M-33 6L-28 -4C79 0 185 0 292 0C393 0 494 -1 594 -4L602 6C560 116 534 238 504 354C475 466 442 580 424 697L399 697C336 587 53 127 -33 6ZM482 37L50 37C148 215 249 389 356 564L363 564C408 391 449 215 482 37Z" stroke="rgb(224,224,224)" stroke-opacity="1" stroke-width="8" fill="rgb(224,224,224)" fill-opacity="1"></path></g></g></g></g><g><g><g><g transform="matrix(1,0,0,1,346.91668701171875,67.4333282470703)"><path transform="matrix(0.0136,0,0,-0.0136,0,0)" d="M567 55C567 39 552 30 524 28L480 25L480 -3C582 0 582 0 602 0C622 0 622 0 724 -3L724 25L698 28C651 35 650 35 642 80L555 705L509 705L136 112C100 56 82 40 48 32L28 27L28 -3C120 0 120 0 140 0C159 0 161 0 247 -3L247 25L195 28C179 29 164 38 164 47C164 55 171 69 190 102L292 277L538 277L563 89L563 86C563 84 567 69 567 55ZM496 601L533 313L317 313Z" stroke="rgb(224,224,224)" stroke-opacity="1" stroke-width="8" fill="rgb(224,224,224)" fill-opacity="1"></path></g></g><g><g transform="matrix(1,0,0,1,359.7166748046875,67.4333282470703)"><path transform="matrix(0.0136,0,0,-0.0136,0,0)" d="M604 241L604 300L364 300L364 538L305 538L305 300L65 300L65 241L305 241L305 0L364 0L364 241Z" stroke="rgb(224,224,224)" stroke-opacity="1" stroke-width="8" fill="rgb(224,224,224)" fill-opacity="1"></path></g></g><g><g transform="matrix(1,0,0,1,371.5999755859375,67.4333282470703)"><path transform="matrix(0.0136,0,0,-0.0136,0,0)" d="M543 227C543 337 459 353 377 365C434 385 459 397 490 425C536 464 559 511 559 562C559 644 501 692 401 692C399 692 389 692 374 691L311 690C299 689 263 689 251 689C232 689 201 690 152 691L100 692L97 664L150 662C174 661 185 653 185 635C185 621 181 589 176 559L89 55C85 37 73 30 31 23L26 -3L63 -2C90 0 105 0 117 0C128 0 154 -1 180 -2L217 -3L237 -4C256 -5 269 -6 277 -6C392 -6 543 87 543 227ZM166 41L217 340L302 340C405 340 455 298 455 211C455 108 382 34 282 34C228 34 207 38 166 41ZM352 655C433 655 473 619 473 544C473 439 399 376 275 376L223 376L272 650C288 650 329 655 352 655Z" stroke="rgb(224,224,224)" stroke-opacity="1" stroke-width="8" fill="rgb(224,224,224)" fill-opacity="1"></path></g></g><g><g transform="matrix(1,0,0,1,382.566650390625,67.4333282470703)"><path transform="matrix(0.0136,0,0,-0.0136,0,0)" d="M604 241L604 300L364 300L364 538L305 538L305 300L65 300L65 241L305 241L305 0L364 0L364 241Z" stroke="rgb(224,224,224)" stroke-opacity="1" stroke-width="8" fill="rgb(224,224,224)" fill-opacity="1"></path></g></g><g><g transform="matrix(1,0,0,1,394.45001220703125,67.4333282470703)"><path transform="matrix(0.0136,0,0,-0.0136,0,0)" d="M937 664L950 695C922 699 775 701 773 692L688 536L442 114L292 692C269 686 146 690 125 692L122 664L148 662C200 658 218 648 218 622C218 616 72 100 70 93C54 41 39 28 -16 23L-19 -3L20 -2C54 -1 79 0 93 0C107 0 133 -1 168 -2L203 -3L206 25L168 28C136 30 119 40 119 55C119 65 121 78 126 96L250 560L399 -18L422 -18L479 86L718 500L770 587L733 67C729 39 717 32 666 28L635 25L632 -3L679 -2C721 -1 751 0 766 0C782 0 812 -1 853 -2L899 -3L902 25L865 28C829 31 811 42 811 63L812 100L853 631C855 650 870 660 899 662Z" stroke="rgb(224,224,224)" stroke-opacity="1" stroke-width="8" fill="rgb(224,224,224)" fill-opacity="1"></path></g></g></g></g><g><g><g><text x="500.25" y="218.04998779296875" style="white-space:pre;stroke:none;fill:rgb(224,224,224);fill-opacity:1;font-size:12px;font-family:Arial, Helvetica, sans-serif;font-weight:400;font-style:normal;dominant-baseline:text-before-edge;text-decoration:rgb(224, 224, 224);">all winners</text></g></g><g><g><text x="502.08331298828125" y="230.04998779296875" style="white-space:pre;stroke:none;fill:rgb(224,224,224);fill-opacity:1;font-size:12px;font-family:Arial, Helvetica, sans-serif;font-weight:400;font-style:normal;dominant-baseline:text-before-edge;text-decoration:rgb(224, 224, 224);">cooperate</text></g></g></g><g><g><g><text x="590.7333984375" y="297.76666259765625" style="white-space:pre;stroke:none;fill:rgb(224,224,224);fill-opacity:1;font-size:10.5px;font-family:Arial, Helvetica, sans-serif;font-weight:400;font-style:normal;dominant-baseline:text-before-edge;text-decoration:rgb(224, 224, 224);">payout</text></g></g><g><g><text x="587.5333251953125" y="309.79998779296875" style="white-space:pre;stroke:none;fill:rgb(224,224,224);fill-opacity:1;font-size:10.5px;font-family:Arial, Helvetica, sans-serif;font-weight:400;font-style:normal;dominant-baseline:text-before-edge;text-decoration:rgb(224, 224, 224);">contract</text></g></g></g><g><g><g><text x="593.4000244140625" y="50.43333435058594" style="white-space:pre;stroke:none;fill:rgb(224,224,224);fill-opacity:1;font-size:10.5px;font-family:Arial, Helvetica, sans-serif;font-weight:400;font-style:normal;dominant-baseline:text-before-edge;text-decoration:rgb(224, 224, 224);">payout</text></g></g><g><g><text x="590.199951171875" y="62.46665954589844" style="white-space:pre;stroke:none;fill:rgb(224,224,224);fill-opacity:1;font-size:10.5px;font-family:Arial, Helvetica, sans-serif;font-weight:400;font-style:normal;dominant-baseline:text-before-edge;text-decoration:rgb(224, 224, 224);">contract</text></g></g></g><g><g><g><text x="594.066650390625" y="87.10000610351562" style="white-space:pre;stroke:none;fill:rgb(224,224,224);fill-opacity:1;font-size:10.5px;font-family:Arial, Helvetica, sans-serif;font-weight:400;font-style:normal;dominant-baseline:text-before-edge;text-decoration:rgb(224, 224, 224);">payout</text></g></g><g><g><text x="590.86669921875" y="99.13333129882812" style="white-space:pre;stroke:none;fill:rgb(224,224,224);fill-opacity:1;font-size:10.5px;font-family:Arial, Helvetica, sans-serif;font-weight:400;font-style:normal;dominant-baseline:text-before-edge;text-decoration:rgb(224, 224, 224);">contract</text></g></g></g><g><g><g><g transform="matrix(1,0,0,1,422.41668701171875,318.233349609375)"><path transform="matrix(0.015300000000000001,0,0,-0.015300000000000001,0,0)" d="M604 241L604 300L364 300L364 538L305 538L305 300L65 300L65 241L305 241L305 0L364 0L364 241Z" stroke="rgb(224,224,224)" stroke-opacity="1" stroke-width="8" fill="rgb(224,224,224)" fill-opacity="1"></path></g></g><g><g transform="matrix(1,0,0,1,432.5,318.21668701171876)"><path transform="matrix(0.015300000000000001,0,0,-0.015300000000000001,0,0)" d="M146 266C146 526 243 632 301 700L282 726C225 675 60 542 60 266C60 159 85 58 133 -32C168 -99 200 -138 282 -215L301 -194C255 -137 146 -15 146 266Z" stroke="rgb(224,224,224)" stroke-opacity="1" stroke-width="8" fill="rgb(224,224,224)" fill-opacity="1"></path></g></g><g><g transform="matrix(1,0,0,1,438,318.233349609375)"><path transform="matrix(0.015300000000000001,0,0,-0.015300000000000001,0,0)" d="M390 646L463 646C541 646 577 641 580 629C583 621 585 602 584 592L580 528L608 528L635 692L544 691C456 690 388 689 353 689C316 689 252 690 166 691L71 692L53 528L82 528L97 588C102 610 109 626 115 633C121 640 159 646 196 646L308 646L222 125C206 34 204 31 164 28L113 25L109 -3L166 -2C206 -1 235 0 251 0C270 0 301 -1 340 -2L384 -3L387 25L328 28C302 29 292 37 292 58C292 67 293 74 296 93Z" stroke="rgb(224,224,224)" stroke-opacity="1" stroke-width="8" fill="rgb(224,224,224)" fill-opacity="1"></path></g></g><g><g><g><g><g transform="matrix(1,0,0,1,447.63330078125,320.91001220703123)"><path transform="matrix(0.01071,0,0,-0.01071,0,0)" d="M543 227C543 337 459 353 377 365C434 385 459 397 490 425C536 464 559 511 559 562C559 644 501 692 401 692C399 692 389 692 374 691L311 690C299 689 263 689 251 689C232 689 201 690 152 691L100 692L97 664L150 662C174 661 185 653 185 635C185 621 181 589 176 559L89 55C85 37 73 30 31 23L26 -3L63 -2C90 0 105 0 117 0C128 0 154 -1 180 -2L217 -3L237 -4C256 -5 269 -6 277 -6C392 -6 543 87 543 227ZM166 41L217 340L302 340C405 340 455 298 455 211C455 108 382 34 282 34C228 34 207 38 166 41ZM352 655C433 655 473 619 473 544C473 439 399 376 275 376L223 376L272 650C288 650 329 655 352 655Z" stroke="rgb(224,224,224)" stroke-opacity="1" stroke-width="8" fill="rgb(224,224,224)" fill-opacity="1"></path></g></g></g></g></g><g><g transform="matrix(1,0,0,1,454.9666748046875,318.233349609375)"><path transform="matrix(0.015300000000000001,0,0,-0.015300000000000001,0,0)" d="M179.50274 -172L179.50274 713L120.50274 713L120.50274 -172ZM479.50274 -172L479.50274 713L420.50274 713L420.50274 -172Z" stroke="rgb(224,224,224)" stroke-opacity="1" stroke-width="8" fill="rgb(224,224,224)" fill-opacity="1"></path></g></g><g><g transform="matrix(1,0,0,1,464.13330078125,318.233349609375)"><path transform="matrix(0.015300000000000001,0,0,-0.015300000000000001,0,0)" d="M390 646L463 646C541 646 577 641 580 629C583 621 585 602 584 592L580 528L608 528L635 692L544 691C456 690 388 689 353 689C316 689 252 690 166 691L71 692L53 528L82 528L97 588C102 610 109 626 115 633C121 640 159 646 196 646L308 646L222 125C206 34 204 31 164 28L113 25L109 -3L166 -2C206 -1 235 0 251 0C270 0 301 -1 340 -2L384 -3L387 25L328 28C302 29 292 37 292 58C292 67 293 74 296 93Z" stroke="rgb(224,224,224)" stroke-opacity="1" stroke-width="8" fill="rgb(224,224,224)" fill-opacity="1"></path></g></g><g><g><g><g><g transform="matrix(1,0,0,1,473.76666259765625,320.91001220703123)"><path transform="matrix(0.01071,0,0,-0.01071,0,0)" d="M45 284C45 90 152 -18 343 -18C439 -18 510 5 600 67C600 67 610 103 610 103C610 103 600 110 600 110C506 53 454 35 376 35C219 35 133 131 133 309C133 447 190 653 418 653C489 653 541 639 597 603L597 519L624 519C629 576 637 619 651 665C575 694 518 706 456 706C276 706 45 578 45 284Z" stroke="rgb(224,224,224)" stroke-opacity="1" stroke-width="8" fill="rgb(224,224,224)" fill-opacity="1"></path></g></g></g></g></g><g><g transform="matrix(1,0,0,1,482.01666259765625,318.21668701171876)"><path transform="matrix(0.015300000000000001,0,0,-0.015300000000000001,0,0)" d="M51 726L32 700C87 636 187 526 187 266C187 -10 83 -131 32 -194L51 -215C104 -165 273 -23 273 265C273 542 108 675 51 726Z" stroke="rgb(224,224,224)" stroke-opacity="1" stroke-width="8" fill="rgb(224,224,224)" fill-opacity="1"></path></g></g></g></g><g><g><g><g transform="matrix(1,0,0,1,423.08331298828125,66.23333435058593)"><path transform="matrix(0.015300000000000001,0,0,-0.015300000000000001,0,0)" d="M604 241L604 300L364 300L364 538L305 538L305 300L65 300L65 241L305 241L305 0L364 0L364 241Z" stroke="rgb(224,224,224)" stroke-opacity="1" stroke-width="8" fill="rgb(224,224,224)" fill-opacity="1"></path></g></g><g><g transform="matrix(1,0,0,1,433.16668701171875,66.21667175292968)"><path transform="matrix(0.015300000000000001,0,0,-0.015300000000000001,0,0)" d="M146 266C146 526 243 632 301 700L282 726C225 675 60 542 60 266C60 159 85 58 133 -32C168 -99 200 -138 282 -215L301 -194C255 -137 146 -15 146 266Z" stroke="rgb(224,224,224)" stroke-opacity="1" stroke-width="8" fill="rgb(224,224,224)" fill-opacity="1"></path></g></g><g><g transform="matrix(1,0,0,1,438.66668701171875,66.23333435058593)"><path transform="matrix(0.015300000000000001,0,0,-0.015300000000000001,0,0)" d="M390 646L463 646C541 646 577 641 580 629C583 621 585 602 584 592L580 528L608 528L635 692L544 691C456 690 388 689 353 689C316 689 252 690 166 691L71 692L53 528L82 528L97 588C102 610 109 626 115 633C121 640 159 646 196 646L308 646L222 125C206 34 204 31 164 28L113 25L109 -3L166 -2C206 -1 235 0 251 0C270 0 301 -1 340 -2L384 -3L387 25L328 28C302 29 292 37 292 58C292 67 293 74 296 93Z" stroke="rgb(224,224,224)" stroke-opacity="1" stroke-width="8" fill="rgb(224,224,224)" fill-opacity="1"></path></g></g><g><g><g><g><g transform="matrix(1,0,0,1,448.29998779296875,68.9099969482422)"><path transform="matrix(0.01071,0,0,-0.01071,0,0)" d="M567 55C567 39 552 30 524 28L480 25L480 -3C582 0 582 0 602 0C622 0 622 0 724 -3L724 25L698 28C651 35 650 35 642 80L555 705L509 705L136 112C100 56 82 40 48 32L28 27L28 -3C120 0 120 0 140 0C159 0 161 0 247 -3L247 25L195 28C179 29 164 38 164 47C164 55 171 69 190 102L292 277L538 277L563 89L563 86C563 84 567 69 567 55ZM496 601L533 313L317 313Z" stroke="rgb(224,224,224)" stroke-opacity="1" stroke-width="8" fill="rgb(224,224,224)" fill-opacity="1"></path></g></g></g></g></g><g><g transform="matrix(1,0,0,1,457.4666748046875,66.23333435058593)"><path transform="matrix(0.015300000000000001,0,0,-0.015300000000000001,0,0)" d="M179.50274 -172L179.50274 713L120.50274 713L120.50274 -172ZM479.50274 -172L479.50274 713L420.50274 713L420.50274 -172Z" stroke="rgb(224,224,224)" stroke-opacity="1" stroke-width="8" fill="rgb(224,224,224)" fill-opacity="1"></path></g></g><g><g transform="matrix(1,0,0,1,466.63330078125,66.23333435058593)"><path transform="matrix(0.015300000000000001,0,0,-0.015300000000000001,0,0)" d="M390 646L463 646C541 646 577 641 580 629C583 621 585 602 584 592L580 528L608 528L635 692L544 691C456 690 388 689 353 689C316 689 252 690 166 691L71 692L53 528L82 528L97 588C102 610 109 626 115 633C121 640 159 646 196 646L308 646L222 125C206 34 204 31 164 28L113 25L109 -3L166 -2C206 -1 235 0 251 0C270 0 301 -1 340 -2L384 -3L387 25L328 28C302 29 292 37 292 58C292 67 293 74 296 93Z" stroke="rgb(224,224,224)" stroke-opacity="1" stroke-width="8" fill="rgb(224,224,224)" fill-opacity="1"></path></g></g><g><g><g><g><g transform="matrix(1,0,0,1,476.26666259765625,68.9099969482422)"><path transform="matrix(0.01071,0,0,-0.01071,0,0)" d="M543 227C543 337 459 353 377 365C434 385 459 397 490 425C536 464 559 511 559 562C559 644 501 692 401 692C399 692 389 692 374 691L311 690C299 689 263 689 251 689C232 689 201 690 152 691L100 692L97 664L150 662C174 661 185 653 185 635C185 621 181 589 176 559L89 55C85 37 73 30 31 23L26 -3L63 -2C90 0 105 0 117 0C128 0 154 -1 180 -2L217 -3L237 -4C256 -5 269 -6 277 -6C392 -6 543 87 543 227ZM166 41L217 340L302 340C405 340 455 298 455 211C455 108 382 34 282 34C228 34 207 38 166 41ZM352 655C433 655 473 619 473 544C473 439 399 376 275 376L223 376L272 650C288 650 329 655 352 655Z" stroke="rgb(224,224,224)" stroke-opacity="1" stroke-width="8" fill="rgb(224,224,224)" fill-opacity="1"></path></g></g></g></g></g><g><g transform="matrix(1,0,0,1,483.5999755859375,66.21667175292968)"><path transform="matrix(0.015300000000000001,0,0,-0.015300000000000001,0,0)" d="M51 726L32 700C87 636 187 526 187 266C187 -10 83 -131 32 -194L51 -215C104 -165 273 -23 273 265C273 542 108 675 51 726Z" stroke="rgb(224,224,224)" stroke-opacity="1" stroke-width="8" fill="rgb(224,224,224)" fill-opacity="1"></path></g></g></g></g><g><g><g><g><g><g><text x="508.25" y="135.933349609375" style="white-space:pre;stroke:none;fill:rgb(224,224,224);fill-opacity:1;font-size:13.5px;font-family:Arial, Helvetica, sans-serif;font-weight:400;font-style:normal;dominant-baseline:text-before-edge;text-decoration:rgb(224, 224, 224);">TX</text></g></g></g></g><g><g><g><g><g><g><g><text x="526.13330078125" y="147.04998779296875" style="white-space:pre;stroke:none;fill:rgb(224,224,224);fill-opacity:1;font-size:9.45px;font-family:Arial, Helvetica, sans-serif;font-weight:400;font-style:normal;dominant-baseline:text-before-edge;text-decoration:rgb(224, 224, 224);">reclaim</text></g></g></g></g></g></g></g></g></g><g><g><g><g transform="matrix(1,0,0,1,580.25,170.91668701171875)"><path transform="matrix(0.017,0,0,-0.017,0,0)" d="M937 664L950 695C922 699 775 701 773 692L688 536L442 114L292 692C269 686 146 690 125 692L122 664L148 662C200 658 218 648 218 622C218 616 72 100 70 93C54 41 39 28 -16 23L-19 -3L20 -2C54 -1 79 0 93 0C107 0 133 -1 168 -2L203 -3L206 25L168 28C136 30 119 40 119 55C119 65 121 78 126 96L250 560L399 -18L422 -18L479 86L718 500L770 587L733 67C729 39 717 32 666 28L635 25L632 -3L679 -2C721 -1 751 0 766 0C782 0 812 -1 853 -2L899 -3L902 25L865 28C829 31 811 42 811 63L812 100L853 631C855 650 870 660 899 662Z" stroke="rgb(224,224,224)" stroke-opacity="1" stroke-width="8" fill="rgb(224,224,224)" fill-opacity="1"></path></g></g></g></g><g><g><g><g transform="matrix(1,0,0,1,441.58331298828125,182.91668701171875)"><path transform="matrix(0.017,0,0,-0.017,0,0)" d="M604 241L604 300L364 300L364 538L305 538L305 300L65 300L65 241L305 241L305 0L364 0L364 241Z" stroke="rgb(224,224,224)" stroke-opacity="1" stroke-width="8" fill="rgb(224,224,224)" fill-opacity="1"></path></g></g><g><g transform="matrix(1,0,0,1,452.58331298828125,182.91668701171875)"><path transform="matrix(0.017,0,0,-0.017,0,0)" d="M16 23L16 -3C203 -3 203 0 239 0C275 0 275 -3 468 -3L468 82C353 77 307 81 122 77L304 270C401 373 431 428 431 503C431 618 353 689 226 689C154 689 105 669 56 619L39 483L68 483L81 529C97 587 133 612 200 612C286 612 341 558 341 473C341 398 299 324 186 204ZM466 6L471 -4C578 0 684 0 791 0C892 0 993 -1 1093 -4L1101 6C1059 116 1033 238 1003 354C974 466 941 580 923 697L898 697C835 587 552 127 466 6ZM981 37L549 37C647 215 748 389 855 564L862 564C907 391 948 215 981 37Z" stroke="rgb(224,224,224)" stroke-opacity="1" stroke-width="8" fill="rgb(224,224,224)" fill-opacity="1"></path></g></g></g></g><g><g><g><g><g><g><g transform="matrix(1,0,0,1,528.25,185.25)"><path transform="matrix(0.017,0,0,-0.017,0,0)" d="M166 420C187 420 203 421 229 424C118 304 76 221 76 121C76 44 122 -11 186 -11C324 -11 477 236 477 384C477 441 451 482 415 482C402 482 390 478 382 470L332 423L343 404C352 410 361 413 370 413C397 413 413 390 413 350C413 202 316 39 228 39C179 39 148 81 148 146C148 251 187 342 285 464L275 482C255 473 242 470 214 470C186 470 144 472 115 475L103 476C97 477 92 477 91 477C79 477 70 475 59 470C45 443 34 407 21 352L43 352L60 394C67 411 87 422 111 422C144 422 128 420 166 420Z" stroke="rgb(224,224,224)" stroke-opacity="1" stroke-width="8" fill="rgb(224,224,224)" fill-opacity="1"></path></g></g></g></g><svg x="528.25" overflow="visible" y="166.58331298828125" height="9" width="8.25"><polyline points="0.00,8.06 4.13,5.31 8.25,8.06" style="fill:none;fill-opacity:1;stroke-width:1px;stroke:rgb(224,224,224);stroke-opacity:1;"></polyline></svg></g></g></g><g><g><g><text x="497.58331298828125" y="470.7166748046875" style="white-space:pre;stroke:none;fill:rgb(224,224,224);fill-opacity:1;font-size:12px;font-family:Arial, Helvetica, sans-serif;font-weight:400;font-style:normal;dominant-baseline:text-before-edge;text-decoration:rgb(224, 224, 224);">all winners</text></g></g><g><g><text x="499.41668701171875" y="482.7166748046875" style="white-space:pre;stroke:none;fill:rgb(224,224,224);fill-opacity:1;font-size:12px;font-family:Arial, Helvetica, sans-serif;font-weight:400;font-style:normal;dominant-baseline:text-before-edge;text-decoration:rgb(224, 224, 224);">cooperate</text></g></g></g><g><g><g><g><g><g><text x="505.58331298828125" y="388.5999755859375" style="white-space:pre;stroke:none;fill:rgb(224,224,224);fill-opacity:1;font-size:13.5px;font-family:Arial, Helvetica, sans-serif;font-weight:400;font-style:normal;dominant-baseline:text-before-edge;text-decoration:rgb(224, 224, 224);">TX</text></g></g></g></g><g><g><g><g><g><g><g><text x="523.4666748046875" y="399.7166748046875" style="white-space:pre;stroke:none;fill:rgb(224,224,224);fill-opacity:1;font-size:9.45px;font-family:Arial, Helvetica, sans-serif;font-weight:400;font-style:normal;dominant-baseline:text-before-edge;text-decoration:rgb(224, 224, 224);">reclaim</text></g></g></g></g></g></g></g></g></g><g><g><g><g transform="matrix(1,0,0,1,577.5833740234375,423.58331298828125)"><path transform="matrix(0.017,0,0,-0.017,0,0)" d="M937 664L950 695C922 699 775 701 773 692L688 536L442 114L292 692C269 686 146 690 125 692L122 664L148 662C200 658 218 648 218 622C218 616 72 100 70 93C54 41 39 28 -16 23L-19 -3L20 -2C54 -1 79 0 93 0C107 0 133 -1 168 -2L203 -3L206 25L168 28C136 30 119 40 119 55C119 65 121 78 126 96L250 560L399 -18L422 -18L479 86L718 500L770 587L733 67C729 39 717 32 666 28L635 25L632 -3L679 -2C721 -1 751 0 766 0C782 0 812 -1 853 -2L899 -3L902 25L865 28C829 31 811 42 811 63L812 100L853 631C855 650 870 660 899 662Z" stroke="rgb(224,224,224)" stroke-opacity="1" stroke-width="8" fill="rgb(224,224,224)" fill-opacity="1"></path></g></g></g></g><g><g><g><g transform="matrix(1,0,0,1,438.91668701171875,435.58331298828125)"><path transform="matrix(0.017,0,0,-0.017,0,0)" d="M604 241L604 300L364 300L364 538L305 538L305 300L65 300L65 241L305 241L305 0L364 0L364 241Z" stroke="rgb(224,224,224)" stroke-opacity="1" stroke-width="8" fill="rgb(224,224,224)" fill-opacity="1"></path></g></g><g><g transform="matrix(1,0,0,1,449.91668701171875,435.58331298828125)"><path transform="matrix(0.017,0,0,-0.017,0,0)" d="M16 23L16 -3C203 -3 203 0 239 0C275 0 275 -3 468 -3L468 82C353 77 307 81 122 77L304 270C401 373 431 428 431 503C431 618 353 689 226 689C154 689 105 669 56 619L39 483L68 483L81 529C97 587 133 612 200 612C286 612 341 558 341 473C341 398 299 324 186 204ZM466 6L471 -4C578 0 684 0 791 0C892 0 993 -1 1093 -4L1101 6C1059 116 1033 238 1003 354C974 466 941 580 923 697L898 697C835 587 552 127 466 6ZM981 37L549 37C647 215 748 389 855 564L862 564C907 391 948 215 981 37Z" stroke="rgb(224,224,224)" stroke-opacity="1" stroke-width="8" fill="rgb(224,224,224)" fill-opacity="1"></path></g></g></g></g><g><g><g><g><g><g><g transform="matrix(1,0,0,1,525.5833740234375,437.91668701171875)"><path transform="matrix(0.017,0,0,-0.017,0,0)" d="M166 420C187 420 203 421 229 424C118 304 76 221 76 121C76 44 122 -11 186 -11C324 -11 477 236 477 384C477 441 451 482 415 482C402 482 390 478 382 470L332 423L343 404C352 410 361 413 370 413C397 413 413 390 413 350C413 202 316 39 228 39C179 39 148 81 148 146C148 251 187 342 285 464L275 482C255 473 242 470 214 470C186 470 144 472 115 475L103 476C97 477 92 477 91 477C79 477 70 475 59 470C45 443 34 407 21 352L43 352L60 394C67 411 87 422 111 422C144 422 128 420 166 420Z" stroke="rgb(224,224,224)" stroke-opacity="1" stroke-width="8" fill="rgb(224,224,224)" fill-opacity="1"></path></g></g></g></g><svg x="525.5833740234375" overflow="visible" y="419.25" height="9" width="8.25"><polyline points="0.00,8.06 4.13,5.31 8.25,8.06" style="fill:none;fill-opacity:1;stroke-width:1px;stroke:rgb(224,224,224);stroke-opacity:1;"></polyline></svg></g></g></g><g><g><g><text x="359.5333251953125" y="573.8499755859375" style="white-space:pre;stroke:none;fill:rgb(224,224,224);fill-opacity:1;font-size:15.12px;font-family:Arial, Helvetica, sans-serif;font-weight:400;font-style:normal;dominant-baseline:text-before-edge;text-decoration:rgb(224, 224, 224);">payout contract for </text></g><g><g><g><g><g transform="matrix(1,0,0,1,488.7833251953125,587.319349609375)"><path transform="matrix(0.017136,0,0,-0.017136,0,0)" d="M45 284C45 90 152 -18 343 -18C439 -18 510 5 600 67C600 67 610 103 610 103C610 103 600 110 600 110C506 53 454 35 376 35C219 35 133 131 133 309C133 447 190 653 418 653C489 653 541 639 597 603L597 519L624 519C629 576 637 619 651 665C575 694 518 706 456 706C276 706 45 578 45 284Z" stroke="rgb(224,224,224)" stroke-opacity="1" stroke-width="8" fill="rgb(224,224,224)" fill-opacity="1"></path></g></g></g></g></g></g></g></svg>
</svg>
