<svg xmlns="http://www.w3.org/2000/svg" xmlns:xlink="http://www.w3.org/1999/xlink" x="0" y="0" width="662" height="302" style="
        width:662px;
        height:302px;
        background: transparent;
        fill: none;
">
        
        
        <svg xmlns="http://www.w3.org/2000/svg" class="role-diagram-draw-area"><g class="shapes-region" style="stroke: black; fill: none;"><g class="composite-shape"><path class="real" d=" M35.33,40.87 C35.33,34.5 40.5,29.33 46.87,29.33 L129.47,29.33 C135.84,29.33 141,34.5 141,40.87 L141,75.47 C141,81.84 135.84,87 129.47,87 L46.87,87 C40.5,87 35.33,81.84 35.33,75.47 Z" style="stroke-width: 1px; stroke: rgb(224, 224, 224); fill: none; fill-opacity: 1;"/></g><g class="composite-shape"><path class="real" d=" M213.33,42.2 C213.33,35.83 218.5,30.67 224.87,30.67 L326.13,30.67 C332.5,30.67 337.67,35.83 337.67,42.2 L337.67,76.8 C337.67,83.17 332.5,88.33 326.13,88.33 L224.87,88.33 C218.5,88.33 213.33,83.17 213.33,76.8 Z" style="stroke-width: 1px; stroke: rgb(224, 224, 224); fill: none; fill-opacity: 1;"/></g><g class="composite-shape"><path class="real" d=" M358,196.73 C358,188.6 364.6,182 372.73,182 L481.6,182 C489.74,182 496.33,188.6 496.33,196.73 L496.33,240.93 C496.33,249.07 489.74,255.67 481.6,255.67 L372.73,255.67 C364.6,255.67 358,249.07 358,240.93 Z" style="stroke-width: 1px; stroke: rgb(224, 224, 224); fill: none; fill-opacity: 1;"/></g><g class="arrow-line"><path class="connection real" stroke-dasharray="" d="  M140.67,61 L211.67,61.65" style="stroke: rgb(224, 224, 224); stroke-width: 1px; fill: none; fill-opacity: 1;"/><g stroke="#e0e0e0" transform="matrix(-0.9999588160075348,-0.009075587518675576,0.009075587518675576,-0.9999588160075348,213.66666666666666,61.66666666666667)" style="stroke: rgb(224, 224, 224); stroke-width: 1px;"><path d=" M10.93,-3.29 Q4.96,-0.45 0,0 Q4.96,0.45 10.93,3.29"/></g></g><g class="arrow-line"><path class="connection real" stroke-dasharray="" d="  M338.67,61 L427,61.65" style="stroke: rgb(224, 224, 224); stroke-width: 1px; fill: none; fill-opacity: 1;"/><g stroke="#e0e0e0" transform="matrix(-0.9999731328638829,-0.0073303172094600026,0.0073303172094600026,-0.9999731328638829,428.99999999999994,61.66666666666667)" style="stroke: rgb(224, 224, 224); stroke-width: 1px;"><path d=" M10.93,-3.29 Q4.96,-0.45 0,0 Q4.96,0.45 10.93,3.29"/></g></g><g class="arrow-line"><path class="connection real" stroke-dasharray="1.125 3.35" d="  M369.53,182 L326.97,90.15" style="stroke: rgb(224, 224, 224); stroke-width: 1px; fill: none; fill-opacity: 1;"/><g stroke="#e0e0e0" transform="matrix(0.42040247463466357,0.9073377316749541,-0.9073377316749541,0.42040247463466357,326.1333333333333,88.33333333333331)" style="stroke: rgb(224, 224, 224); stroke-width: 1px;"><path d=" M10.93,-3.29 Q4.96,-0.45 0,0 Q4.96,0.45 10.93,3.29"/></g></g><g/></g><g/><g/><g/></svg>
        <svg xmlns="http://www.w3.org/2000/svg" xmlns:xlink="http://www.w3.org/1999/xlink" width="660" height="300" style="width:660px;height:300px;font-family:Asana-Math, Asana;background:transparent;"><g><g><g><text x="51" y="48" style="white-space:pre;stroke:none;fill:rgb(224,224,224);fill-opacity:1;font-size:15px;font-family:Arial, Helvetica, sans-serif;font-weight:400;font-style:normal;dominant-baseline:text-before-edge;text-decoration:rgb(224, 224, 224);">Commit TX</text></g></g></g><g><g><g><text x="229.66666666666666" y="40.66666666666667" style="white-space:pre;stroke:none;fill:rgb(224,224,224);fill-opacity:1;font-size:15px;font-family:Arial, Helvetica, sans-serif;font-weight:400;font-style:normal;dominant-baseline:text-before-edge;text-decoration:rgb(224, 224, 224);">Ciphertext TX</text></g></g></g><g><g><g><text x="380.3333333333333" y="192" style="white-space:pre;stroke:none;fill:rgb(224,224,224);fill-opacity:1;font-size:15px;font-family:Arial, Helvetica, sans-serif;font-weight:400;font-style:normal;dominant-baseline:text-before-edge;text-decoration:rgb(224, 224, 224);">Translator TX</text></g></g></g><g><g><g><text x="441.6666666666667" y="47.35555013020833" style="white-space:pre;stroke:none;fill:rgb(224,224,224);fill-opacity:1;font-size:10.5px;font-family:Arial, Helvetica, sans-serif;font-weight:400;font-style:normal;dominant-baseline:text-before-edge;text-decoration:rgb(224, 224, 224);">Inscription</text></g></g><g><g><text x="441.6666666666667" y="62.0555419921875" style="white-space:pre;stroke:none;fill:rgb(224,224,224);fill-opacity:1;font-size:10.5px;font-family:Arial, Helvetica, sans-serif;font-weight:400;font-style:normal;dominant-baseline:text-before-edge;text-decoration:rgb(224, 224, 224);"> Recipient</text></g></g></g><g><g><g><text x="228.33333333333334" y="74.40000406901042" style="white-space:pre;stroke:none;fill:rgb(224,224,224);fill-opacity:1;font-size:12px;font-family:Arial, Helvetica, sans-serif;font-weight:400;font-style:normal;dominant-baseline:text-before-edge;text-decoration:rgb(224, 224, 224);">reveals ciphertext</text></g></g></g><g><g><g><text x="377.6666666666667" y="219.066650390625" style="white-space:pre;stroke:none;fill:rgb(224,224,224);fill-opacity:1;font-size:12px;font-family:Arial, Helvetica, sans-serif;font-weight:400;font-style:normal;dominant-baseline:text-before-edge;text-decoration:rgb(224, 224, 224);">reveals translator;</text></g></g><g><g><text x="364.6666666666667" y="235.86665852864581" style="white-space:pre;stroke:none;fill:rgb(224,224,224);fill-opacity:1;font-size:12px;font-family:Arial, Helvetica, sans-serif;font-weight:400;font-style:normal;dominant-baseline:text-before-edge;text-decoration:rgb(224, 224, 224);">points to Ciphertext TX</text></g></g></g></svg>
</svg>
