<svg xmlns="http://www.w3.org/2000/svg" xmlns:xlink="http://www.w3.org/1999/xlink" x="0" y="0" width="662" height="258" style="
        width:662px;
        height:258px;
        background: transparent;
        fill: none;
">


        <svg xmlns="http://www.w3.org/2000/svg" class="role-diagram-draw-area"><g class="shapes-region" style="stroke: black; fill: none;"><g class="composite-shape"><path class="real" d=" M40,20 L160,20 L160,160 L40,160 Z" style="stroke-width: 1px; stroke: rgb(224, 224, 224); fill: none; fill-opacity: 1;"/></g><g class="composite-shape"><path class="real" d=" M70,63 L130,63 L130,93 L70,93 Z" style="stroke-width: 1px; stroke: rgb(224, 224, 224); fill: none; fill-opacity: 1;"/></g><g class="composite-shape"><path class="real" d=" M65,114 L135,114 L135,144 L65,144 Z" style="stroke-width: 1px; stroke: rgb(224, 224, 224); fill: none; fill-opacity: 1;"/></g><g class="arrow-line"><path class="connection real" stroke-dasharray="" d="  M130,75 L320,75" style="stroke: rgb(224, 224, 224); stroke-width: 1px; fill: none; fill-opacity: 1;"/></g><g class="composite-shape"><path class="real" d=" M320,63 C320,58.58 323.58,55 328,55 L382,55 C386.42,55 390,58.58 390,63 L390,87 C390,91.42 386.42,95 382,95 L328,95 C323.58,95 320,91.42 320,87 Z" style="stroke-width: 1px; stroke: rgb(224, 224, 224); fill: none; fill-opacity: 1; stroke-dasharray: 6px, 6px;"/></g><g class="arrow-line"><path class="connection real" stroke-dasharray="" d="  M135,130 L378,130" style="stroke: rgb(224, 224, 224); stroke-width: 1px; fill: none; fill-opacity: 1;"/><g stroke="#e0e0e0" transform="matrix(-1,1.2246467991473532e-16,-1.2246467991473532e-16,-1,380,130)" style="stroke: rgb(224, 224, 224); stroke-width: 1px;"><path d=" M10.93,-3.29 Q4.96,-0.45 0,0 Q4.96,0.45 10.93,3.29"/></g></g><g class="grouped-shape"><g class="composite-shape"><path class="real" d=" M380,110 L450,110 L450,150 L380,150 Z" style="stroke-width: 1px; stroke: rgb(224, 224, 224); fill: none; fill-opacity: 1;"/></g></g><g class="arrow-line"><path class="connection real" stroke-dasharray="" d="  M180,130 L180,210" style="stroke: rgb(224, 224, 224); stroke-width: 1px; fill: none; fill-opacity: 1;"/></g><g class="arrow-line"><path class="connection real" stroke-dasharray="" d="  M180,210 L288,210" style="stroke: rgb(224, 224, 224); stroke-width: 1px; fill: none; fill-opacity: 1;"/><g stroke="#e0e0e0" transform="matrix(-1,1.2246467991473532e-16,-1.2246467991473532e-16,-1,290,210.00000000000003)" style="stroke: rgb(224, 224, 224); stroke-width: 1px;"><path d=" M10.93,-3.29 Q4.96,-0.45 0,0 Q4.96,0.45 10.93,3.29"/></g></g><g class="arrow-line"><path class="connection real" stroke-dasharray="" d="  M450,130 L518,130" style="stroke: rgb(224, 224, 224); stroke-width: 1px; fill: none; fill-opacity: 1;"/><g stroke="#e0e0e0" transform="matrix(-1,1.2246467991473532e-16,-1.2246467991473532e-16,-1,520,130)" style="stroke: rgb(224, 224, 224); stroke-width: 1px;"><path d=" M10.93,-3.29 Q4.96,-0.45 0,0 Q4.96,0.45 10.93,3.29"/></g></g><g/></g><g/><g/><g/></svg>
        <svg xmlns="http://www.w3.org/2000/svg" xmlns:xlink="http://www.w3.org/1999/xlink" width="660" height="256" style="width:660px;height:256px;font-family:Asana-Math, Asana;background:transparent;"><g><g><g><g><g><g><text x="82" y="26.23333740234375" style="white-space:pre;stroke:none;fill:rgb(224,224,224);fill-opacity:1;font-size:18px;font-family:Arial, Helvetica, sans-serif;font-weight:400;font-style:normal;dominant-baseline:text-before-edge;text-decoration:rgb(224, 224, 224);">TX</text></g></g></g></g><g><g><g><g><g><g><g><text x="105.62223307291667" y="41.25555419921875" style="white-space:pre;stroke:none;fill:rgb(224,224,224);fill-opacity:1;font-size:12.6px;font-family:Arial, Helvetica, sans-serif;font-weight:400;font-style:normal;dominant-baseline:text-before-edge;text-decoration:rgb(224, 224, 224);">init</text></g></g></g></g></g></g></g></g></g><g><g><g><text x="75" y="68" style="white-space:pre;stroke:none;fill:rgb(224,224,224);fill-opacity:1;font-size:15px;font-family:Arial, Helvetica, sans-serif;font-weight:400;font-style:normal;dominant-baseline:text-before-edge;text-decoration:rgb(224, 224, 224);">jackpot</text></g></g></g><g><g><g><text x="72" y="119" style="white-space:pre;stroke:none;fill:rgb(224,224,224);fill-opacity:1;font-size:15px;font-family:Arial, Helvetica, sans-serif;font-weight:400;font-style:normal;dominant-baseline:text-before-edge;text-decoration:rgb(224, 224, 224);">collateral</text></g></g></g><g><g><g><g transform="matrix(1,0,0,1,172,67.19999186197917)"><path transform="matrix(0.017,0,0,-0.017,0,0)" d="M316 -3C388 -3 437 8 489 34C645 114 741 265 741 431C741 529 711 599 650 642C604 675 519 693 424 692L220 689L210 689C201 689 198 689 97 692L94 664L147 662C171 661 182 653 182 635C182 621 178 589 173 559L86 55C81 31 56 29 33 23L28 -3L121 0L176 0C211 0 282 -3 316 -3ZM384 655C566 655 649 579 649 415C649 225 549 41 329 41C285 41 236 46 168 56C168 68 169 75 172 93L268 650C291 650 349 655 384 655Z" stroke="rgb(224,224,224)" stroke-opacity="1" stroke-width="8" fill="rgb(224,224,224)" fill-opacity="1"></path></g></g><g><g transform="matrix(1,0,0,1,188.39998372395834,67.19999186197917)"><path transform="matrix(0.017,0,0,-0.017,0,0)" d="M604 241L604 300L364 300L364 538L305 538L305 300L65 300L65 241L305 241L305 0L364 0L364 241Z" stroke="rgb(224,224,224)" stroke-opacity="1" stroke-width="8" fill="rgb(224,224,224)" fill-opacity="1"></path></g></g><g><g transform="matrix(1,0,0,1,202.80000813802084,67.19999186197917)"><path transform="matrix(0.017,0,0,-0.017,0,0)" d="M105 664L160 662C184 661 195 653 195 635L112 125C95 34 94 31 54 28L13 25L9 -3L51 -2C92 -1 123 0 141 0C158 0 187 -1 227 -2L280 -3L283 25L218 28C192 29 182 37 182 58C182 67 183 74 186 93L284 648C320 654 336 656 355 656C457 656 506 612 506 519C506 411 434 323 346 323C324 323 304 328 267 342L269 311C306 293 326 288 355 288C484 288 594 405 594 541C594 642 531 695 412 692L108 692Z" stroke="rgb(224,224,224)" stroke-opacity="1" stroke-width="8" fill="rgb(224,224,224)" fill-opacity="1"></path></g></g><g><g><g><g><g transform="matrix(1,0,0,1,213.32222493489584,69.99999593098958)"><path transform="matrix(0.0119,0,0,-0.0119,0,0)" d="M418 -3L418 27L366 30C311 33 301 44 301 96L301 700L60 598L67 548L217 614L217 96C217 44 206 33 152 30L96 27L96 -3C250 0 250 0 261 0C292 0 402 -3 418 -3Z" stroke="rgb(224,224,224)" stroke-opacity="1" stroke-width="8" fill="rgb(224,224,224)" fill-opacity="1"></path></g></g></g></g></g><g><g transform="matrix(1,0,0,1,223.73331705729166,67.19999186197917)"><path transform="matrix(0.017,0,0,-0.017,0,0)" d="M604 241L604 300L364 300L364 538L305 538L305 300L65 300L65 241L305 241L305 0L364 0L364 241Z" stroke="rgb(224,224,224)" stroke-opacity="1" stroke-width="8" fill="rgb(224,224,224)" fill-opacity="1"></path></g></g><g><g transform="matrix(1,0,0,1,238.13334147135419,67.19999186197917)"><path transform="matrix(0.017,0,0,-0.017,0,0)" d="M105 664L160 662C184 661 195 653 195 635L112 125C95 34 94 31 54 28L13 25L9 -3L51 -2C92 -1 123 0 141 0C158 0 187 -1 227 -2L280 -3L283 25L218 28C192 29 182 37 182 58C182 67 183 74 186 93L284 648C320 654 336 656 355 656C457 656 506 612 506 519C506 411 434 323 346 323C324 323 304 328 267 342L269 311C306 293 326 288 355 288C484 288 594 405 594 541C594 642 531 695 412 692L108 692Z" stroke="rgb(224,224,224)" stroke-opacity="1" stroke-width="8" fill="rgb(224,224,224)" fill-opacity="1"></path></g></g><g><g><g><g><g transform="matrix(1,0,0,1,248.65555826822919,69.99999593098958)"><path transform="matrix(0.0119,0,0,-0.0119,0,0)" d="M16 23L16 -3C203 -3 203 0 239 0C275 0 275 -3 468 -3L468 82C353 77 307 81 122 77L304 270C401 373 431 428 431 503C431 618 353 689 226 689C154 689 105 669 56 619L39 483L68 483L81 529C97 587 133 612 200 612C286 612 341 558 341 473C341 398 299 324 186 204Z" stroke="rgb(224,224,224)" stroke-opacity="1" stroke-width="8" fill="rgb(224,224,224)" fill-opacity="1"></path></g></g></g></g></g><g><g transform="matrix(1,0,0,1,259.066650390625,67.19999186197917)"><path transform="matrix(0.017,0,0,-0.017,0,0)" d="M604 241L604 300L364 300L364 538L305 538L305 300L65 300L65 241L305 241L305 0L364 0L364 241Z" stroke="rgb(224,224,224)" stroke-opacity="1" stroke-width="8" fill="rgb(224,224,224)" fill-opacity="1"></path></g></g><g><g transform="matrix(1,0,0,1,273.4666748046875,67.19999186197917)"><path transform="matrix(0.017,0,0,-0.017,0,0)" d="M124 111C94 111 67 83 67 53C67 23 94 -5 123 -5C155 -5 183 22 183 53C183 83 155 111 124 111ZM373 111C343 111 316 83 316 53C316 23 343 -5 372 -5C404 -5 432 22 432 53C432 83 404 111 373 111ZM622 111C592 111 565 83 565 53C565 23 592 -5 621 -5C653 -5 681 22 681 53C681 83 653 111 622 111Z" stroke="rgb(224,224,224)" stroke-opacity="1" stroke-width="8" fill="rgb(224,224,224)" fill-opacity="1"></path></g></g><g><g transform="matrix(1,0,0,1,288.8666585286458,67.19999186197917)"><path transform="matrix(0.017,0,0,-0.017,0,0)" d="M105 664L160 662C184 661 195 653 195 635L112 125C95 34 94 31 54 28L13 25L9 -3L51 -2C92 -1 123 0 141 0C158 0 187 -1 227 -2L280 -3L283 25L218 28C192 29 182 37 182 58C182 67 183 74 186 93L284 648C320 654 336 656 355 656C457 656 506 612 506 519C506 411 434 323 346 323C324 323 304 328 267 342L269 311C306 293 326 288 355 288C484 288 594 405 594 541C594 642 531 695 412 692L108 692Z" stroke="rgb(224,224,224)" stroke-opacity="1" stroke-width="8" fill="rgb(224,224,224)" fill-opacity="1"></path></g></g><g><g><g><g><g transform="matrix(1,0,0,1,299.3888753255208,69.99999593098958)"><path transform="matrix(0.0119,0,0,-0.0119,0,0)" d="M24 388L31 368L63 389C100 412 103 414 110 414C121 414 128 404 128 389C128 338 87 145 46 2L53 -9C78 -2 101 4 123 8C142 134 163 199 209 268C263 352 338 414 383 414C394 414 400 405 400 390C400 372 397 351 389 319L337 107C328 70 324 47 324 31C324 6 335 -9 354 -9C380 -9 416 12 514 85L504 103L478 86C449 67 427 56 417 56C410 56 404 65 404 76C404 81 405 92 406 96L472 372C479 401 483 429 483 446C483 469 472 482 452 482C410 482 341 444 282 389C244 354 216 320 164 247L202 408C206 426 208 438 208 449C208 470 200 482 185 482C164 482 125 460 52 408Z" stroke="rgb(224,224,224)" stroke-opacity="1" stroke-width="8" fill="rgb(224,224,224)" fill-opacity="1"></path></g></g></g></g></g></g></g><g><g><g><text x="348" y="67" style="white-space:pre;stroke:none;fill:rgb(224,224,224);fill-opacity:1;font-size:15px;font-family:Arial, Helvetica, sans-serif;font-weight:400;font-style:normal;dominant-baseline:text-before-edge;text-decoration:rgb(224, 224, 224);">...</text></g></g></g><g><g><g><text x="222" y="43" style="white-space:pre;stroke:none;fill:rgb(224,224,224);fill-opacity:1;font-size:7.5px;font-family:Arial, Helvetica, sans-serif;font-weight:400;font-style:normal;dominant-baseline:text-before-edge;text-decoration:rgb(224, 224, 224);">sign with</text></g></g></g><g><g><g><g transform="matrix(1,0,0,1,220,122.19999186197916)"><path transform="matrix(0.017,0,0,-0.017,0,0)" d="M316 -3C388 -3 437 8 489 34C645 114 741 265 741 431C741 529 711 599 650 642C604 675 519 693 424 692L220 689L210 689C201 689 198 689 97 692L94 664L147 662C171 661 182 653 182 635C182 621 178 589 173 559L86 55C81 31 56 29 33 23L28 -3L121 0L176 0C211 0 282 -3 316 -3ZM384 655C566 655 649 579 649 415C649 225 549 41 329 41C285 41 236 46 168 56C168 68 169 75 172 93L268 650C291 650 349 655 384 655Z" stroke="rgb(224,224,224)" stroke-opacity="1" stroke-width="8" fill="rgb(224,224,224)" fill-opacity="1"></path></g></g><g><g transform="matrix(1,0,0,1,236.39998372395831,122.19999186197916)"><path transform="matrix(0.017,0,0,-0.017,0,0)" d="M604 241L604 300L364 300L364 538L305 538L305 300L65 300L65 241L305 241L305 0L364 0L364 241Z" stroke="rgb(224,224,224)" stroke-opacity="1" stroke-width="8" fill="rgb(224,224,224)" fill-opacity="1"></path></g></g><g><g transform="matrix(1,0,0,1,250.80000813802081,122.19999186197916)"><path transform="matrix(0.017,0,0,-0.017,0,0)" d="M105 664L160 662C184 661 195 653 195 635L112 125C95 34 94 31 54 28L13 25L9 -3L51 -2C92 -1 123 0 141 0C158 0 187 -1 227 -2L280 -3L283 25L218 28C192 29 182 37 182 58C182 67 183 74 186 93L284 648C320 654 336 656 355 656C457 656 506 612 506 519C506 411 434 323 346 323C324 323 304 328 267 342L269 311C306 293 326 288 355 288C484 288 594 405 594 541C594 642 531 695 412 692L108 692Z" stroke="rgb(224,224,224)" stroke-opacity="1" stroke-width="8" fill="rgb(224,224,224)" fill-opacity="1"></path></g></g><g><g><g><g><g transform="matrix(1,0,0,1,261.3222249348958,124.9999959309896)"><path transform="matrix(0.0119,0,0,-0.0119,0,0)" d="M418 -3L418 27L366 30C311 33 301 44 301 96L301 700L60 598L67 548L217 614L217 96C217 44 206 33 152 30L96 27L96 -3C250 0 250 0 261 0C292 0 402 -3 418 -3Z" stroke="rgb(224,224,224)" stroke-opacity="1" stroke-width="8" fill="rgb(224,224,224)" fill-opacity="1"></path></g></g></g></g></g><g><g transform="matrix(1,0,0,1,271.7333170572917,122.19999186197916)"><path transform="matrix(0.017,0,0,-0.017,0,0)" d="M604 241L604 300L364 300L364 538L305 538L305 300L65 300L65 241L305 241L305 0L364 0L364 241Z" stroke="rgb(224,224,224)" stroke-opacity="1" stroke-width="8" fill="rgb(224,224,224)" fill-opacity="1"></path></g></g><g><g transform="matrix(1,0,0,1,286.1333414713542,122.19999186197916)"><path transform="matrix(0.017,0,0,-0.017,0,0)" d="M105 664L160 662C184 661 195 653 195 635L112 125C95 34 94 31 54 28L13 25L9 -3L51 -2C92 -1 123 0 141 0C158 0 187 -1 227 -2L280 -3L283 25L218 28C192 29 182 37 182 58C182 67 183 74 186 93L284 648C320 654 336 656 355 656C457 656 506 612 506 519C506 411 434 323 346 323C324 323 304 328 267 342L269 311C306 293 326 288 355 288C484 288 594 405 594 541C594 642 531 695 412 692L108 692Z" stroke="rgb(224,224,224)" stroke-opacity="1" stroke-width="8" fill="rgb(224,224,224)" fill-opacity="1"></path></g></g><g><g><g><g><g transform="matrix(1,0,0,1,296.6555582682292,124.9999959309896)"><path transform="matrix(0.0119,0,0,-0.0119,0,0)" d="M16 23L16 -3C203 -3 203 0 239 0C275 0 275 -3 468 -3L468 82C353 77 307 81 122 77L304 270C401 373 431 428 431 503C431 618 353 689 226 689C154 689 105 669 56 619L39 483L68 483L81 529C97 587 133 612 200 612C286 612 341 558 341 473C341 398 299 324 186 204Z" stroke="rgb(224,224,224)" stroke-opacity="1" stroke-width="8" fill="rgb(224,224,224)" fill-opacity="1"></path></g></g></g></g></g><g><g transform="matrix(1,0,0,1,307.066650390625,122.19999186197916)"><path transform="matrix(0.017,0,0,-0.017,0,0)" d="M604 241L604 300L364 300L364 538L305 538L305 300L65 300L65 241L305 241L305 0L364 0L364 241Z" stroke="rgb(224,224,224)" stroke-opacity="1" stroke-width="8" fill="rgb(224,224,224)" fill-opacity="1"></path></g></g><g><g transform="matrix(1,0,0,1,321.4666748046875,122.19999186197916)"><path transform="matrix(0.017,0,0,-0.017,0,0)" d="M124 111C94 111 67 83 67 53C67 23 94 -5 123 -5C155 -5 183 22 183 53C183 83 155 111 124 111ZM373 111C343 111 316 83 316 53C316 23 343 -5 372 -5C404 -5 432 22 432 53C432 83 404 111 373 111ZM622 111C592 111 565 83 565 53C565 23 592 -5 621 -5C653 -5 681 22 681 53C681 83 653 111 622 111Z" stroke="rgb(224,224,224)" stroke-opacity="1" stroke-width="8" fill="rgb(224,224,224)" fill-opacity="1"></path></g></g><g><g transform="matrix(1,0,0,1,336.8666585286458,122.19999186197916)"><path transform="matrix(0.017,0,0,-0.017,0,0)" d="M105 664L160 662C184 661 195 653 195 635L112 125C95 34 94 31 54 28L13 25L9 -3L51 -2C92 -1 123 0 141 0C158 0 187 -1 227 -2L280 -3L283 25L218 28C192 29 182 37 182 58C182 67 183 74 186 93L284 648C320 654 336 656 355 656C457 656 506 612 506 519C506 411 434 323 346 323C324 323 304 328 267 342L269 311C306 293 326 288 355 288C484 288 594 405 594 541C594 642 531 695 412 692L108 692Z" stroke="rgb(224,224,224)" stroke-opacity="1" stroke-width="8" fill="rgb(224,224,224)" fill-opacity="1"></path></g></g><g><g><g><g><g transform="matrix(1,0,0,1,347.3888753255208,124.9999959309896)"><path transform="matrix(0.0119,0,0,-0.0119,0,0)" d="M24 388L31 368L63 389C100 412 103 414 110 414C121 414 128 404 128 389C128 338 87 145 46 2L53 -9C78 -2 101 4 123 8C142 134 163 199 209 268C263 352 338 414 383 414C394 414 400 405 400 390C400 372 397 351 389 319L337 107C328 70 324 47 324 31C324 6 335 -9 354 -9C380 -9 416 12 514 85L504 103L478 86C449 67 427 56 417 56C410 56 404 65 404 76C404 81 405 92 406 96L472 372C479 401 483 429 483 446C483 469 472 482 452 482C410 482 341 444 282 389C244 354 216 320 164 247L202 408C206 426 208 438 208 449C208 470 200 482 185 482C164 482 125 460 52 408Z" stroke="rgb(224,224,224)" stroke-opacity="1" stroke-width="8" fill="rgb(224,224,224)" fill-opacity="1"></path></g></g></g></g></g></g></g><g><g><g><text x="270" y="100" style="white-space:pre;stroke:none;fill:rgb(224,224,224);fill-opacity:1;font-size:7.5px;font-family:Arial, Helvetica, sans-serif;font-weight:400;font-style:normal;dominant-baseline:text-before-edge;text-decoration:rgb(224, 224, 224);">sign with</text></g></g></g><g><g><g><g><g><g><text x="400" y="115.23333740234375" style="white-space:pre;stroke:none;fill:rgb(224,224,224);fill-opacity:1;font-size:18px;font-family:Arial, Helvetica, sans-serif;font-weight:400;font-style:normal;dominant-baseline:text-before-edge;text-decoration:rgb(224, 224, 224);">TX</text></g></g></g></g><g><g><g><g><g transform="matrix(1,0,0,1,423.6222330729167,141.46888346354166)"><path transform="matrix(0.01428,0,0,-0.01428,0,0)" d="M271 204L242 77C238 60 236 42 236 26C236 4 245 -9 260 -9C283 -9 324 17 406 85L399 106C375 86 346 59 324 59C315 59 309 68 309 82C309 87 309 90 310 93L402 472L392 481L359 463C318 478 301 482 274 482C246 482 226 477 199 464C137 433 104 403 79 354C35 265 4 145 4 67C4 23 19 -11 38 -11C75 -11 155 41 271 204ZM319 414C297 305 278 253 244 201C187 117 126 59 94 59C82 59 76 72 76 99C76 163 104 280 139 360C163 415 186 433 234 433C257 433 275 429 319 414Z" stroke="rgb(224,224,224)" stroke-opacity="1" stroke-width="8" fill="rgb(224,224,224)" fill-opacity="1"></path></g></g></g></g></g></g></g><g><g><g><g transform="matrix(1,0,0,1,232,155.19999186197916)"><path transform="matrix(0.017,0,0,-0.017,0,0)" d="M31 148C26 97 20 62 9 16C47 -2 81 -11 116 -11C165 -11 211 7 262 47C313 87 334 124 334 174C334 228 302 257 228 271L185 279C125 290 106 307 106 348C106 401 151 442 208 442C249 442 287 424 303 397L303 342L326 342C330 377 334 404 345 455C306 474 278 482 245 482C193 482 132 452 84 404C58 377 47 352 47 316C47 260 78 228 144 215L207 203C251 195 267 177 267 138C267 73 221 29 150 29C115 29 84 40 56 64L56 148Z" stroke="rgb(224,224,224)" stroke-opacity="1" stroke-width="8" fill="rgb(224,224,224)" fill-opacity="1"></path></g></g><g><g><g><g><g transform="matrix(1,0,0,1,239.522216796875,157.9999959309896)"><path transform="matrix(0.0119,0,0,-0.0119,0,0)" d="M418 -3L418 27L366 30C311 33 301 44 301 96L301 700L60 598L67 548L217 614L217 96C217 44 206 33 152 30L96 27L96 -3C250 0 250 0 261 0C292 0 402 -3 418 -3Z" stroke="rgb(224,224,224)" stroke-opacity="1" stroke-width="8" fill="rgb(224,224,224)" fill-opacity="1"></path></g></g></g></g></g><g><g transform="matrix(1,0,0,1,246.5333251953125,155.19999186197916)"><path transform="matrix(0.017,0,0,-0.017,0,0)" d="" stroke="rgb(224,224,224)" stroke-opacity="1" stroke-width="8" fill="rgb(224,224,224)" fill-opacity="1"></path></g></g><g><g transform="matrix(1,0,0,1,250.5333251953125,155.19999186197916)"><path transform="matrix(0.017,0,0,-0.017,0,0)" d="M179.50274 -172L179.50274 713L120.50274 713L120.50274 -172ZM479.50274 -172L479.50274 713L420.50274 713L420.50274 -172Z" stroke="rgb(224,224,224)" stroke-opacity="1" stroke-width="8" fill="rgb(224,224,224)" fill-opacity="1"></path></g></g><g><g transform="matrix(1,0,0,1,260.5333251953125,155.19999186197916)"><path transform="matrix(0.017,0,0,-0.017,0,0)" d="M280 148C275 97 269 62 258 16C296 -2 330 -11 365 -11C414 -11 460 7 511 47C562 87 583 124 583 174C583 228 551 257 477 271L434 279C374 290 355 307 355 348C355 401 400 442 457 442C498 442 536 424 552 397L552 342L575 342C579 377 583 404 594 455C555 474 527 482 494 482C442 482 381 452 333 404C307 377 296 352 296 316C296 260 327 228 393 215L456 203C500 195 516 177 516 138C516 73 470 29 399 29C364 29 333 40 305 64L305 148Z" stroke="rgb(224,224,224)" stroke-opacity="1" stroke-width="8" fill="rgb(224,224,224)" fill-opacity="1"></path></g></g><g><g><g><g><g transform="matrix(1,0,0,1,272.04443359375,157.9999959309896)"><path transform="matrix(0.0119,0,0,-0.0119,0,0)" d="M16 23L16 -3C203 -3 203 0 239 0C275 0 275 -3 468 -3L468 82C353 77 307 81 122 77L304 270C401 373 431 428 431 503C431 618 353 689 226 689C154 689 105 669 56 619L39 483L68 483L81 529C97 587 133 612 200 612C286 612 341 558 341 473C341 398 299 324 186 204Z" stroke="rgb(224,224,224)" stroke-opacity="1" stroke-width="8" fill="rgb(224,224,224)" fill-opacity="1"></path></g></g></g></g></g><g><g transform="matrix(1,0,0,1,279.066650390625,155.19999186197916)"><path transform="matrix(0.017,0,0,-0.017,0,0)" d="" stroke="rgb(224,224,224)" stroke-opacity="1" stroke-width="8" fill="rgb(224,224,224)" fill-opacity="1"></path></g></g><g><g transform="matrix(1,0,0,1,283.066650390625,155.19999186197916)"><path transform="matrix(0.017,0,0,-0.017,0,0)" d="M179.50274 -172L179.50274 713L120.50274 713L120.50274 -172ZM479.50274 -172L479.50274 713L420.50274 713L420.50274 -172Z" stroke="rgb(224,224,224)" stroke-opacity="1" stroke-width="8" fill="rgb(224,224,224)" fill-opacity="1"></path></g></g><g><g transform="matrix(1,0,0,1,293.066650390625,155.19999186197916)"><path transform="matrix(0.017,0,0,-0.017,0,0)" d="" stroke="rgb(224,224,224)" stroke-opacity="1" stroke-width="8" fill="rgb(224,224,224)" fill-opacity="1"></path></g></g><g><g transform="matrix(1,0,0,1,297.066650390625,155.19999186197916)"><path transform="matrix(0.017,0,0,-0.017,0,0)" d="M124 111C94 111 67 83 67 53C67 23 94 -5 123 -5C155 -5 183 22 183 53C183 83 155 111 124 111ZM373 111C343 111 316 83 316 53C316 23 343 -5 372 -5C404 -5 432 22 432 53C432 83 404 111 373 111ZM622 111C592 111 565 83 565 53C565 23 592 -5 621 -5C653 -5 681 22 681 53C681 83 653 111 622 111Z" stroke="rgb(224,224,224)" stroke-opacity="1" stroke-width="8" fill="rgb(224,224,224)" fill-opacity="1"></path></g></g><g><g transform="matrix(1,0,0,1,312.4666748046875,155.19999186197916)"><path transform="matrix(0.017,0,0,-0.017,0,0)" d="M280 148C275 97 269 62 258 16C296 -2 330 -11 365 -11C414 -11 460 7 511 47C562 87 583 124 583 174C583 228 551 257 477 271L434 279C374 290 355 307 355 348C355 401 400 442 457 442C498 442 536 424 552 397L552 342L575 342C579 377 583 404 594 455C555 474 527 482 494 482C442 482 381 452 333 404C307 377 296 352 296 316C296 260 327 228 393 215L456 203C500 195 516 177 516 138C516 73 470 29 399 29C364 29 333 40 305 64L305 148Z" stroke="rgb(224,224,224)" stroke-opacity="1" stroke-width="8" fill="rgb(224,224,224)" fill-opacity="1"></path></g></g><g><g><g><g><g transform="matrix(1,0,0,1,323.9888916015625,157.9999959309896)"><path transform="matrix(0.0119,0,0,-0.0119,0,0)" d="M24 388L31 368L63 389C100 412 103 414 110 414C121 414 128 404 128 389C128 338 87 145 46 2L53 -9C78 -2 101 4 123 8C142 134 163 199 209 268C263 352 338 414 383 414C394 414 400 405 400 390C400 372 397 351 389 319L337 107C328 70 324 47 324 31C324 6 335 -9 354 -9C380 -9 416 12 514 85L504 103L478 86C449 67 427 56 417 56C410 56 404 65 404 76C404 81 405 92 406 96L472 372C479 401 483 429 483 446C483 469 472 482 452 482C410 482 341 444 282 389C244 354 216 320 164 247L202 408C206 426 208 438 208 449C208 470 200 482 185 482C164 482 125 460 52 408Z" stroke="rgb(224,224,224)" stroke-opacity="1" stroke-width="8" fill="rgb(224,224,224)" fill-opacity="1"></path></g></g></g></g></g></g></g><g><g><g><text x="273" y="132" style="white-space:pre;stroke:none;fill:rgb(224,224,224);fill-opacity:1;font-size:7.5px;font-family:Arial, Helvetica, sans-serif;font-weight:400;font-style:normal;dominant-baseline:text-before-edge;text-decoration:rgb(224, 224, 224);">reveal</text></g></g></g><g><g><g><text x="206" y="214" style="white-space:pre;stroke:none;fill:rgb(224,224,224);fill-opacity:1;font-size:7.5px;font-family:Arial, Helvetica, sans-serif;font-weight:400;font-style:normal;dominant-baseline:text-before-edge;text-decoration:rgb(224, 224, 224);">absolute timelock</text></g></g></g><g><g><g><g transform="matrix(1,0,0,1,213,237.19999186197919)"><path transform="matrix(0.017,0,0,-0.017,0,0)" d="M236 722L224 733C179 711 138 697 64 691L60 670L108 670C126 670 142 667 142 647C142 641 142 632 140 622L98 388C78 272 36 80 10 2L17 -9L86 7C94 64 108 164 148 236C193 317 296 414 338 414C349 414 360 407 360 393C360 375 355 342 345 303L294 107C288 85 281 55 281 31C281 6 291 -9 312 -9C344 -9 412 41 471 85L461 103L435 86C412 71 386 56 374 56C367 56 361 65 361 76C361 88 364 101 368 116L432 372C438 398 443 423 443 447C443 464 437 482 411 482C376 482 299 437 231 374C198 343 172 308 144 273L140 275Z" stroke="rgb(224,224,224)" stroke-opacity="1" stroke-width="8" fill="rgb(224,224,224)" fill-opacity="1"></path></g></g><g><g transform="matrix(1,0,0,1,224.39998372395834,237.19999186197919)"><path transform="matrix(0.017,0,0,-0.017,0,0)" d="M604 241L604 300L364 300L364 538L305 538L305 300L65 300L65 241L305 241L305 0L364 0L364 241Z" stroke="rgb(224,224,224)" stroke-opacity="1" stroke-width="8" fill="rgb(224,224,224)" fill-opacity="1"></path></g></g><g><g transform="matrix(1,0,0,1,238.80000813802081,237.19999186197919)"><path transform="matrix(0.017,0,0,-0.017,0,0)" d="M-33 6L-28 -4C79 0 185 0 292 0C393 0 494 -1 594 -4L602 6C560 116 534 238 504 354C475 466 442 580 424 697L399 697C336 587 53 127 -33 6ZM482 37L50 37C148 215 249 389 356 564L363 564C408 391 449 215 482 37Z" stroke="rgb(224,224,224)" stroke-opacity="1" stroke-width="8" fill="rgb(224,224,224)" fill-opacity="1"></path></g></g></g></g><g><g><g><text x="192" y="191.35555013020834" style="white-space:pre;stroke:none;fill:rgb(224,224,224);fill-opacity:1;font-size:10.5px;font-family:Arial, Helvetica, sans-serif;font-weight:400;font-style:normal;dominant-baseline:text-before-edge;text-decoration:rgb(224, 224, 224);">anyone can spend</text></g></g></g><g><g><g><text x="469" y="99" style="white-space:pre;stroke:none;fill:rgb(224,224,224);fill-opacity:1;font-size:7.5px;font-family:Arial, Helvetica, sans-serif;font-weight:400;font-style:normal;dominant-baseline:text-before-edge;text-decoration:rgb(224, 224, 224);">sign with</text></g></g></g><g><g><g><g transform="matrix(1,0,0,1,476,125.19999186197916)"><path transform="matrix(0.017,0,0,-0.017,0,0)" d="M316 -3C388 -3 437 8 489 34C645 114 741 265 741 431C741 529 711 599 650 642C604 675 519 693 424 692L220 689L210 689C201 689 198 689 97 692L94 664L147 662C171 661 182 653 182 635C182 621 178 589 173 559L86 55C81 31 56 29 33 23L28 -3L121 0L176 0C211 0 282 -3 316 -3ZM384 655C566 655 649 579 649 415C649 225 549 41 329 41C285 41 236 46 168 56C168 68 169 75 172 93L268 650C291 650 349 655 384 655Z" stroke="rgb(224,224,224)" stroke-opacity="1" stroke-width="8" fill="rgb(224,224,224)" fill-opacity="1"></path></g></g></g></g></svg>
</svg>
