﻿<svg xmlns="http://www.w3.org/2000/svg" xmlns:xlink="http://www.w3.org/1999/xlink" x="0" y="0" width="661.839990234375" height="391.2666748046875" style="
        width:661.839990234375px;
        height:391.2666748046875px;
        background: transparent;
        fill: none;
">


        <svg xmlns="http://www.w3.org/2000/svg" class="role-diagram-draw-area"><g class="shapes-region" style="stroke: black; fill: none;"><g class="arrow-line"><path class="connection real" stroke-dasharray="" d="  M130,280 C128.35,248.42 168.61,288.32 169.97,252.88" style="stroke: rgb(224, 224, 224); stroke-width: 1px; fill: none; fill-opacity: 1;"/><g stroke="none" transform="matrix(0.01745240643728362,0.9998476951563913,-0.9998476951563913,0.01745240643728362,170,250)" style="stroke: none; stroke-width: 1px; fill: rgb(224, 224, 224);" fill="#e0e0e0"><path d=" M8.93,-4.29 L0,0 L8.93,4.29 Z"/></g></g><g class="arrow-line"><path class="connection real" stroke-dasharray="" d="  M210,280 C211.51,252.01 169.91,282.41 170,260" style="stroke: rgb(224, 224, 224); stroke-width: 1px; fill: none; fill-opacity: 1;"/></g><g class="arrow-line"><path class="connection real" stroke-dasharray="" d="  M280,280 C278.35,248.42 318.61,288.32 319.97,252.88" style="stroke: rgb(224, 224, 224); stroke-width: 1px; fill: none; fill-opacity: 1;"/><g stroke="none" fill="#e0e0e0" transform="matrix(0.01745240643728362,0.9998476951563913,-0.9998476951563913,0.01745240643728362,320,250)" style="stroke: none; fill: rgb(224, 224, 224); stroke-width: 1px;"><path d=" M8.93,-4.29 L0,0 L8.93,4.29 Z"/></g></g><g class="arrow-line"><path class="connection real" stroke-dasharray="" d="  M360,280 C361.51,252.01 319.91,282.41 320,260" style="stroke: rgb(224, 224, 224); stroke-width: 1px; fill: none; fill-opacity: 1;"/></g><g class="arrow-line"><path class="connection real" stroke-dasharray="" d="  M450,280 L450,253" style="stroke: rgb(224, 224, 224); stroke-width: 1px; fill: none; fill-opacity: 1;"/><g stroke="none" transform="matrix(3.061616997868383e-16,1,-1,3.061616997868383e-16,450,250)" style="stroke: none; stroke-width: 1px; fill: rgb(224, 224, 224);" fill="#e0e0e0"><path d=" M8.93,-4.29 L0,0 L8.93,4.29 Z"/></g></g><g class="arrow-line"><path class="connection real" stroke-dasharray="" d="  M250,140 C248.35,108.42 326.69,148.32 329.95,112.88" style="stroke: rgb(224, 224, 224); stroke-width: 1px; fill: none; fill-opacity: 1;"/><g stroke="none" fill="#e0e0e0" transform="matrix(0.01745240643728362,0.9998476951563913,-0.9998476951563913,0.01745240643728362,330.0494080312935,110)" style="stroke: none; fill: rgb(224, 224, 224); stroke-width: 1px;"><path d=" M8.93,-4.29 L0,0 L8.93,4.29 Z"/></g></g><g class="arrow-line"><path class="connection real" stroke-dasharray="" d="  M400,140 C401.51,112.01 329.96,142.41 330.05,120" style="stroke: rgb(224, 224, 224); stroke-width: 1px; fill: none; fill-opacity: 1;"/></g><g class="arrow-line"><path class="connection real" stroke-dasharray="" d="  M170,210 C168.35,178.42 246.6,218.32 249.86,182.88" style="stroke: rgb(224, 224, 224); stroke-width: 1px; fill: none; fill-opacity: 1;"/><g stroke="none" fill="#e0e0e0" transform="matrix(0.01745240643728362,0.9998476951563913,-0.9998476951563913,0.01745240643728362,249.96003956277795,180)" style="stroke: none; fill: rgb(224, 224, 224); stroke-width: 1px;"><path d=" M8.93,-4.29 L0,0 L8.93,4.29 Z"/></g></g><g class="arrow-line"><path class="connection real" stroke-dasharray="" d="  M320,210 C321.51,182.01 249.87,212.41 249.96,190" style="stroke: rgb(224, 224, 224); stroke-width: 1px; fill: none; fill-opacity: 1;"/></g><g class="arrow-line"><path class="connection real" stroke-dasharray="" d="  M450,210 C448.35,178.42 401.77,217.94 400.04,182.85" style="stroke: rgb(224, 224, 224); stroke-width: 1px; fill: none; fill-opacity: 1;"/><g stroke="none" fill="#e0e0e0" transform="matrix(-0.01640535900136159,0.9998654230425394,-0.9998654230425394,-0.01640535900136159,400,180)" style="stroke: none; fill: rgb(224, 224, 224); stroke-width: 1px;"><path d=" M8.93,-4.29 L0,0 L8.93,4.29 Z"/></g></g><g/></g><g/><g/><g/></svg>
        <svg xmlns="http://www.w3.org/2000/svg" xmlns:xlink="http://www.w3.org/1999/xlink" width="660" height="389.439990234375" style="width:660px;height:389.439990234375px;font-family:Asana-Math, Asana;background:transparent;"><g><g><g><g><g><g><g transform="matrix(1,0,0,1,326.7200073242187,102.78666992187499)"><path transform="matrix(0.017,0,0,-0.017,0,0)" d="M390 646L463 646C541 646 577 641 580 629C583 621 585 602 584 592L580 528L608 528L635 692L544 691C456 690 388 689 353 689C316 689 252 690 166 691L71 692L53 528L82 528L97 588C102 610 109 626 115 633C121 640 159 646 196 646L308 646L222 125C206 34 204 31 164 28L113 25L109 -3L166 -2C206 -1 235 0 251 0C270 0 301 -1 340 -2L384 -3L387 25L328 28C302 29 292 37 292 58C292 67 293 74 296 93Z" stroke="rgb(224,224,224)" stroke-opacity="1" stroke-width="8" fill="rgb(224,224,224)" fill-opacity="1"></path></g></g></g></g><svg x="326.7200073242187" overflow="visible" y="79.1199951171875" height="9" width="10.080004882812489"><path d="M0.00,8.06 C 0.63 5.54, 2.52 5.54, 5.04 7.43  S 9.45 6.80, 10.08 5.54" style="fill:none;fill-opacity:1;stroke-width:1px;stroke:rgb(224,224,224);stroke-opacity:1;"></path></svg></g></g></g><g><g><g><text x="226.92000732421874" y="23.42666015625" style="white-space:pre;stroke:none;fill:rgb(224,224,224);fill-opacity:1;font-size:21.6px;font-family:Arial, Helvetica, sans-serif;font-weight:400;font-style:normal;dominant-baseline:text-before-edge;text-decoration:underline rgb(224, 224, 224);">Lottery Ticket Tree </text></g><g><g><g><g><g><g><g><g transform="matrix(1,0,0,1,412.99998779296874,42.413325195312495)"><path transform="matrix(0.024480000000000002,0,0,-0.024480000000000002,0,0)" d="M390 646L463 646C541 646 577 641 580 629C583 621 585 602 584 592L580 528L608 528L635 692L544 691C456 690 388 689 353 689C316 689 252 690 166 691L71 692L53 528L82 528L97 588C102 610 109 626 115 633C121 640 159 646 196 646L308 646L222 125C206 34 204 31 164 28L113 25L109 -3L166 -2C206 -1 235 0 251 0C270 0 301 -1 340 -2L384 -3L387 25L328 28C302 29 292 37 292 58C292 67 293 74 296 93Z" stroke="rgb(224,224,224)" stroke-opacity="1" stroke-width="8" fill="rgb(224,224,224)" fill-opacity="1"></path></g></g></g></g><svg x="412.99998779296874" overflow="visible" y="7.919995117187497" height="12" width="14.666662597656227"><path d="M0.00,10.64 C 0.92 6.97, 3.67 6.97, 7.33 9.72  S 13.75 8.81, 14.67 6.97" style="fill:none;fill-opacity:1;stroke-width:1px;stroke:rgb(224,224,224);stroke-opacity:1;"></path></svg></g></g></g></g></g></g><g><g><g><g transform="matrix(1,0,0,1,121.92000732421876,304.586669921875)"><path transform="matrix(0.017,0,0,-0.017,0,0)" d="M582 103L237 692L75 692L70 664L105 662C150 660 184 615 185 606L92 102C80 40 74 32 38 28L7 25L2 -3L113 0C125 0 126 0 223 -3L228 25L186 28C146 31 137 39 137 72C137 80 138 91 140 102L220 566L558 -11L608 -11L702 542C723 655 725 659 762 662L799 664L802 691L589 692L584 664L631 662C657 661 667 654 667 638C667 631 584 116 582 103Z" stroke="rgb(224,224,224)" stroke-opacity="1" stroke-width="8" fill="rgb(224,224,224)" fill-opacity="1"></path></g></g><g><g><g><g><g transform="matrix(1,0,0,1,135.26666259765625,307.91333007812494)"><path transform="matrix(0.0119,0,0,-0.0119,0,0)" d="M418 -3L418 27L366 30C311 33 301 44 301 96L301 700L60 598L67 548L217 614L217 96C217 44 206 33 152 30L96 27L96 -3C250 0 250 0 261 0C292 0 402 -3 418 -3Z" stroke="rgb(224,224,224)" stroke-opacity="1" stroke-width="8" fill="rgb(224,224,224)" fill-opacity="1"></path></g></g></g></g></g></g></g><g><g><g><g transform="matrix(1,0,0,1,199.92000732421874,303.586669921875)"><path transform="matrix(0.017,0,0,-0.017,0,0)" d="M582 103L237 692L75 692L70 664L105 662C150 660 184 615 185 606L92 102C80 40 74 32 38 28L7 25L2 -3L113 0C125 0 126 0 223 -3L228 25L186 28C146 31 137 39 137 72C137 80 138 91 140 102L220 566L558 -11L608 -11L702 542C723 655 725 659 762 662L799 664L802 691L589 692L584 664L631 662C657 661 667 654 667 638C667 631 584 116 582 103Z" stroke="rgb(224,224,224)" stroke-opacity="1" stroke-width="8" fill="rgb(224,224,224)" fill-opacity="1"></path></g></g><g><g><g><g><g transform="matrix(1,0,0,1,213.26666259765625,306.91333007812494)"><path transform="matrix(0.0119,0,0,-0.0119,0,0)" d="M16 23L16 -3C203 -3 203 0 239 0C275 0 275 -3 468 -3L468 82C353 77 307 81 122 77L304 270C401 373 431 428 431 503C431 618 353 689 226 689C154 689 105 669 56 619L39 483L68 483L81 529C97 587 133 612 200 612C286 612 341 558 341 473C341 398 299 324 186 204Z" stroke="rgb(224,224,224)" stroke-opacity="1" stroke-width="8" fill="rgb(224,224,224)" fill-opacity="1"></path></g></g></g></g></g></g></g><g><g><g><g transform="matrix(1,0,0,1,272.7200073242187,303.77333984374997)"><path transform="matrix(0.017,0,0,-0.017,0,0)" d="M582 103L237 692L75 692L70 664L105 662C150 660 184 615 185 606L92 102C80 40 74 32 38 28L7 25L2 -3L113 0C125 0 126 0 223 -3L228 25L186 28C146 31 137 39 137 72C137 80 138 91 140 102L220 566L558 -11L608 -11L702 542C723 655 725 659 762 662L799 664L802 691L589 692L584 664L631 662C657 661 667 654 667 638C667 631 584 116 582 103Z" stroke="rgb(224,224,224)" stroke-opacity="1" stroke-width="8" fill="rgb(224,224,224)" fill-opacity="1"></path></g></g><g><g><g><g><g transform="matrix(1,0,0,1,286.0666870117187,307.11333007812493)"><path transform="matrix(0.0119,0,0,-0.0119,0,0)" d="M462 224C462 345 355 366 308 374C388 436 418 482 418 541C418 630 344 689 233 689C165 689 120 670 72 622L43 498L74 498L92 554C103 588 166 622 218 622C283 622 336 569 336 506C336 431 277 368 206 368C198 368 187 369 174 370L159 371L147 318L154 312C192 329 211 334 238 334C321 334 369 281 369 190C369 88 308 21 215 21C169 21 128 36 98 64C74 86 61 109 42 163L15 153C36 92 44 56 50 6C103 -12 147 -20 184 -20C307 -20 462 87 462 224Z" stroke="rgb(224,224,224)" stroke-opacity="1" stroke-width="8" fill="rgb(224,224,224)" fill-opacity="1"></path></g></g></g></g></g></g></g><g><g><g><g transform="matrix(1,0,0,1,348.9200073242187,304.586669921875)"><path transform="matrix(0.017,0,0,-0.017,0,0)" d="M582 103L237 692L75 692L70 664L105 662C150 660 184 615 185 606L92 102C80 40 74 32 38 28L7 25L2 -3L113 0C125 0 126 0 223 -3L228 25L186 28C146 31 137 39 137 72C137 80 138 91 140 102L220 566L558 -11L608 -11L702 542C723 655 725 659 762 662L799 664L802 691L589 692L584 664L631 662C657 661 667 654 667 638C667 631 584 116 582 103Z" stroke="rgb(224,224,224)" stroke-opacity="1" stroke-width="8" fill="rgb(224,224,224)" fill-opacity="1"></path></g></g><g><g><g><g><g transform="matrix(1,0,0,1,362.2666870117187,307.91333007812494)"><path transform="matrix(0.0119,0,0,-0.0119,0,0)" d="M280 181L280 106C280 46 269 32 220 30L158 27L158 -3C291 0 291 0 315 0C339 0 339 0 472 -3L472 27L424 30C375 33 364 46 364 106L364 181C423 181 444 180 472 177L472 248L364 245L365 697L285 667L2 204L2 181ZM280 245L65 245L280 597Z" stroke="rgb(224,224,224)" stroke-opacity="1" stroke-width="8" fill="rgb(224,224,224)" fill-opacity="1"></path></g></g></g></g></g></g></g><g><g><g><g transform="matrix(1,0,0,1,111.92000732421876,236.57333984375)"><path transform="matrix(0.017,0,0,-0.017,0,0)" d="M103 664L150 662C174 661 185 653 185 636C185 629 179 576 176 559L104 125C89 36 86 31 46 28L10 25L7 -3L39 -3L133 0L227 -3L259 -3L262 25L210 28C184 30 174 37 174 57C174 63 175 74 176 78L265 613C272 652 277 657 316 661L351 664L354 692L248 689C231 689 213 689 170 690L106 692Z" stroke="rgb(224,224,224)" stroke-opacity="1" stroke-width="8" fill="rgb(224,224,224)" fill-opacity="1"></path></g></g><g><g><g><g><g transform="matrix(1,0,0,1,117.93333740234375,239.913330078125)"><path transform="matrix(0.0119,0,0,-0.0119,0,0)" d="M418 -3L418 27L366 30C311 33 301 44 301 96L301 700L60 598L67 548L217 614L217 96C217 44 206 33 152 30L96 27L96 -3C250 0 250 0 261 0C292 0 402 -3 418 -3Z" stroke="rgb(224,224,224)" stroke-opacity="1" stroke-width="8" fill="rgb(224,224,224)" fill-opacity="1"></path></g></g></g></g></g><g><g><g><g><g transform="matrix(1,0,0,1,124.95999755859374,239.913330078125)"><path transform="matrix(0.0119,0,0,-0.0119,0,0)" d="M16 23L16 -3C203 -3 203 0 239 0C275 0 275 -3 468 -3L468 82C353 77 307 81 122 77L304 270C401 373 431 428 431 503C431 618 353 689 226 689C154 689 105 669 56 619L39 483L68 483L81 529C97 587 133 612 200 612C286 612 341 558 341 473C341 398 299 324 186 204Z" stroke="rgb(224,224,224)" stroke-opacity="1" stroke-width="8" fill="rgb(224,224,224)" fill-opacity="1"></path></g></g></g></g></g><g><g transform="matrix(1,0,0,1,136.58665771484374,236.57333984375)"><path transform="matrix(0.017,0,0,-0.017,0,0)" d="M604 347L604 406L65 406L65 347ZM604 134L604 193L65 193L65 134Z" stroke="rgb(224,224,224)" stroke-opacity="1" stroke-width="8" fill="rgb(224,224,224)" fill-opacity="1"></path></g></g><g><g transform="matrix(1,0,0,1,152.68001708984374,236.57333984375)"><path transform="matrix(0.017,0,0,-0.017,0,0)" d="M221 385L263 613C270 652 277 658 314 661L356 664L359 692L335 692L245 689C229 689 211 689 168 690L104 692L101 664L148 662C172 661 183 653 183 635C183 621 179 590 174 559L100 125C83 33 82 32 42 28L1 25L-3 -3L39 -2C87 -1 110 0 129 0L226 -3L252 -3L255 25L206 28C179 30 170 37 170 58C170 67 171 74 174 93L216 340L277 341C339 342 381 343 400 343C419 343 460 342 523 341L584 340L544 125C535 76 528 48 523 42C519 34 508 30 486 28L436 25L432 -3L488 -2C532 -1 562 0 573 0C589 0 620 -1 663 -2L705 -3L708 25L650 28C624 29 614 37 614 58C614 67 615 76 618 93L710 613C717 652 723 657 761 661L797 664L800 692L784 692L693 689C678 689 657 689 613 690L550 692L547 664L595 662C619 661 630 653 630 635C630 621 626 589 621 559L591 385Z" stroke="rgb(224,224,224)" stroke-opacity="1" stroke-width="8" fill="rgb(224,224,224)" fill-opacity="1"></path></g></g><g><g transform="matrix(1,0,0,1,165.52000732421874,236.91999511718748)"><path transform="matrix(0.017,0,0,-0.017,0,0)" d="M146 266C146 526 243 632 301 700L282 726C225 675 60 542 60 266C60 159 85 58 133 -32C168 -99 200 -138 282 -215L301 -194C255 -137 146 -15 146 266Z" stroke="rgb(224,224,224)" stroke-opacity="1" stroke-width="8" fill="rgb(224,224,224)" fill-opacity="1"></path></g></g><g><g transform="matrix(1,0,0,1,171.01331787109373,236.57333984375)"><path transform="matrix(0.017,0,0,-0.017,0,0)" d="M582 103L237 692L75 692L70 664L105 662C150 660 184 615 185 606L92 102C80 40 74 32 38 28L7 25L2 -3L113 0C125 0 126 0 223 -3L228 25L186 28C146 31 137 39 137 72C137 80 138 91 140 102L220 566L558 -11L608 -11L702 542C723 655 725 659 762 662L799 664L802 691L589 692L584 664L631 662C657 661 667 654 667 638C667 631 584 116 582 103Z" stroke="rgb(224,224,224)" stroke-opacity="1" stroke-width="8" fill="rgb(224,224,224)" fill-opacity="1"></path></g></g><g><g><g><g><g transform="matrix(1,0,0,1,184.35999755859373,239.913330078125)"><path transform="matrix(0.0119,0,0,-0.0119,0,0)" d="M418 -3L418 27L366 30C311 33 301 44 301 96L301 700L60 598L67 548L217 614L217 96C217 44 206 33 152 30L96 27L96 -3C250 0 250 0 261 0C292 0 402 -3 418 -3Z" stroke="rgb(224,224,224)" stroke-opacity="1" stroke-width="8" fill="rgb(224,224,224)" fill-opacity="1"></path></g></g></g></g></g><g><g transform="matrix(1,0,0,1,190.88001708984373,236.57333984375)"><path transform="matrix(0.017,0,0,-0.017,0,0)" d="M204 123C177 114 159 108 106 93C99 17 74 -48 16 -144L30 -155L71 -136C152 -31 190 32 218 109Z" stroke="rgb(224,224,224)" stroke-opacity="1" stroke-width="8" fill="rgb(224,224,224)" fill-opacity="1"></path></g></g><g><g transform="matrix(1,0,0,1,198.86666259765624,236.57333984375)"><path transform="matrix(0.017,0,0,-0.017,0,0)" d="M582 103L237 692L75 692L70 664L105 662C150 660 184 615 185 606L92 102C80 40 74 32 38 28L7 25L2 -3L113 0C125 0 126 0 223 -3L228 25L186 28C146 31 137 39 137 72C137 80 138 91 140 102L220 566L558 -11L608 -11L702 542C723 655 725 659 762 662L799 664L802 691L589 692L584 664L631 662C657 661 667 654 667 638C667 631 584 116 582 103Z" stroke="rgb(224,224,224)" stroke-opacity="1" stroke-width="8" fill="rgb(224,224,224)" fill-opacity="1"></path></g></g><g><g><g><g><g transform="matrix(1,0,0,1,212.21331787109375,239.913330078125)"><path transform="matrix(0.0119,0,0,-0.0119,0,0)" d="M16 23L16 -3C203 -3 203 0 239 0C275 0 275 -3 468 -3L468 82C353 77 307 81 122 77L304 270C401 373 431 428 431 503C431 618 353 689 226 689C154 689 105 669 56 619L39 483L68 483L81 529C97 587 133 612 200 612C286 612 341 558 341 473C341 398 299 324 186 204Z" stroke="rgb(224,224,224)" stroke-opacity="1" stroke-width="8" fill="rgb(224,224,224)" fill-opacity="1"></path></g></g></g></g></g><g><g transform="matrix(1,0,0,1,218.73333740234375,236.91999511718748)"><path transform="matrix(0.017,0,0,-0.017,0,0)" d="M51 726L32 700C87 636 187 526 187 266C187 -10 83 -131 32 -194L51 -215C104 -165 273 -23 273 265C273 542 108 675 51 726Z" stroke="rgb(224,224,224)" stroke-opacity="1" stroke-width="8" fill="rgb(224,224,224)" fill-opacity="1"></path></g></g></g></g><g><g><g><g transform="matrix(1,0,0,1,441.9200073242187,306.333349609375)"><path transform="matrix(0.017,0,0,-0.017,0,0)" d="M582 103L237 692L75 692L70 664L105 662C150 660 184 615 185 606L92 102C80 40 74 32 38 28L7 25L2 -3L113 0C125 0 126 0 223 -3L228 25L186 28C146 31 137 39 137 72C137 80 138 91 140 102L220 566L558 -11L608 -11L702 542C723 655 725 659 762 662L799 664L802 691L589 692L584 664L631 662C657 661 667 654 667 638C667 631 584 116 582 103Z" stroke="rgb(224,224,224)" stroke-opacity="1" stroke-width="8" fill="rgb(224,224,224)" fill-opacity="1"></path></g></g><g><g><g><g><g transform="matrix(1,0,0,1,455.7466674804687,299.81997070312497)"><path transform="matrix(0.0119,0,0,-0.0119,0,0)" d="M168 267L37 213L32 204L68 153L78 153L184 241L202 99L212 95L280 121L280 131L212 253L350 233L359 241L359 303L353 307L214 283L283 408L280 423L218 442L209 438L183 295L88 393L78 393L34 341L37 331Z" stroke="rgb(224,224,224)" stroke-opacity="1" stroke-width="8" fill="rgb(224,224,224)" fill-opacity="1"></path></g></g></g></g><g><g><g><g transform="matrix(1,0,0,1,455.2666870117187,311.313330078125)"><path transform="matrix(0.0119,0,0,-0.0119,0,0)" d="M459 253C459 366 378 446 264 446C216 446 180 443 127 396L127 605L432 604L432 689L75 690L75 322L95 316C142 363 169 377 218 377C314 377 374 309 374 201C374 90 310 25 201 25C147 25 97 43 83 69L37 151L13 137C36 80 48 48 62 4C90 -11 130 -20 173 -20C301 -20 459 89 459 253Z" stroke="rgb(224,224,224)" stroke-opacity="1" stroke-width="8" fill="rgb(224,224,224)" fill-opacity="1"></path></g></g></g></g></g></g></g><g><g><g><g transform="matrix(1,0,0,1,433.9200073242187,236.57333984375)"><path transform="matrix(0.017,0,0,-0.017,0,0)" d="M221 385L263 613C270 652 277 658 314 661L356 664L359 692L335 692L245 689C229 689 211 689 168 690L104 692L101 664L148 662C172 661 183 653 183 635C183 621 179 590 174 559L100 125C83 33 82 32 42 28L1 25L-3 -3L39 -2C87 -1 110 0 129 0L226 -3L252 -3L255 25L206 28C179 30 170 37 170 58C170 67 171 74 174 93L216 340L277 341C339 342 381 343 400 343C419 343 460 342 523 341L584 340L544 125C535 76 528 48 523 42C519 34 508 30 486 28L436 25L432 -3L488 -2C532 -1 562 0 573 0C589 0 620 -1 663 -2L705 -3L708 25L650 28C624 29 614 37 614 58C614 67 615 76 618 93L710 613C717 652 723 657 761 661L797 664L800 692L784 692L693 689C678 689 657 689 613 690L550 692L547 664L595 662C619 661 630 653 630 635C630 621 626 589 621 559L591 385Z" stroke="rgb(224,224,224)" stroke-opacity="1" stroke-width="8" fill="rgb(224,224,224)" fill-opacity="1"></path></g></g><g><g transform="matrix(1,0,0,1,446.7466674804687,236.91999511718748)"><path transform="matrix(0.017,0,0,-0.017,0,0)" d="M146 266C146 526 243 632 301 700L282 726C225 675 60 542 60 266C60 159 85 58 133 -32C168 -99 200 -138 282 -215L301 -194C255 -137 146 -15 146 266Z" stroke="rgb(224,224,224)" stroke-opacity="1" stroke-width="8" fill="rgb(224,224,224)" fill-opacity="1"></path></g></g><g><g transform="matrix(1,0,0,1,452.25330810546876,236.57333984375)"><path transform="matrix(0.017,0,0,-0.017,0,0)" d="M582 103L237 692L75 692L70 664L105 662C150 660 184 615 185 606L92 102C80 40 74 32 38 28L7 25L2 -3L113 0C125 0 126 0 223 -3L228 25L186 28C146 31 137 39 137 72C137 80 138 91 140 102L220 566L558 -11L608 -11L702 542C723 655 725 659 762 662L799 664L802 691L589 692L584 664L631 662C657 661 667 654 667 638C667 631 584 116 582 103Z" stroke="rgb(224,224,224)" stroke-opacity="1" stroke-width="8" fill="rgb(224,224,224)" fill-opacity="1"></path></g></g><g><g><g><g><g transform="matrix(1,0,0,1,465.59998779296876,239.913330078125)"><path transform="matrix(0.0119,0,0,-0.0119,0,0)" d="M459 253C459 366 378 446 264 446C216 446 180 443 127 396L127 605L432 604L432 689L75 690L75 322L95 316C142 363 169 377 218 377C314 377 374 309 374 201C374 90 310 25 201 25C147 25 97 43 83 69L37 151L13 137C36 80 48 48 62 4C90 -11 130 -20 173 -20C301 -20 459 89 459 253Z" stroke="rgb(224,224,224)" stroke-opacity="1" stroke-width="8" fill="rgb(224,224,224)" fill-opacity="1"></path></g></g></g></g></g><g><g transform="matrix(1,0,0,1,472.12000732421876,236.91999511718748)"><path transform="matrix(0.017,0,0,-0.017,0,0)" d="M51 726L32 700C87 636 187 526 187 266C187 -10 83 -131 32 -194L51 -215C104 -165 273 -23 273 265C273 542 108 675 51 726Z" stroke="rgb(224,224,224)" stroke-opacity="1" stroke-width="8" fill="rgb(224,224,224)" fill-opacity="1"></path></g></g></g></g><g><g><g><g transform="matrix(1,0,0,1,181.92000732421874,164.586669921875)"><path transform="matrix(0.017,0,0,-0.017,0,0)" d="M103 664L150 662C174 661 185 653 185 636C185 629 179 576 176 559L104 125C89 36 86 31 46 28L10 25L7 -3L39 -3L133 0L227 -3L259 -3L262 25L210 28C184 30 174 37 174 57C174 63 175 74 176 78L265 613C272 652 277 657 316 661L351 664L354 692L248 689C231 689 213 689 170 690L106 692Z" stroke="rgb(224,224,224)" stroke-opacity="1" stroke-width="8" fill="rgb(224,224,224)" fill-opacity="1"></path></g></g><g><g><g><g><g transform="matrix(1,0,0,1,187.93333740234374,167.913330078125)"><path transform="matrix(0.0119,0,0,-0.0119,0,0)" d="M418 -3L418 27L366 30C311 33 301 44 301 96L301 700L60 598L67 548L217 614L217 96C217 44 206 33 152 30L96 27L96 -3C250 0 250 0 261 0C292 0 402 -3 418 -3Z" stroke="rgb(224,224,224)" stroke-opacity="1" stroke-width="8" fill="rgb(224,224,224)" fill-opacity="1"></path></g></g></g></g></g><g><g><g><g><g transform="matrix(1,0,0,1,194.95999755859373,167.913330078125)"><path transform="matrix(0.0119,0,0,-0.0119,0,0)" d="M16 23L16 -3C203 -3 203 0 239 0C275 0 275 -3 468 -3L468 82C353 77 307 81 122 77L304 270C401 373 431 428 431 503C431 618 353 689 226 689C154 689 105 669 56 619L39 483L68 483L81 529C97 587 133 612 200 612C286 612 341 558 341 473C341 398 299 324 186 204Z" stroke="rgb(224,224,224)" stroke-opacity="1" stroke-width="8" fill="rgb(224,224,224)" fill-opacity="1"></path></g></g></g></g></g><g><g><g><g><g transform="matrix(1,0,0,1,201.99998779296874,167.913330078125)"><path transform="matrix(0.0119,0,0,-0.0119,0,0)" d="M462 224C462 345 355 366 308 374C388 436 418 482 418 541C418 630 344 689 233 689C165 689 120 670 72 622L43 498L74 498L92 554C103 588 166 622 218 622C283 622 336 569 336 506C336 431 277 368 206 368C198 368 187 369 174 370L159 371L147 318L154 312C192 329 211 334 238 334C321 334 369 281 369 190C369 88 308 21 215 21C169 21 128 36 98 64C74 86 61 109 42 163L15 153C36 92 44 56 50 6C103 -12 147 -20 184 -20C307 -20 462 87 462 224Z" stroke="rgb(224,224,224)" stroke-opacity="1" stroke-width="8" fill="rgb(224,224,224)" fill-opacity="1"></path></g></g></g></g></g><g><g><g><g><g transform="matrix(1,0,0,1,209.02667236328125,167.913330078125)"><path transform="matrix(0.0119,0,0,-0.0119,0,0)" d="M280 181L280 106C280 46 269 32 220 30L158 27L158 -3C291 0 291 0 315 0C339 0 339 0 472 -3L472 27L424 30C375 33 364 46 364 106L364 181C423 181 444 180 472 177L472 248L364 245L365 697L285 667L2 204L2 181ZM280 245L65 245L280 597Z" stroke="rgb(224,224,224)" stroke-opacity="1" stroke-width="8" fill="rgb(224,224,224)" fill-opacity="1"></path></g></g></g></g></g><g><g transform="matrix(1,0,0,1,220.65333251953123,164.586669921875)"><path transform="matrix(0.017,0,0,-0.017,0,0)" d="M604 347L604 406L65 406L65 347ZM604 134L604 193L65 193L65 134Z" stroke="rgb(224,224,224)" stroke-opacity="1" stroke-width="8" fill="rgb(224,224,224)" fill-opacity="1"></path></g></g><g><g transform="matrix(1,0,0,1,236.74666748046872,164.586669921875)"><path transform="matrix(0.017,0,0,-0.017,0,0)" d="M221 385L263 613C270 652 277 658 314 661L356 664L359 692L335 692L245 689C229 689 211 689 168 690L104 692L101 664L148 662C172 661 183 653 183 635C183 621 179 590 174 559L100 125C83 33 82 32 42 28L1 25L-3 -3L39 -2C87 -1 110 0 129 0L226 -3L252 -3L255 25L206 28C179 30 170 37 170 58C170 67 171 74 174 93L216 340L277 341C339 342 381 343 400 343C419 343 460 342 523 341L584 340L544 125C535 76 528 48 523 42C519 34 508 30 486 28L436 25L432 -3L488 -2C532 -1 562 0 573 0C589 0 620 -1 663 -2L705 -3L708 25L650 28C624 29 614 37 614 58C614 67 615 76 618 93L710 613C717 652 723 657 761 661L797 664L800 692L784 692L693 689C678 689 657 689 613 690L550 692L547 664L595 662C619 661 630 653 630 635C630 621 626 589 621 559L591 385Z" stroke="rgb(224,224,224)" stroke-opacity="1" stroke-width="8" fill="rgb(224,224,224)" fill-opacity="1"></path></g></g><g><g transform="matrix(1,0,0,1,249.58665771484374,164.9199951171875)"><path transform="matrix(0.017,0,0,-0.017,0,0)" d="M146 266C146 526 243 632 301 700L282 726C225 675 60 542 60 266C60 159 85 58 133 -32C168 -99 200 -138 282 -215L301 -194C255 -137 146 -15 146 266Z" stroke="rgb(224,224,224)" stroke-opacity="1" stroke-width="8" fill="rgb(224,224,224)" fill-opacity="1"></path></g></g><g><g transform="matrix(1,0,0,1,255.08001708984375,164.586669921875)"><path transform="matrix(0.017,0,0,-0.017,0,0)" d="M103 664L150 662C174 661 185 653 185 636C185 629 179 576 176 559L104 125C89 36 86 31 46 28L10 25L7 -3L39 -3L133 0L227 -3L259 -3L262 25L210 28C184 30 174 37 174 57C174 63 175 74 176 78L265 613C272 652 277 657 316 661L351 664L354 692L248 689C231 689 213 689 170 690L106 692Z" stroke="rgb(224,224,224)" stroke-opacity="1" stroke-width="8" fill="rgb(224,224,224)" fill-opacity="1"></path></g></g><g><g><g><g><g transform="matrix(1,0,0,1,261.0933471679687,167.913330078125)"><path transform="matrix(0.0119,0,0,-0.0119,0,0)" d="M418 -3L418 27L366 30C311 33 301 44 301 96L301 700L60 598L67 548L217 614L217 96C217 44 206 33 152 30L96 27L96 -3C250 0 250 0 261 0C292 0 402 -3 418 -3Z" stroke="rgb(224,224,224)" stroke-opacity="1" stroke-width="8" fill="rgb(224,224,224)" fill-opacity="1"></path></g></g></g></g></g><g><g><g><g><g transform="matrix(1,0,0,1,268.1333374023437,167.913330078125)"><path transform="matrix(0.0119,0,0,-0.0119,0,0)" d="M16 23L16 -3C203 -3 203 0 239 0C275 0 275 -3 468 -3L468 82C353 77 307 81 122 77L304 270C401 373 431 428 431 503C431 618 353 689 226 689C154 689 105 669 56 619L39 483L68 483L81 529C97 587 133 612 200 612C286 612 341 558 341 473C341 398 299 324 186 204Z" stroke="rgb(224,224,224)" stroke-opacity="1" stroke-width="8" fill="rgb(224,224,224)" fill-opacity="1"></path></g></g></g></g></g><g><g transform="matrix(1,0,0,1,274.65330810546874,164.586669921875)"><path transform="matrix(0.017,0,0,-0.017,0,0)" d="M204 123C177 114 159 108 106 93C99 17 74 -48 16 -144L30 -155L71 -136C152 -31 190 32 218 109Z" stroke="rgb(224,224,224)" stroke-opacity="1" stroke-width="8" fill="rgb(224,224,224)" fill-opacity="1"></path></g></g><g><g transform="matrix(1,0,0,1,282.62664794921875,164.586669921875)"><path transform="matrix(0.017,0,0,-0.017,0,0)" d="M103 664L150 662C174 661 185 653 185 636C185 629 179 576 176 559L104 125C89 36 86 31 46 28L10 25L7 -3L39 -3L133 0L227 -3L259 -3L262 25L210 28C184 30 174 37 174 57C174 63 175 74 176 78L265 613C272 652 277 657 316 661L351 664L354 692L248 689C231 689 213 689 170 690L106 692Z" stroke="rgb(224,224,224)" stroke-opacity="1" stroke-width="8" fill="rgb(224,224,224)" fill-opacity="1"></path></g></g><g><g><g><g><g transform="matrix(1,0,0,1,288.65330810546874,167.913330078125)"><path transform="matrix(0.0119,0,0,-0.0119,0,0)" d="M462 224C462 345 355 366 308 374C388 436 418 482 418 541C418 630 344 689 233 689C165 689 120 670 72 622L43 498L74 498L92 554C103 588 166 622 218 622C283 622 336 569 336 506C336 431 277 368 206 368C198 368 187 369 174 370L159 371L147 318L154 312C192 329 211 334 238 334C321 334 369 281 369 190C369 88 308 21 215 21C169 21 128 36 98 64C74 86 61 109 42 163L15 153C36 92 44 56 50 6C103 -12 147 -20 184 -20C307 -20 462 87 462 224Z" stroke="rgb(224,224,224)" stroke-opacity="1" stroke-width="8" fill="rgb(224,224,224)" fill-opacity="1"></path></g></g></g></g></g><g><g><g><g><g transform="matrix(1,0,0,1,295.6800170898437,167.913330078125)"><path transform="matrix(0.0119,0,0,-0.0119,0,0)" d="M280 181L280 106C280 46 269 32 220 30L158 27L158 -3C291 0 291 0 315 0C339 0 339 0 472 -3L472 27L424 30C375 33 364 46 364 106L364 181C423 181 444 180 472 177L472 248L364 245L365 697L285 667L2 204L2 181ZM280 245L65 245L280 597Z" stroke="rgb(224,224,224)" stroke-opacity="1" stroke-width="8" fill="rgb(224,224,224)" fill-opacity="1"></path></g></g></g></g></g><g><g transform="matrix(1,0,0,1,302.1999877929687,164.9199951171875)"><path transform="matrix(0.017,0,0,-0.017,0,0)" d="M51 726L32 700C87 636 187 526 187 266C187 -10 83 -131 32 -194L51 -215C104 -165 273 -23 273 265C273 542 108 675 51 726Z" stroke="rgb(224,224,224)" stroke-opacity="1" stroke-width="8" fill="rgb(224,224,224)" fill-opacity="1"></path></g></g></g></g><g><g><g><g transform="matrix(1,0,0,1,265.9200073242187,236.57333984375)"><path transform="matrix(0.017,0,0,-0.017,0,0)" d="M103 664L150 662C174 661 185 653 185 636C185 629 179 576 176 559L104 125C89 36 86 31 46 28L10 25L7 -3L39 -3L133 0L227 -3L259 -3L262 25L210 28C184 30 174 37 174 57C174 63 175 74 176 78L265 613C272 652 277 657 316 661L351 664L354 692L248 689C231 689 213 689 170 690L106 692Z" stroke="rgb(224,224,224)" stroke-opacity="1" stroke-width="8" fill="rgb(224,224,224)" fill-opacity="1"></path></g></g><g><g><g><g><g transform="matrix(1,0,0,1,271.93333740234374,239.913330078125)"><path transform="matrix(0.0119,0,0,-0.0119,0,0)" d="M462 224C462 345 355 366 308 374C388 436 418 482 418 541C418 630 344 689 233 689C165 689 120 670 72 622L43 498L74 498L92 554C103 588 166 622 218 622C283 622 336 569 336 506C336 431 277 368 206 368C198 368 187 369 174 370L159 371L147 318L154 312C192 329 211 334 238 334C321 334 369 281 369 190C369 88 308 21 215 21C169 21 128 36 98 64C74 86 61 109 42 163L15 153C36 92 44 56 50 6C103 -12 147 -20 184 -20C307 -20 462 87 462 224Z" stroke="rgb(224,224,224)" stroke-opacity="1" stroke-width="8" fill="rgb(224,224,224)" fill-opacity="1"></path></g></g></g></g></g><g><g><g><g><g transform="matrix(1,0,0,1,278.9599975585937,239.913330078125)"><path transform="matrix(0.0119,0,0,-0.0119,0,0)" d="M280 181L280 106C280 46 269 32 220 30L158 27L158 -3C291 0 291 0 315 0C339 0 339 0 472 -3L472 27L424 30C375 33 364 46 364 106L364 181C423 181 444 180 472 177L472 248L364 245L365 697L285 667L2 204L2 181ZM280 245L65 245L280 597Z" stroke="rgb(224,224,224)" stroke-opacity="1" stroke-width="8" fill="rgb(224,224,224)" fill-opacity="1"></path></g></g></g></g></g><g><g transform="matrix(1,0,0,1,290.58665771484374,236.57333984375)"><path transform="matrix(0.017,0,0,-0.017,0,0)" d="M604 347L604 406L65 406L65 347ZM604 134L604 193L65 193L65 134Z" stroke="rgb(224,224,224)" stroke-opacity="1" stroke-width="8" fill="rgb(224,224,224)" fill-opacity="1"></path></g></g><g><g transform="matrix(1,0,0,1,306.6800170898437,236.57333984375)"><path transform="matrix(0.017,0,0,-0.017,0,0)" d="M221 385L263 613C270 652 277 658 314 661L356 664L359 692L335 692L245 689C229 689 211 689 168 690L104 692L101 664L148 662C172 661 183 653 183 635C183 621 179 590 174 559L100 125C83 33 82 32 42 28L1 25L-3 -3L39 -2C87 -1 110 0 129 0L226 -3L252 -3L255 25L206 28C179 30 170 37 170 58C170 67 171 74 174 93L216 340L277 341C339 342 381 343 400 343C419 343 460 342 523 341L584 340L544 125C535 76 528 48 523 42C519 34 508 30 486 28L436 25L432 -3L488 -2C532 -1 562 0 573 0C589 0 620 -1 663 -2L705 -3L708 25L650 28C624 29 614 37 614 58C614 67 615 76 618 93L710 613C717 652 723 657 761 661L797 664L800 692L784 692L693 689C678 689 657 689 613 690L550 692L547 664L595 662C619 661 630 653 630 635C630 621 626 589 621 559L591 385Z" stroke="rgb(224,224,224)" stroke-opacity="1" stroke-width="8" fill="rgb(224,224,224)" fill-opacity="1"></path></g></g><g><g transform="matrix(1,0,0,1,319.52000732421874,236.91999511718748)"><path transform="matrix(0.017,0,0,-0.017,0,0)" d="M146 266C146 526 243 632 301 700L282 726C225 675 60 542 60 266C60 159 85 58 133 -32C168 -99 200 -138 282 -215L301 -194C255 -137 146 -15 146 266Z" stroke="rgb(224,224,224)" stroke-opacity="1" stroke-width="8" fill="rgb(224,224,224)" fill-opacity="1"></path></g></g><g><g transform="matrix(1,0,0,1,325.01331787109376,236.57333984375)"><path transform="matrix(0.017,0,0,-0.017,0,0)" d="M582 103L237 692L75 692L70 664L105 662C150 660 184 615 185 606L92 102C80 40 74 32 38 28L7 25L2 -3L113 0C125 0 126 0 223 -3L228 25L186 28C146 31 137 39 137 72C137 80 138 91 140 102L220 566L558 -11L608 -11L702 542C723 655 725 659 762 662L799 664L802 691L589 692L584 664L631 662C657 661 667 654 667 638C667 631 584 116 582 103Z" stroke="rgb(224,224,224)" stroke-opacity="1" stroke-width="8" fill="rgb(224,224,224)" fill-opacity="1"></path></g></g><g><g><g><g><g transform="matrix(1,0,0,1,338.35999755859376,239.913330078125)"><path transform="matrix(0.0119,0,0,-0.0119,0,0)" d="M462 224C462 345 355 366 308 374C388 436 418 482 418 541C418 630 344 689 233 689C165 689 120 670 72 622L43 498L74 498L92 554C103 588 166 622 218 622C283 622 336 569 336 506C336 431 277 368 206 368C198 368 187 369 174 370L159 371L147 318L154 312C192 329 211 334 238 334C321 334 369 281 369 190C369 88 308 21 215 21C169 21 128 36 98 64C74 86 61 109 42 163L15 153C36 92 44 56 50 6C103 -12 147 -20 184 -20C307 -20 462 87 462 224Z" stroke="rgb(224,224,224)" stroke-opacity="1" stroke-width="8" fill="rgb(224,224,224)" fill-opacity="1"></path></g></g></g></g></g><g><g transform="matrix(1,0,0,1,344.88001708984376,236.57333984375)"><path transform="matrix(0.017,0,0,-0.017,0,0)" d="M204 123C177 114 159 108 106 93C99 17 74 -48 16 -144L30 -155L71 -136C152 -31 190 32 218 109Z" stroke="rgb(224,224,224)" stroke-opacity="1" stroke-width="8" fill="rgb(224,224,224)" fill-opacity="1"></path></g></g><g><g transform="matrix(1,0,0,1,352.86668701171874,236.57333984375)"><path transform="matrix(0.017,0,0,-0.017,0,0)" d="M582 103L237 692L75 692L70 664L105 662C150 660 184 615 185 606L92 102C80 40 74 32 38 28L7 25L2 -3L113 0C125 0 126 0 223 -3L228 25L186 28C146 31 137 39 137 72C137 80 138 91 140 102L220 566L558 -11L608 -11L702 542C723 655 725 659 762 662L799 664L802 691L589 692L584 664L631 662C657 661 667 654 667 638C667 631 584 116 582 103Z" stroke="rgb(224,224,224)" stroke-opacity="1" stroke-width="8" fill="rgb(224,224,224)" fill-opacity="1"></path></g></g><g><g><g><g><g transform="matrix(1,0,0,1,366.21331787109375,239.913330078125)"><path transform="matrix(0.0119,0,0,-0.0119,0,0)" d="M280 181L280 106C280 46 269 32 220 30L158 27L158 -3C291 0 291 0 315 0C339 0 339 0 472 -3L472 27L424 30C375 33 364 46 364 106L364 181C423 181 444 180 472 177L472 248L364 245L365 697L285 667L2 204L2 181ZM280 245L65 245L280 597Z" stroke="rgb(224,224,224)" stroke-opacity="1" stroke-width="8" fill="rgb(224,224,224)" fill-opacity="1"></path></g></g></g></g></g><g><g transform="matrix(1,0,0,1,372.73333740234375,236.91999511718748)"><path transform="matrix(0.017,0,0,-0.017,0,0)" d="M51 726L32 700C87 636 187 526 187 266C187 -10 83 -131 32 -194L51 -215C104 -165 273 -23 273 265C273 542 108 675 51 726Z" stroke="rgb(224,224,224)" stroke-opacity="1" stroke-width="8" fill="rgb(224,224,224)" fill-opacity="1"></path></g></g></g></g><g><g><g><g transform="matrix(1,0,0,1,370.9200073242187,166.586669921875)"><path transform="matrix(0.017,0,0,-0.017,0,0)" d="M221 385L263 613C270 652 277 658 314 661L356 664L359 692L335 692L245 689C229 689 211 689 168 690L104 692L101 664L148 662C172 661 183 653 183 635C183 621 179 590 174 559L100 125C83 33 82 32 42 28L1 25L-3 -3L39 -2C87 -1 110 0 129 0L226 -3L252 -3L255 25L206 28C179 30 170 37 170 58C170 67 171 74 174 93L216 340L277 341C339 342 381 343 400 343C419 343 460 342 523 341L584 340L544 125C535 76 528 48 523 42C519 34 508 30 486 28L436 25L432 -3L488 -2C532 -1 562 0 573 0C589 0 620 -1 663 -2L705 -3L708 25L650 28C624 29 614 37 614 58C614 67 615 76 618 93L710 613C717 652 723 657 761 661L797 664L800 692L784 692L693 689C678 689 657 689 613 690L550 692L547 664L595 662C619 661 630 653 630 635C630 621 626 589 621 559L591 385Z" stroke="rgb(224,224,224)" stroke-opacity="1" stroke-width="8" fill="rgb(224,224,224)" fill-opacity="1"></path></g></g><g><g transform="matrix(1,0,0,1,383.7466674804687,166.9199951171875)"><path transform="matrix(0.017,0,0,-0.017,0,0)" d="M146 266C146 526 243 632 301 700L282 726C225 675 60 542 60 266C60 159 85 58 133 -32C168 -99 200 -138 282 -215L301 -194C255 -137 146 -15 146 266Z" stroke="rgb(224,224,224)" stroke-opacity="1" stroke-width="8" fill="rgb(224,224,224)" fill-opacity="1"></path></g></g><g><g transform="matrix(1,0,0,1,389.25330810546876,166.586669921875)"><path transform="matrix(0.017,0,0,-0.017,0,0)" d="M221 385L263 613C270 652 277 658 314 661L356 664L359 692L335 692L245 689C229 689 211 689 168 690L104 692L101 664L148 662C172 661 183 653 183 635C183 621 179 590 174 559L100 125C83 33 82 32 42 28L1 25L-3 -3L39 -2C87 -1 110 0 129 0L226 -3L252 -3L255 25L206 28C179 30 170 37 170 58C170 67 171 74 174 93L216 340L277 341C339 342 381 343 400 343C419 343 460 342 523 341L584 340L544 125C535 76 528 48 523 42C519 34 508 30 486 28L436 25L432 -3L488 -2C532 -1 562 0 573 0C589 0 620 -1 663 -2L705 -3L708 25L650 28C624 29 614 37 614 58C614 67 615 76 618 93L710 613C717 652 723 657 761 661L797 664L800 692L784 692L693 689C678 689 657 689 613 690L550 692L547 664L595 662C619 661 630 653 630 635C630 621 626 589 621 559L591 385Z" stroke="rgb(224,224,224)" stroke-opacity="1" stroke-width="8" fill="rgb(224,224,224)" fill-opacity="1"></path></g></g><g><g transform="matrix(1,0,0,1,402.08001708984375,166.9199951171875)"><path transform="matrix(0.017,0,0,-0.017,0,0)" d="M146 266C146 526 243 632 301 700L282 726C225 675 60 542 60 266C60 159 85 58 133 -32C168 -99 200 -138 282 -215L301 -194C255 -137 146 -15 146 266Z" stroke="rgb(224,224,224)" stroke-opacity="1" stroke-width="8" fill="rgb(224,224,224)" fill-opacity="1"></path></g></g><g><g transform="matrix(1,0,0,1,407.58665771484374,166.586669921875)"><path transform="matrix(0.017,0,0,-0.017,0,0)" d="M582 103L237 692L75 692L70 664L105 662C150 660 184 615 185 606L92 102C80 40 74 32 38 28L7 25L2 -3L113 0C125 0 126 0 223 -3L228 25L186 28C146 31 137 39 137 72C137 80 138 91 140 102L220 566L558 -11L608 -11L702 542C723 655 725 659 762 662L799 664L802 691L589 692L584 664L631 662C657 661 667 654 667 638C667 631 584 116 582 103Z" stroke="rgb(224,224,224)" stroke-opacity="1" stroke-width="8" fill="rgb(224,224,224)" fill-opacity="1"></path></g></g><g><g><g><g><g transform="matrix(1,0,0,1,420.93333740234374,169.913330078125)"><path transform="matrix(0.0119,0,0,-0.0119,0,0)" d="M459 253C459 366 378 446 264 446C216 446 180 443 127 396L127 605L432 604L432 689L75 690L75 322L95 316C142 363 169 377 218 377C314 377 374 309 374 201C374 90 310 25 201 25C147 25 97 43 83 69L37 151L13 137C36 80 48 48 62 4C90 -11 130 -20 173 -20C301 -20 459 89 459 253Z" stroke="rgb(224,224,224)" stroke-opacity="1" stroke-width="8" fill="rgb(224,224,224)" fill-opacity="1"></path></g></g></g></g></g><g><g transform="matrix(1,0,0,1,427.45330810546875,166.9199951171875)"><path transform="matrix(0.017,0,0,-0.017,0,0)" d="M51 726L32 700C87 636 187 526 187 266C187 -10 83 -131 32 -194L51 -215C104 -165 273 -23 273 265C273 542 108 675 51 726Z" stroke="rgb(224,224,224)" stroke-opacity="1" stroke-width="8" fill="rgb(224,224,224)" fill-opacity="1"></path></g></g><g><g transform="matrix(1,0,0,1,432.94666748046876,166.9199951171875)"><path transform="matrix(0.017,0,0,-0.017,0,0)" d="M51 726L32 700C87 636 187 526 187 266C187 -10 83 -131 32 -194L51 -215C104 -165 273 -23 273 265C273 542 108 675 51 726Z" stroke="rgb(224,224,224)" stroke-opacity="1" stroke-width="8" fill="rgb(224,224,224)" fill-opacity="1"></path></g></g></g></g><g><g><g><text x="379.9200073242187" y="328.7466796875" style="white-space:pre;stroke:none;fill:rgb(224,224,224);fill-opacity:1;font-size:10.5px;font-family:Arial, Helvetica, sans-serif;font-weight:400;font-style:normal;dominant-baseline:text-before-edge;text-decoration:rgb(224, 224, 224);">* Leaf nodes without siblings must </text></g></g><g><g><text x="383.58665771484374" y="343.7466796875" style="white-space:pre;stroke:none;fill:rgb(224,224,224);fill-opacity:1;font-size:10.5px;font-family:Arial, Helvetica, sans-serif;font-weight:400;font-style:normal;dominant-baseline:text-before-edge;text-decoration:rgb(224, 224, 224);">still live at the bottom of the tree, </text></g></g><g><g><text x="383.58665771484374" y="358.7466796875" style="white-space:pre;stroke:none;fill:rgb(224,224,224);fill-opacity:1;font-size:10.5px;font-family:Arial, Helvetica, sans-serif;font-weight:400;font-style:normal;dominant-baseline:text-before-edge;text-decoration:rgb(224, 224, 224);">so that their index can be proven.</text></g></g></g><g><g><g><text x="261.9200073242187" y="52.160009765625" style="white-space:pre;stroke:none;fill:rgb(224,224,224);fill-opacity:1;font-size:15px;font-family:Arial, Helvetica, sans-serif;font-weight:400;font-style:italic;dominant-baseline:text-before-edge;text-decoration:rgb(224, 224, 224);">Example with 5 players</text></g></g></g></svg>
</svg>
